<svg viewBox="0 0 32 32" version="1.1" xmlns="http://www.w3.org/2000/svg"><g fill-rule="evenodd" class="atom-icon small-icon" id="atom-small"><path d="M30.8492424,30.8492424 C33.9734367,27.7250481 29.8578644,18.5441559 21.6568542,10.3431458 C13.4558441,2.14213562 4.27495193,-1.97343674 1.1507576,1.1507576 C-1.97343674,4.27495193 2.14213562,13.4558441 10.3431458,21.6568542 C18.5441559,29.8578644 27.7250481,33.9734367 30.8492424,30.8492424 Z M28.9930871,28.9930871 C31.3362329,26.6499414 27.4185245,18.9332432 20.2426407,11.7573593 C13.0667568,4.58147545 5.35005865,0.663767145 3.0069129,3.0069129 C0.663767145,5.35005865 4.58147545,13.0667568 11.7573593,20.2426407 C18.9332432,27.4185245 26.6499414,31.3362329 28.9930871,28.9930871 Z" class="axis2"></path><path d="M1.1507576,30.8492424 C4.27495193,33.9734367 13.4558441,29.8578644 21.6568542,21.6568542 C29.8578644,13.4558441 33.9734367,4.27495193 30.8492424,1.1507576 C27.7250481,-1.97343674 18.5441559,2.14213562 10.3431458,10.3431458 C2.14213562,18.5441559 -1.97343674,27.7250481 1.1507576,30.8492424 Z M3.0069129,28.9930871 C5.35005865,31.3362329 13.0667568,27.4185245 20.2426407,20.2426407 C27.4185245,13.0667568 31.3362329,5.35005865 28.9930871,3.0069129 C26.6499414,0.663767145 18.9332432,4.58147545 11.7573593,11.7573593 C4.58147545,18.9332432 0.663767145,26.6499414 3.0069129,28.9930871 Z" class="axis1"></path><circle cx="16" cy="16" r="4" class="center"></circle></g></svg>