<svg viewBox="0 0 32 32" version="1.1" xmlns="http://www.w3.org/2000/svg" class="svg-icon"><g fill-rule="evenodd" class="beginning-icon small-icon" id="beginning-small"><path d="M8.49687444,21.9729908 C9.89687442,19.942856 18.9949839,8.77452354 19.496874,8.26958077 C19.8499997,7.91430719 20.1499997,7.91430718 20.496874,8.26958077 C20.9899899,8.77463709 30.1068689,19.942856 31.5068689,21.9729908 C32.9068689,24.0031256 30.9816931,24.0031256 29.9968737,24.0031256 L9.99687443,24.0031256 C8.99687446,24.0031256 7.09687445,24.0031256 8.49687444,21.9729908 Z" transform="translate(20.000000, 16.003126) rotate(-90.000000) translate(-20.000000, -16.003126) " class="arrow"></path><path d="M6,4 C4.8954305,4 4,4.89702623 4,6.00494659 L4,25.9950534 C4,27.1023548 4.88772964,28 6,28 L6,28 C7.1045695,28 8,27.1029738 8,25.9950534 L8,6.00494659 C8,4.89764516 7.11227036,4 6,4 L6,4 Z" class="pipe"></path></g></svg>