<svg viewBox="0 0 32 32" version="1.1" xmlns="http://www.w3.org/2000/svg"><g fill-rule="evenodd" class="bell-icon small-icon" id="bell-small"><path d="M13,6 L16,6 L19,6 L19,2.4 C19,1.0745166 17.6568542,0 16,0 C14.3431458,0 13,1.0745166 13,2.4 L13,6 Z" class="top"></path><path d="M16,32 C18.209139,32 20,30.209139 20,28 C20,25.790861 18.209139,24 16,24 C13.790861,24 12,25.790861 12,28 C12,30.209139 13.790861,32 16,32 Z" class="bell-ball"></path><path d="M4,24 L0,28 L32,28 L28,24 L4,24 Z" class="bell bell-bottom"></path><path d="M16,22 L28,22 C28,6 25,4 16,4 C7,4 4,6 4,22 L16,22 Z" class="bell bell-top"></path></g></svg>