<svg viewBox="0 0 32 32" version="1.1" xmlns="http://www.w3.org/2000/svg" class="svg-icon"><g fill-rule="evenodd" class="bomb-icon small-icon" id="bomb-small"><rect x="8" y="8" width="6" height="4" class="top"></rect><circle cx="11" cy="19" r="9" class="bomb"></circle><path d="M22.8381267,7.17768896 C22.3194373,7.35575413 21.5164815,7.27946965 21.0353296,7.00191204 L21.3068568,7.15854538 C20.8298888,6.8834013 20.0978578,6.37465295 19.6748805,6.02475609 L19.4311011,5.82309595 C18.5757477,5.11552731 17.0129259,4.33510427 15.9350723,4.07869516 L15.9121183,4.07323467 C14.8366683,3.81739735 13.2622172,4.17639681 12.412956,4.86099749 L11.7789778,5.37205569 C11.3487602,5.71885975 10.7976351,6.40472984 10.5526475,6.89470505 L10,8 L12,8 L12.106556,7.78688802 C12.3529255,7.29414899 12.9090042,6.61846477 13.3413231,6.28334017 L13.1761681,6.41136492 C13.6117416,6.0737174 14.3977452,5.89295867 14.9417774,6.00978088 L15.9217724,6.22021914 C16.4613179,6.33607792 17.2650982,6.69722319 17.7093366,7.02122249 L18.8906841,7.88282243 C19.338383,8.20934558 20.1400054,8.56637871 20.6794291,8.67991437 L20.9984485,8.74706025 C21.5386462,8.86075883 22.4302617,8.96174574 22.9285714,8.97142861 L22.9285714,8.97142861 L22,10 L24,10 L24,12 L26,10 L28.0786791,12 L28.0786791,10 L30,10 L28.0786791,8 L30,6 L28.0786791,6 L28.0786791,4 L26,6 L24,4 L24,6 L22,6 L23.0909092,7.09090915 L22.8381267,7.17768896 Z" class="fuse"></path></g></svg>