<svg viewBox="0 0 33 32" version="1.1" xmlns="http://www.w3.org/2000/svg"><g fill-rule="evenodd" class="book-closed-icon small-icon" id="book-closed-small"><path d="M24,1.99124431 C24,0.891510444 23.1052949,0 22,0 L24,0 C22.8954305,0 21.106072,0 20.0069327,0 L6.99109042,0 C5.33915679,0 4,1.33425951 4,2.99610022 L4,29.0038998 C4,30.6586002 4,32 6.99109042,32 L26.0045923,32 C27.1066256,32 28,31.1021596 28,30.008383 L28,2.99815369 C28,2.44688863 27.5561352,2 27,2 L27,2 C26.4477153,2 26,2.43981314 26,2.99653482 L26,28.0087557 C26,29.1084896 25.1017876,30 24.0092049,30 L6.99180311,30 C6.44404538,30 6,29.5561352 6,29 L6,29 C6,28.4477153 6.44494629,28 6.99339768,28 L22.0049107,28 C23.1067681,28 24,27.1001025 24,26.0087557 L24,1.99124431 Z" class="shape"></path></g></svg>