<svg viewBox="0 0 32 32" version="1.1" xmlns="http://www.w3.org/2000/svg"><g fill-rule="evenodd" class="book-opened-icon small-icon" id="book-opened-small"><g transform="translate(0.000000, 4.000000)" class="left"><path d="M8,0 C2,-1.10218212e-15 0,2 0,2 L0,24 C0,24 2,22 8,22 C14,22 16,24 16,24 L16,2 C16,2 14,1.10218214e-15 8,0 Z" class="page"></path><path d="M3.00247329,10 C2.44882258,10 2,10.4438648 2,11 L2,11 C2,11.5522847 2.45576096,12 3.00247329,12 L12.9975267,12 C13.5511774,12 14,11.5561352 14,11 L14,11 C14,10.4477153 13.544239,10 12.9975267,10 L3.00247329,10 Z M3.00247329,4 C2.44882258,4 2,4.44386482 2,5 L2,5 C2,5.55228475 2.45576096,6 3.00247329,6 L12.9975267,6 C13.5511774,6 14,5.55613518 14,5 L14,5 C14,4.44771525 13.544239,4 12.9975267,4 L3.00247329,4 Z M3.00247329,16 C2.44882258,16 2,16.4438648 2,17 L2,17 C2,17.5522847 2.45576096,18 3.00247329,18 L12.9975267,18 C13.5511774,18 14,17.5561352 14,17 L14,17 C14,16.4477153 13.544239,16 12.9975267,16 L3.00247329,16 Z" class="lines foreground-color"></path></g><g transform="translate(16.000000, 4.000000)" class="right"><path d="M8,0 C2,1.19403063e-15 0,2 0,2 L0,24 C0,24 2,22 8,22 C14,22 16,24 16,24 L16,2 C16,2 14,-1.19403058e-15 8,0 Z" class="page"></path><path d="M3.00247329,10 C2.44882258,10 2,10.4438648 2,11 L2,11 C2,11.5522847 2.45576096,12 3.00247329,12 L12.9975267,12 C13.5511774,12 14,11.5561352 14,11 L14,11 C14,10.4477153 13.544239,10 12.9975267,10 L3.00247329,10 Z M3.00247329,4 C2.44882258,4 2,4.44386482 2,5 L2,5 C2,5.55228475 2.45576096,6 3.00247329,6 L12.9975267,6 C13.5511774,6 14,5.55613518 14,5 L14,5 C14,4.44771525 13.544239,4 12.9975267,4 L3.00247329,4 Z M3.00247329,16 C2.44882258,16 2,16.4438648 2,17 L2,17 C2,17.5522847 2.45576096,18 3.00247329,18 L12.9975267,18 C13.5511774,18 14,17.5561352 14,17 L14,17 C14,16.4477153 13.544239,16 12.9975267,16 L3.00247329,16 Z" class="lines foreground-color"></path></g></g></svg>