<svg viewBox="0 0 32 32" version="1.1" xmlns="http://www.w3.org/2000/svg" class="svg-icon"><g fill-rule="evenodd" class="book-opened-icon small-icon" id="book-opened-small"><g transform="translate(0.000000, 4.000000)" class="left"><path d="M8,0 C2,-1.10218212e-15 0,2 0,2 L0,24 C0,24 2,22 8,22 C14,22 16,24 16,24 L16,2 C16,2 14,1.10218214e-15 8,0 Z" class="page"></path><rect x="2" y="16" width="12" height="2" rx="1" class="line"></rect><rect x="2" y="4" width="12" height="2" rx="1" class="line"></rect><rect x="2" y="10" width="12" height="2" rx="1" class="line"></rect></g><g transform="translate(16.000000, 4.000000)" class="right"><path d="M8,0 C2,1.19403063e-15 0,2 0,2 L0,24 C0,24 2,22 8,22 C14,22 16,24 16,24 L16,2 C16,2 14,-1.19403058e-15 8,0 Z" class="page"></path><rect x="2" y="16" width="12" height="2" rx="1" class="line"></rect><rect x="2" y="4" width="12" height="2" rx="1" class="line"></rect><rect x="2" y="10" width="12" height="2" rx="1" class="line"></rect></g></g></svg>