<svg viewBox="0 0 32 32" version="1.1" xmlns="http://www.w3.org/2000/svg" class="svg-icon"><g fill-rule="evenodd" class="branch-icon small-icon" id="branch-small"><path d="M8,7.46487122 L8,24.5351288 L8,24.5351288 C6.80439726,25.2267476 6,26.5194353 6,28 C6,30.209139 7.790861,32 10,32 C12.209139,32 14,30.209139 14,28 C14,26.5194353 13.1956027,25.2267476 12,24.5351288 L12,7.46487122 C13.1956027,6.77325238 14,5.48056471 14,4 C14,1.790861 12.209139,0 10,0 C7.790861,0 6,1.790861 6,4 C6,5.48056471 6.80439726,6.77325238 8,7.46487122 L8,7.46487122 Z M10,30 C11.1045695,30 12,29.1045695 12,28 C12,26.8954305 11.1045695,26 10,26 C8.8954305,26 8,26.8954305 8,28 C8,29.1045695 8.8954305,30 10,30 Z M10,6 C11.1045695,6 12,5.1045695 12,4 C12,2.8954305 11.1045695,2 10,2 C8.8954305,2 8,2.8954305 8,4 C8,5.1045695 8.8954305,6 10,6 Z" class="left-2"></path><path d="M24,7.4648712 L24,15.996669 C24,19.3219597 21.3113319,21.9999999 17.9946916,21.9999999 L11,21.9999999 L11,18.0000006 L17.0031304,18.0000005 C18.6526091,18.0000004 20,16.6581296 20,15.0028481 L20,7.46487124 C18.8043973,6.7732524 18,5.48056473 18,4 C18,1.790861 19.790861,0 22,0 C24.209139,0 26,1.790861 26,4 C26,5.4805647 25.1956028,6.77325235 24,7.4648712 L24,7.4648712 Z M22,6 C23.1045695,6 24,5.1045695 24,4 C24,2.8954305 23.1045695,2 22,2 C20.8954305,2 20,2.8954305 20,4 C20,5.1045695 20.8954305,6 22,6 Z" class="right-2"></path></g></svg>