<svg viewBox="0 0 32 32" version="1.1" xmlns="http://www.w3.org/2000/svg"><g fill-rule="evenodd" class="bug-icon small-icon" id="bug-small"><path d="M3.36121328,19.2725046 C3.60201293,18.7757775 4.24118293,18.3731006 4.79758292,18.3731006 L8.79999924,18.3731006 L8.79999924,15.3731006 L3.78799245,15.3731006 C3.24049669,15.3731006 2.59022953,15.7623723 2.32738629,16.2580144 L0.262565753,20.151635 C0.00339100483,20.6403594 0.0277936122,21.4271738 0.309790151,21.8969069 L0.777620188,22.6761906 C1.06287625,23.1513533 1.49053585,23.1313816 1.73012831,22.6371447 L3.36121328,19.2725046 Z M3.45721909,27.2740518 C3.64706697,26.7562849 4.24203643,26.3365518 4.79910058,26.3365518 L8.40096908,26.3365518 L8.40096908,23.3365518 L3.39174705,23.3365518 C2.84455549,23.3365518 2.24611355,23.7594266 2.05570916,24.279377 L0.146229028,29.4937266 C-0.0444527626,30.0144346 0.114505178,30.7675066 0.491748223,31.1657075 L0.910189998,31.6073961 C1.29169677,32.0100977 1.75218402,31.9241475 1.94471911,31.3990518 L3.45721909,27.2740518 Z M3.70577483,9.09904877 C3.90833061,9.61681572 4.5170553,10.0365488 5.07415393,10.0365488 L9.08159582,10.0365488 L9.08159582,13.0365488 L3.59069631,13.0365488 C3.03842589,13.0365488 2.42319764,12.613674 2.2230093,12.1083478 L0.145723353,6.86474977 C-0.0573589042,6.35211851 0.0995611269,5.62280241 0.492041795,5.23984765 L1.01124108,4.73324987 C1.40558974,4.34847248 1.88660931,4.44895306 2.09203218,4.97404877 L3.70577483,9.09904877 Z M28.5437256,27.2375031 C28.3538777,26.7197361 27.7589082,26.3000031 27.2018441,26.3000031 L23.5999756,26.3000031 L23.5999756,23.3000031 L28.6091976,23.3000031 C29.1563892,23.3000031 29.7548311,23.7228778 29.9452355,24.2428282 L31.8547156,29.4571779 C32.0453974,29.9778858 31.8864395,30.7309578 31.5091964,31.1291588 L31.0907547,31.5708473 C30.7092479,31.9735489 30.2487606,31.8875988 30.0562256,31.3625031 L28.5437256,27.2375031 Z M28.6563043,19.2359559 C28.4146984,18.7392287 27.7734454,18.3365518 27.2272675,18.3365518 L23.1999512,18.3365518 L23.1999512,15.3365518 L28.228095,15.3365518 C28.7773535,15.3365518 29.4297364,15.7258235 29.6934541,16.2214656 L31.765144,20.1150862 C32.025181,20.6038106 32.0007224,21.390625 31.7178179,21.8603582 L31.2484816,22.6396418 C30.9623071,23.1148045 30.5332453,23.0948329 30.2928506,22.600596 L28.6563043,19.2359559 Z M27.9187763,9.08872914 C27.7037391,9.59201014 27.0892043,10 26.5264492,10 L21.9193488,10 L21.9193488,13 L28.1286215,13 C28.6824577,13 29.3084112,12.5979303 29.5336025,12.0863343 L31.8544941,6.8136657 C32.0766075,6.30906207 31.9185997,5.603125 31.4999351,5.2354722 L30.8497723,4.6645278 C30.4318414,4.29751923 29.9168332,4.4124043 29.7036821,4.91127086 L27.9187763,9.08872914 Z" class="legs"></path><path d="M15.8327989,8.80929263 L15.3995479,9.05943019 L10.6543726,0.840545581 C10.5136368,0.596783977 10.6004461,0.283698233 10.8326422,0.150230068 C11.0718336,0.0127409416 11.3795592,0.0983890952 11.520553,0.342545984 L15.8327989,7.81000085 L20.1450447,0.342545984 C20.2860385,0.0983890952 20.5937641,0.0127409416 20.8329555,0.150230068 C21.0651516,0.283698233 21.1519609,0.596783977 21.0112251,0.840545581 L16.2660498,9.05943019 L15.8327989,8.80929263 Z" class="antenna"></path><path d="M17,2.0767759 C20,2.5792656 20,5.48751203 20,9 C20,12.8659932 18.209139,16 16,16 C13.790861,16 12,12.8659932 12,9 C12,5.48751203 12,2.5792656 15,2.0767759 L15,4.00296986 C15,4.5536144 15.4438648,5 16,5 C16.5522847,5 17,4.54696369 17,4.00296986 L17,2.0767759 Z" class="head"></path><path d="M18.5,31.5904432 C22.813068,30.1473041 26,25.0574781 26,19 C26,11.8202983 21.5228475,6 16,6 C10.4771525,6 6,11.8202983 6,19 C6,25.0574781 9.18693197,30.1473041 13.5,31.5904432 L13.5,24.0085302 C13.5,22.9019504 14.397616,22 15.5048815,22 L16.4951185,22 C17.6061002,22 18.5,22.8992496 18.5,24.0085302 L18.5,31.5904432 Z" class="body"></path></g></svg>