<svg viewBox="0 0 32 32" version="1.1" xmlns="http://www.w3.org/2000/svg"><g fill-rule="evenodd" class="calendar-icon small-icon" id="calendar-small"><path d="M12,0 L20,0 L20,8.89045781e-18 L20,2.00208688 C20,3.10173938 20.8954305,4 22,4 C23.1122704,4 24,3.10550383 24,2.00208688 L24,0 L29.9982567,0 C31.103789,0 32,0.889261723 32,2.00174332 L32,29.9982567 C32,31.103789 31.1107383,32 29.9982567,32 L2.00174332,32 C0.89621101,32 0,31.1107383 0,29.9982567 L0,2.00174332 C0,0.89621101 0.889261723,0 2.00174332,0 L8,0 L8,2.00208688 C8,3.10173938 8.8954305,4 10,4 C11.1122704,4 12,3.10550383 12,2.00208688 L12,1.08420217e-19 Z M4,7.991155 C4,6.89147046 4.89702623,6 6.00494659,6 L25.9950534,6 C27.1023548,6 28,6.88967395 28,7.991155 L28,26.008845 C28,27.1085295 27.1029738,28 25.9950534,28 L6.00494659,28 C4.89764516,28 4,27.1103261 4,26.008845 L4,7.991155 Z" class="frame"></path><rect x="20" y="22" width="4" height="4" class="day9"></rect><rect x="14" y="22" width="4" height="4" class="day8"></rect><rect x="8" y="22" width="4" height="4" class="day7"></rect><rect x="20" y="16" width="4" height="4" class="day6"></rect><rect x="14" y="16" width="4" height="4" class="day5"></rect><rect x="8" y="16" width="4" height="4" class="day4"></rect><rect x="20" y="10" width="4" height="4" class="day3"></rect><rect x="14" y="10" width="4" height="4" class="day2"></rect><rect x="8" y="10" width="4" height="4" class="day1"></rect></g></svg>