<svg viewBox="0 0 32 32" version="1.1" xmlns="http://www.w3.org/2000/svg"><g fill-rule="evenodd" class="calendar-icon small-icon" id="calendar-small"><path d="M10,0 L22,0 L22,-2.42861287e-17 L22,2.32589305 C22,3.44344076 22.8954305,4.33333333 24,4.33333333 C25.1122704,4.33333333 26,3.43457171 26,2.32589305 L26,0 L29.9982567,0 C31.103789,0 32,0.889261723 32,2.00174332 L32,29.9982567 C32,31.103789 31.1107383,32 29.9982567,32 L2.00174332,32 C0.89621101,32 0,31.1107383 0,29.9982567 L0,2.00174332 C0,0.89621101 0.889261723,0 2.00174332,0 L6,0 L6,2.32589305 C6,3.44344076 6.8954305,4.33333333 8,4.33333333 C9.11227036,4.33333333 10,3.43457171 10,2.32589305 L10,-3.46944695e-18 Z M4,7.00246167 C4,6.44881738 4.44746922,6 5.00069463,6 L26.9993054,6 C27.5519738,6 28,6.43945834 28,7.00246167 L28,26.9975383 C28,27.5511826 27.5525308,28 26.9993054,28 L5.00069463,28 C4.44802625,28 4,27.5605417 4,26.9975383 L4,7.00246167 Z" class="frame"></path></g></svg>