<svg viewBox="0 0 32 32" version="1.1" xmlns="http://www.w3.org/2000/svg"><g fill-rule="evenodd" class="checkbox-empty-icon small-icon" id="checkbox-empty-small"><path d="M0,5 C0,2.23857625 2.23745928,0 5,0 L27,0 C29.7614237,0 32,2.23745928 32,5 L32,27 C32,29.7614237 29.7625407,32 27,32 L5,32 C2.23857625,32 0,29.7625407 0,27 L0,5 Z M4,9.00197269 C4,6.23945945 6.23630996,4 9.00197269,4 L22.9980273,4 C25.7605405,4 28,6.23630996 28,9.00197269 L28,22.9980273 C28,25.7605405 25.76369,28 22.9980273,28 L9.00197269,28 C6.23945945,28 4,25.76369 4,22.9980273 L4,9.00197269 Z" class="checkbox"></path></g></svg>