<svg viewBox="0 0 32 32" version="1.1" xmlns="http://www.w3.org/2000/svg"><g fill-rule="evenodd" class="checkbox-checked-icon small-icon" id="checkbox-checked-small"><path d="M0,5 C0,2.23857625 2.23745928,0 5,0 L27,0 C29.7614237,0 32,2.23745928 32,5 L32,27 C32,29.7614237 29.7625407,32 27,32 L5,32 C2.23857625,32 0,29.7625407 0,27 L0,5 Z M4,9.00197269 C4,6.23945945 6.23630996,4 9.00197269,4 L22.9980273,4 C25.7605405,4 28,6.23630996 28,9.00197269 L28,22.9980273 C28,25.7605405 25.76369,28 22.9980273,28 L9.00197269,28 C6.23945945,28 4,25.76369 4,22.9980273 L4,9.00197269 Z" class="checkbox"></path><path d="M14.312783,23.0749642 C13.5628037,23.8783625 12.3065018,23.9127911 11.5114732,23.1563526 L7.09257416,18.9519436 C6.29543279,18.1934949 6.23634342,16.9014002 6.95808289,16.0688662 L6.9277624,16.1038412 C7.6506263,15.2700102 8.89266904,15.1990165 9.70362857,15.9468271 L12.9548253,18.9448549 L22.3924167,8.91193055 C23.1482809,8.10838561 24.374208,8.10278592 25.1380624,8.90728125 L24.971399,8.73175044 C25.731913,9.53272764 25.7381325,10.8358169 24.9904738,11.6367293 L14.312783,23.0749642 Z" class="check"></path></g></svg>