<svg width="64px" height="64px" viewBox="0 0 64 64" version="1.1" xmlns="http://www.w3.org/2000/svg" class="icon-clipboard svg-icon"><g fill-rule="evenodd"><g class="clipboard"><path d="M52,8 L48,16 L16,16 L12,8 L12,8 C9.790861,8 8,9.79979503 8,12.0049083 L8,59.9950917 C8,62.2069415 9.79405245,64 12.0098932,64 L51.9901068,64 C54.2047097,64 56,62.200205 56,59.9950917 L56,12.0049083 C56,9.79305852 54.2105899,8 52,8 L52,8 Z" class="board"></path><path d="M48,8 L44,12 L20,12 L16,8 L25.0046024,8 C25.5543453,8 26,7.54696369 26,7.00296986 L26,6.00189865 C26,2.68714155 28.6930342,0 32,0 L32,0 C35.3137085,0 38,2.68613923 38,6.00189865 L38,6.00189865 C38,7.10541955 38.8874333,8 39.999615,8 L48,8 Z" class="clip"></path><circle cx="32" cy="4" r="2" class="clip-hole"></circle></g></g></svg>