<svg viewBox="0 0 32 32" version="1.1" xmlns="http://www.w3.org/2000/svg" class="svg-icon"><g fill-rule="evenodd" class="clipboard-icon small-icon" id="clipboard-small"><path d="M26,4 L6,4 L6,4 C4.8954305,4 4,5.79412025 4,7.99683887 L4,28.0031611 C4,30.2105543 5.78429328,32 7.99005301,32 L24.009947,32 C26.2135924,32 28,30.2058797 28,28.0031611 L28,7.99683887 C28,5.78944571 26.214035,4 26,4 L26,4 Z" class="board"></path><path d="M26,4 L24,8 L8,8 L6,4 L12,4 L12,4 C12,1.790861 13.7953562,0 16,0 L16,0 C18.209139,0 20,1.7874158 20,4.0062447 C20,4.0062447 20,4.20139662 20,4 L26,4 Z" class="clip"></path><circle cx="16" cy="2" r="1" class="clip-hole"></circle></g></svg>