<svg width="64px" height="64px" viewBox="0 0 64 64" version="1.1" xmlns="http://www.w3.org/2000/svg" class="icon-clipboard svg-icon"><g fill-rule="evenodd"><g class="clipboard"><path d="M52,7.99999997 L48,16 L16,16 L12,8 L12,8 C9.790861,8 8,10.2298238 8,12.9942426 L8,59.0057574 C8,61.7640014 10.2347902,64 13.0010033,64 L50.9989967,64 C53.7609746,64 56,61.7701762 56,59.0057574 L56,12.9942426 C56,10.2359986 53.7661018,7.99999999 52,7.99999997 L52,7.99999997 Z" class="board"></path><path d="M50,8 L46,15 L18,15 L14,8 L24.9975267,7.5770182 C25.5511774,7.55572395 26,7.08947211 26,6.53741205 L26,5.99475046 C26,2.6839412 28.6930342,0 32,0 L32,0 C35.3137085,0 38,2.67900542 38,5.99475046 L38,5.53808382 C38,6.64286193 38.9019504,7.57315194 39.9950265,7.61519333 L50,8 Z" class="clip"></path><circle cx="32" cy="4" r="2" class="clip-hole"></circle></g></g></svg>