<svg viewBox="0 0 32 32" version="1.1" xmlns="http://www.w3.org/2000/svg"><g fill-rule="evenodd" class="commit-icon small-icon" id="commit-small"><rect x="0" y="14" width="10" height="4" class="left"></rect><path d="M16,24 C20.418278,24 24,20.418278 24,16 C24,11.581722 20.418278,8 16,8 C11.581722,8 8,11.581722 8,16 C8,20.418278 11.581722,24 16,24 Z M16,20 C18.209139,20 20,18.209139 20,16 C20,13.790861 18.209139,12 16,12 C13.790861,12 12,13.790861 12,16 C12,18.209139 13.790861,20 16,20 Z" class="circle"></path><rect x="22" y="14" width="10" height="4" class="right"></rect></g></svg>