<svg width="64px" height="64px" viewBox="0 0 64 64" version="1.1" xmlns="http://www.w3.org/2000/svg" class="icon-documents svg-icon"><g fill-rule="evenodd"><g class="documents"><g transform="translate(8.000000, 0.000000)" class="document-bottom"><path d="M28.5,0 L0,0 L0,49 L38,49 L38,9.1875 L28.5,9.1875 L28.5,0 Z" class="document"></path><polygon points="29.2916667 0 38 8.421875 29.2916667 8.421875 " class="document fold"></polygon><path d="M4.69027144,6.125 C3.84880776,6.125 3.16666667,6.80466801 3.16666667,7.65625 L3.16666667,7.65625 C3.16666667,8.50193602 3.85437808,9.1875 4.69027144,9.1875 L23.8097286,9.1875 C24.6511922,9.1875 25.3333333,8.50783199 25.3333333,7.65625 L25.3333333,7.65625 C25.3333333,6.81056398 24.6456219,6.125 23.8097286,6.125 L4.69027144,6.125 Z M4.69401582,15.3125 C3.85048418,15.3125 3.16666667,15.992168 3.16666667,16.84375 L3.16666667,16.84375 C3.16666667,17.689436 3.85751989,18.375 4.69401582,18.375 L33.3059842,18.375 C34.1495158,18.375 34.8333333,17.695332 34.8333333,16.84375 L34.8333333,16.84375 C34.8333333,15.998064 34.1424801,15.3125 33.3059842,15.3125 L4.69401582,15.3125 Z M4.69401582,24.5 C3.85048418,24.5 3.16666667,25.179668 3.16666667,26.03125 L3.16666667,26.03125 C3.16666667,26.876936 3.85751989,27.5625 4.69401582,27.5625 L33.3059842,27.5625 C34.1495158,27.5625 34.8333333,26.882832 34.8333333,26.03125 L34.8333333,26.03125 C34.8333333,25.185564 34.1424801,24.5 33.3059842,24.5 L4.69401582,24.5 Z M4.69401582,33.6875 C3.85048418,33.6875 3.16666667,34.367168 3.16666667,35.21875 L3.16666667,35.21875 C3.16666667,36.064436 3.85751989,36.75 4.69401582,36.75 L33.3059842,36.75 C34.1495158,36.75 34.8333333,36.070332 34.8333333,35.21875 L34.8333333,35.21875 C34.8333333,34.373064 34.1424801,33.6875 33.3059842,33.6875 L4.69401582,33.6875 Z M4.69401582,42.875 C3.85048418,42.875 3.16666667,43.554668 3.16666667,44.40625 L3.16666667,44.40625 C3.16666667,45.251936 3.85751989,45.9375 4.69401582,45.9375 L33.3059842,45.9375 C34.1495158,45.9375 34.8333333,45.257832 34.8333333,44.40625 L34.8333333,44.40625 C34.8333333,43.560564 34.1424801,42.875 33.3059842,42.875 L4.69401582,42.875 Z" class="lines"></path></g><g transform="translate(19.000000, 16.000000)" class="document-top"><path d="M27.75,0 L0,0 L0,48 L37,48 L37,9 L27.75,9 L27.75,0 Z" class="document"></path><polygon points="28.5208333 0 37 8.25 28.5208333 8.25 " class="document fold"></polygon><path d="M4.58389548,6 C3.75515789,6 3.08333333,6.66579723 3.08333333,7.5 L3.08333333,7.5 C3.08333333,8.32842712 3.75294708,9 4.58389548,9 L23.1661045,9 C23.9948421,9 24.6666667,8.33420277 24.6666667,7.5 L24.6666667,7.5 C24.6666667,6.67157288 23.9970529,6 23.1661045,6 L4.58389548,6 Z M4.5913615,15 C3.75850054,15 3.08333333,15.6657972 3.08333333,16.5 L3.08333333,16.5 C3.08333333,17.3284271 3.75600621,18 4.5913615,18 L32.4086385,18 C33.2414995,18 33.9166667,17.3342028 33.9166667,16.5 L33.9166667,16.5 C33.9166667,15.6715729 33.2439938,15 32.4086385,15 L4.5913615,15 Z M4.5913615,24 C3.75850054,24 3.08333333,24.6657972 3.08333333,25.5 L3.08333333,25.5 C3.08333333,26.3284271 3.75600621,27 4.5913615,27 L32.4086385,27 C33.2414995,27 33.9166667,26.3342028 33.9166667,25.5 L33.9166667,25.5 C33.9166667,24.6715729 33.2439938,24 32.4086385,24 L4.5913615,24 Z M4.5913615,33 C3.75850054,33 3.08333333,33.6657972 3.08333333,34.5 L3.08333333,34.5 C3.08333333,35.3284271 3.75600621,36 4.5913615,36 L32.4086385,36 C33.2414995,36 33.9166667,35.3342028 33.9166667,34.5 L33.9166667,34.5 C33.9166667,33.6715729 33.2439938,33 32.4086385,33 L4.5913615,33 Z M4.5913615,42 C3.75850054,42 3.08333333,42.6657972 3.08333333,43.5 L3.08333333,43.5 C3.08333333,44.3284271 3.75600621,45 4.5913615,45 L32.4086385,45 C33.2414995,45 33.9166667,44.3342028 33.9166667,43.5 L33.9166667,43.5 C33.9166667,42.6715729 33.2439938,42 32.4086385,42 L4.5913615,42 Z" class="lines"></path></g></g></g></svg>