<svg width="64px" height="64px" viewBox="0 0 64 64" version="1.1" xmlns="http://www.w3.org/2000/svg" class="icon-document svg-icon"><g fill-rule="evenodd"><g class="document"><polygon points="43 0 44 0 55 11 55 12 43 12 " class="fold"></polygon><path d="M44,0 L7,0 L7,64 L55,64 L55,11 L44,11 L44,0 Z"></path><path d="M12.9972916,52 C11.8942179,52 11,52.8877296 11,54 L11,54 C11,55.1045695 11.8915398,56 12.9972916,56 L49.0027084,56 C50.1057821,56 51,55.1122704 51,54 L51,54 C51,52.8954305 50.1084602,52 49.0027084,52 L12.9972916,52 Z M12.9972916,40 C11.8942179,40 11,40.8877296 11,42 L11,42 C11,43.1045695 11.8915398,44 12.9972916,44 L49.0027084,44 C50.1057821,44 51,43.1122704 51,42 L51,42 C51,40.8954305 50.1084602,40 49.0027084,40 L12.9972916,40 Z M12.9972916,28 C11.8942179,28 11,28.8877296 11,30 L11,30 C11,31.1045695 11.8915398,32 12.9972916,32 L49.0027084,32 C50.1057821,32 51,31.1122704 51,30 L51,30 C51,28.8954305 50.1084602,28 49.0027084,28 L12.9972916,28 Z M12.9972916,16 C11.8942179,16 11,16.8877296 11,18 L11,18 C11,19.1045695 11.8915398,20 12.9972916,20 L49.0027084,20 C50.1057821,20 51,19.1122704 51,18 L51,18 C51,16.8954305 50.1084602,16 49.0027084,16 L12.9972916,16 Z" class="lines"></path><text opacity="0" font-family="Helvetica" font-size="26" font-weight="normal" class="code-indicator"><tspan x="15" y="51">{  }</tspan></text></g></g></svg>