<svg viewBox="0 0 32 32" version="1.1" xmlns="http://www.w3.org/2000/svg"><g fill-rule="evenodd" class="documents-icon documents-text-icon small-icon" id="documents-text-small"><g transform="translate(4.000000, 4.000000)" class="document-back"><path d="M6,2 L6,0 L0,0 L0,28 L4,28 L20,28 L20,22 L18.0516205,22 L18.0516205,26 L2,26 L2,2 L6,2 Z" class="document-2"></path></g><g transform="translate(8.000000, 0.000000)" class="document-front"><polygon points="15 0 16 0 20.0000002 4 20.0000002 5 15 5 " class="fold"></polygon><path d="M16,0 L0,0 L0,28 L20,28 L20,4 L16,4 L16,0 Z" class="document"></path><path d="M3.00087166,6 C2.4481055,6 2,6.44386482 2,7 C2,7.55228475 2.44463086,8 3.00087166,8 L16.9991283,8 C17.5518945,8 18,7.55613518 18,7 C18,6.44771525 17.5553691,6 16.9991283,6 L3.00087166,6 Z M3.00087166,24 C2.4481055,24 2,24.4438648 2,25 C2,25.5522847 2.44463086,26 3.00087166,26 L16.9991283,26 C17.5518945,26 18,25.5561352 18,25 C18,24.4477153 17.5553691,24 16.9991283,24 L3.00087166,24 Z M3.00087166,18 C2.4481055,18 2,18.4438648 2,19 C2,19.5522847 2.44463086,20 3.00087166,20 L16.9991283,20 C17.5518945,20 18,19.5561352 18,19 C18,18.4477153 17.5553691,18 16.9991283,18 L3.00087166,18 Z M3.00087166,12 C2.4481055,12 2,12.4438648 2,13 C2,13.5522847 2.44463086,14 3.00087166,14 L16.9991283,14 C17.5518945,14 18,13.5561352 18,13 C18,12.4477153 17.5553691,12 16.9991283,12 L3.00087166,12 Z" class="type-indicator"></path></g></g></svg>