<svg viewBox="0 0 32 32" version="1.1" xmlns="http://www.w3.org/2000/svg" class="svg-icon"><g fill-rule="evenodd" class="document-icon document-text-icon small-icon" id="document-text-small"><polygon points="21.8 0 22 0 28 6 28 6.19999999 21.8 6.19999999 " class="fold"></polygon><path d="M22,0 L4,0 L4,32 L28,32 L28,6 L22,6 L22,0 Z" class="document"></path><path d="M6.99180311,26 C6.44404538,26 6,26.4438648 6,27 L6,27 C6,27.5522847 6.45530558,28 6.99180311,28 L25.0081969,28 C25.5559546,28 26,27.5561352 26,27 L26,27 C26,26.4477153 25.5446944,26 25.0081969,26 L6.99180311,26 Z M6.99180311,20 C6.44404538,20 6,20.4438648 6,21 L6,21 C6,21.5522847 6.45530558,22 6.99180311,22 L25.0081969,22 C25.5559546,22 26,21.5561352 26,21 L26,21 C26,20.4477153 25.5446944,20 25.0081969,20 L6.99180311,20 Z M6.99180311,14 C6.44404538,14 6,14.4438648 6,15 L6,15 C6,15.5522847 6.45530558,16 6.99180311,16 L25.0081969,16 C25.5559546,16 26,15.5561352 26,15 L26,15 C26,14.4477153 25.5446944,14 25.0081969,14 L6.99180311,14 Z M6.99180311,8 C6.44404538,8 6,8.44386482 6,9 L6,9 C6,9.55228475 6.45530558,10 6.99180311,10 L25.0081969,10 C25.5559546,10 26,9.55613518 26,9 L26,9 C26,8.44771525 25.5446944,8 25.0081969,8 L6.99180311,8 Z" class="type-indicator"></path></g></svg>