<svg width="32px" height="32px" viewBox="0 0 32 32" version="1.1" xmlns="http://www.w3.org/2000/svg" class="small-icon documents-icon document-back document-front svg-icon"><g fill-rule="evenodd"><g><g transform="translate(4.000000, 0.000000)"><polygon points="14 0 18 4 14 4 " class="fold"></polygon><path d="M14,0 L0,0 L0,24 L18,24 L18,4 L14,4 L14,0 Z" class="document"></path><path d="M3.00684547,18 C2.45078007,18 2,18.4438648 2,19 L2,19 C2,19.5522847 2.44994876,20 3.00684547,20 L14.9931545,20 C15.5492199,20 16,19.5561352 16,19 L16,19 C16,18.4477153 15.5500512,18 14.9931545,18 L3.00684547,18 Z M3.00684547,11.9897959 C2.45078007,11.9897959 2,12.4336607 2,12.9897959 L2,12.9897959 C2,13.5420807 2.44994876,13.9897959 3.00684547,13.9897959 L14.9931545,13.9897959 C15.5492199,13.9897959 16,13.5366099 16,12.9926646 L16,12.9897959 L16,12.9897959 C16,12.4375112 15.5500512,11.9897959 14.9931545,11.9897959 L3.00684547,11.9897959 Z M3.00684547,6 C2.45078007,6 2,6.44386482 2,7 L2,7 C2,7.55228475 2.44994876,8 3.00684547,8 L14.9931545,8 C15.5492199,8 16,7.55613518 16,7 L16,7 C16,6.44771525 15.5500512,6 14.9931545,6 L3.00684547,6 Z" class="lines"></path></g><g transform="translate(10.000000, 8.000000)"><polygon points="14 0 17.9975653 4 14 4 " class="fold"></polygon><path d="M14,0 L0,0 L0,24 L18,24 L18,4 L14,4 L14,0 Z" class="document"></path><path d="M3.00684547,18 C2.45078007,18 2,18.4438648 2,19 L2,19 C2,19.5522847 2.44994876,20 3.00684547,20 L14.9931545,20 C15.5492199,20 16,19.5561352 16,19 L16,19 C16,18.4477153 15.5500512,18 14.9931545,18 L3.00684547,18 Z M3.00684547,11.9897959 C2.45078007,11.9897959 2,12.4336607 2,12.9897959 L2,12.9897959 C2,13.5420807 2.44994876,13.9897959 3.00684547,13.9897959 L14.9931545,13.9897959 C15.5492199,13.9897959 16,13.5366099 16,12.9926646 L16,12.9897959 L16,12.9897959 C16,12.4375112 15.5500512,11.9897959 14.9931545,11.9897959 L3.00684547,11.9897959 Z M3.00684547,6 C2.45078007,6 2,6.44386482 2,7 L2,7 C2,7.55228475 2.44994876,8 3.00684547,8 L14.9931545,8 C15.5492199,8 16,7.55613518 16,7 L16,7 C16,6.44771525 15.5500512,6 14.9931545,6 L3.00684547,6 Z" class="lines"></path><text opacity="0" font-family="Helvetica" font-size="9.02045455" font-weight="normal" class="{-}"><tspan x="4.73684211" y="19.5714286">{ </tspan><tspan x="4.73684211" y="30.5714286">}</tspan></text></g></g></g></svg>