<svg width="64px" height="64px" viewBox="0 0 64 64" version="1.1" xmlns="http://www.w3.org/2000/svg" class="icon-documents svg-icon"><g fill-rule="evenodd"><g class="documents"><g transform="translate(8.000000, 0.000000)" class="document-back"><polygon points="28.5 0 29.2916667 0 38 8.421875 37.9999999 9.2 28.4916667 9.22187501 " class="fold"></polygon><path d="M29.3,0 L0,0 L0,49 L38,49 L38,8.39999999 L29.3,8.38749999 L29.3,0 Z" class="document"></path><path d="M4.69027144,6.125 C3.84880776,6.125 3.16666667,6.80466801 3.16666667,7.65625 L3.16666667,7.65625 C3.16666667,8.50193602 3.85437808,9.1875 4.69027144,9.1875 L23.8097286,9.1875 C24.6511922,9.1875 25.3333333,8.50783199 25.3333333,7.65625 L25.3333333,7.65625 C25.3333333,6.81056398 24.6456219,6.125 23.8097286,6.125 L4.69027144,6.125 Z M4.69401582,15.3125 C3.85048418,15.3125 3.16666667,15.992168 3.16666667,16.84375 L3.16666667,16.84375 C3.16666667,17.689436 3.85751989,18.375 4.69401582,18.375 L33.3059842,18.375 C34.1495158,18.375 34.8333333,17.695332 34.8333333,16.84375 L34.8333333,16.84375 C34.8333333,15.998064 34.1424801,15.3125 33.3059842,15.3125 L4.69401582,15.3125 Z M4.69401582,24.5 C3.85048418,24.5 3.16666667,25.179668 3.16666667,26.03125 L3.16666667,26.03125 C3.16666667,26.876936 3.85751989,27.5625 4.69401582,27.5625 L33.3059842,27.5625 C34.1495158,27.5625 34.8333333,26.882832 34.8333333,26.03125 L34.8333333,26.03125 C34.8333333,25.185564 34.1424801,24.5 33.3059842,24.5 L4.69401582,24.5 Z M4.69401582,33.6875 C3.85048418,33.6875 3.16666667,34.367168 3.16666667,35.21875 L3.16666667,35.21875 C3.16666667,36.064436 3.85751989,36.75 4.69401582,36.75 L33.3059842,36.75 C34.1495158,36.75 34.8333333,36.070332 34.8333333,35.21875 L34.8333333,35.21875 C34.8333333,34.373064 34.1424801,33.6875 33.3059842,33.6875 L4.69401582,33.6875 Z M4.69401582,42.875 C3.85048418,42.875 3.16666667,43.554668 3.16666667,44.40625 L3.16666667,44.40625 C3.16666667,45.251936 3.85751989,45.9375 4.69401582,45.9375 L33.3059842,45.9375 C34.1495158,45.9375 34.8333333,45.257832 34.8333333,44.40625 L34.8333333,44.40625 C34.8333333,43.560564 34.1424801,42.875 33.3059842,42.875 L4.69401582,42.875 Z" opacity="0" class="lines"></path></g><g transform="translate(19.000000, 15.000000)" class="document-front"><polygon points="28.5 0 29.2916667 0 38 8.421875 37.9999999 9.2 28.4916667 9.22187501 " class="fold"></polygon><path d="M29.3,0 L0,0 L0,49 L38,49 L38,8.39999999 L29.3,8.38749999 L29.3,0 Z" class="document"></path><path d="M4.69027144,4.125 C3.84880776,4.125 3.16666667,4.80466801 3.16666667,5.65625 L3.16666667,5.65625 C3.16666667,6.50193602 3.85437808,7.1875 4.69027144,7.1875 L23.8097286,7.1875 C24.6511922,7.1875 25.3333333,6.50783199 25.3333333,5.65625 L25.3333333,5.65625 C25.3333333,4.81056398 24.6456219,4.125 23.8097286,4.125 L4.69027144,4.125 Z M4.69401582,13.3125 C3.85048418,13.3125 3.16666667,13.992168 3.16666667,14.84375 L3.16666667,14.84375 C3.16666667,15.689436 3.85751989,16.375 4.69401582,16.375 L33.3059842,16.375 C34.1495158,16.375 34.8333333,15.695332 34.8333333,14.84375 L34.8333333,14.84375 C34.8333333,13.998064 34.1424801,13.3125 33.3059842,13.3125 L4.69401582,13.3125 Z M4.69401582,22.5 C3.85048418,22.5 3.16666667,23.179668 3.16666667,24.03125 L3.16666667,24.03125 C3.16666667,24.876936 3.85751989,25.5625 4.69401582,25.5625 L33.3059842,25.5625 C34.1495158,25.5625 34.8333333,24.882832 34.8333333,24.03125 L34.8333333,24.03125 C34.8333333,23.185564 34.1424801,22.5 33.3059842,22.5 L4.69401582,22.5 Z M4.69401582,31.6875 C3.85048418,31.6875 3.16666667,32.367168 3.16666667,33.21875 L3.16666667,33.21875 C3.16666667,34.064436 3.85751989,34.75 4.69401582,34.75 L33.3059842,34.75 C34.1495158,34.75 34.8333333,34.070332 34.8333333,33.21875 L34.8333333,33.21875 C34.8333333,32.373064 34.1424801,31.6875 33.3059842,31.6875 L4.69401582,31.6875 Z M4.69401582,40.875 C3.85048418,40.875 3.16666667,41.554668 3.16666667,42.40625 L3.16666667,42.40625 C3.16666667,43.251936 3.85751989,43.9375 4.69401582,43.9375 L33.3059842,43.9375 C34.1495158,43.9375 34.8333333,43.257832 34.8333333,42.40625 L34.8333333,42.40625 C34.8333333,41.560564 34.1424801,40.875 33.3059842,40.875 L4.69401582,40.875 Z" class="lines"></path><text opacity="0" font-family="Helvetica" font-size="18" font-weight="normal" class="{-}"><tspan x="10" y="39">{ }</tspan></text></g></g></g></svg>