<svg width="64px" height="64px" viewBox="0 0 64 64" version="1.1" xmlns="http://www.w3.org/2000/svg" class="icon-documents svg-icon"><g fill-rule="evenodd"><g class="documents"><g transform="translate(8.000000, 0.000000)" class="document-back"><polygon points="28 0 36 8 28 8 " class="fold"></polygon><path d="M28,0 L0,0 L0,48 L36,48 L36,8 L28,8 L28,0 Z" class="document"></path><path d="M5.99124431,36 C4.89151044,36 4,36.8877296 4,38 L4,38 C4,39.1045695 4.89989752,40 5.99124431,40 L30.0087557,40 C31.1084896,40 32,39.1122704 32,38 L32,38 C32,36.8954305 31.1001025,36 30.0087557,36 L5.99124431,36 Z M5.99124431,23.9795918 C4.89151044,23.9795918 4,24.8673215 4,25.9795918 L4,25.9795918 C4,27.0841613 4.89989752,27.9795918 5.99124431,27.9795918 L30.0087557,27.9795918 C31.1084896,27.9795918 32,27.0848868 32,25.9853291 L32,25.9795918 L32,25.9795918 C32,24.8750223 31.1001025,23.9795918 30.0087557,23.9795918 L5.99124431,23.9795918 Z M5.99124431,12 C4.89151044,12 4,12.8877296 4,14 L4,14 C4,15.1045695 4.89989752,16 5.99124431,16 L30.0087557,16 C31.1084896,16 32,15.1122704 32,14 L32,14 C32,12.8954305 31.1001025,12 30.0087557,12 L5.99124431,12 Z" class="lines"></path></g><g transform="translate(20.000000, 16.000000)" class="document-front"><polygon points="28 0 35.9951305 8 28 8 " class="fold"></polygon><path d="M28,0 L0,0 L0,48 L36,48 L36,8 L28,8 L28,0 Z" class="document"></path><path d="M5.99124431,36 C4.89151044,36 4,36.8877296 4,38 L4,38 C4,39.1045695 4.89989752,40 5.99124431,40 L30.0087557,40 C31.1084896,40 32,39.1122704 32,38 L32,38 C32,36.8954305 31.1001025,36 30.0087557,36 L5.99124431,36 Z M5.99124431,23.9795918 C4.89151044,23.9795918 4,24.8673215 4,25.9795918 L4,25.9795918 C4,27.0841613 4.89989752,27.9795918 5.99124431,27.9795918 L30.0087557,27.9795918 C31.1084896,27.9795918 32,27.0848868 32,25.9853291 L32,25.9795918 L32,25.9795918 C32,24.8750223 31.1001025,23.9795918 30.0087557,23.9795918 L5.99124431,23.9795918 Z M5.99124431,12 C4.89151044,12 4,12.8877296 4,14 L4,14 C4,15.1045695 4.89989752,16 5.99124431,16 L30.0087557,16 C31.1084896,16 32,15.1122704 32,14 L32,14 C32,12.8954305 31.1001025,12 30.0087557,12 L5.99124431,12 Z" class="lines"></path><text opacity="0" font-family="Helvetica" font-size="18.0409091" font-weight="normal" class="{-}"><tspan x="9.47368421" y="39.1428571">{ </tspan><tspan x="9.47368421" y="61.1428571">}</tspan></text></g></g></g></svg>