<svg width="64px" height="64px" viewBox="0 0 64 64" version="1.1" xmlns="http://www.w3.org/2000/svg" class="icon-document svg-icon"><g fill-rule="evenodd"><g class="document"><path d="M44,0 L8,0 L8,64 L56,64 L56,12 L44,12 L44,0 Z"></path><polygon points="45 0 56 11 45 11 " class="fold"></polygon><path d="M13.9912443,8 C12.8915104,8 12,8.88772964 12,10 L12,10 C12,11.1045695 12.8998975,12 13.9912443,12 L38.0087557,12 C39.1084896,12 40,11.1122704 40,10 L40,10 C40,8.8954305 39.1001025,8 38.0087557,8 L13.9912443,8 Z M13.9972916,20 C12.8942179,20 12,20.8877296 12,22 L12,22 C12,23.1045695 12.8915398,24 13.9972916,24 L50.0027084,24 C51.1057821,24 52,23.1122704 52,22 L52,22 C52,20.8954305 51.1084602,20 50.0027084,20 L13.9972916,20 Z M13.9972916,32 C12.8942179,32 12,32.8877296 12,34 L12,34 C12,35.1045695 12.8915398,36 13.9972916,36 L50.0027084,36 C51.1057821,36 52,35.1122704 52,34 L52,34 C52,32.8954305 51.1084602,32 50.0027084,32 L13.9972916,32 Z M13.9972916,44 C12.8942179,44 12,44.8877296 12,46 L12,46 C12,47.1045695 12.8915398,48 13.9972916,48 L50.0027084,48 C51.1057821,48 52,47.1122704 52,46 L52,46 C52,44.8954305 51.1084602,44 50.0027084,44 L13.9972916,44 Z M13.9972916,56 C12.8942179,56 12,56.8877296 12,58 L12,58 C12,59.1045695 12.8915398,60 13.9972916,60 L50.0027084,60 C51.1057821,60 52,59.1122704 52,58 L52,58 C52,56.8954305 51.1084602,56 50.0027084,56 L13.9972916,56 Z" opacity="0" class="lines"></path><text opacity="0" font-family="Helvetica" font-size="26" font-weight="normal" class="code-indicator"><tspan x="13" y="48">&lt; &gt;</tspan></text></g></g></svg>