<svg width="64px" height="64px" viewBox="0 0 64 64" version="1.1" xmlns="http://www.w3.org/2000/svg" class="icon-document svg-icon"><g fill-rule="evenodd"><g class="document"><polygon points="44 0 45 0 56 11 56 12 44 12 " class="fold"></polygon><path d="M45,0 L8,0 L8,64 L56,64 L56,11 L45,11 L45,0 Z"></path><path d="M13.9912443,7 C12.8915104,7 12,7.88772964 12,9 L12,9 C12,10.1045695 12.8998975,11 13.9912443,11 L38.0087557,11 C39.1084896,11 40,10.1122704 40,9 L40,9 C40,7.8954305 39.1001025,7 38.0087557,7 L13.9912443,7 Z M13.9972916,18 C12.8942179,18 12,18.8877296 12,20 L12,20 C12,21.1045695 12.8915398,22 13.9972916,22 L50.0027084,22 C51.1057821,22 52,21.1122704 52,20 L52,20 C52,18.8954305 51.1084602,18 50.0027084,18 L13.9972916,18 Z M13.9972916,30 C12.8942179,30 12,30.8877296 12,32 L12,32 C12,33.1045695 12.8915398,34 13.9972916,34 L50.0027084,34 C51.1057821,34 52,33.1122704 52,32 L52,32 C52,30.8954305 51.1084602,30 50.0027084,30 L13.9972916,30 Z M13.9972916,42 C12.8942179,42 12,42.8877296 12,44 L12,44 C12,45.1045695 12.8915398,46 13.9972916,46 L50.0027084,46 C51.1057821,46 52,45.1122704 52,44 L52,44 C52,42.8954305 51.1084602,42 50.0027084,42 L13.9972916,42 Z M13.9972916,54 C12.8942179,54 12,54.8877296 12,56 L12,56 C12,57.1045695 12.8915398,58 13.9972916,58 L50.0027084,58 C51.1057821,58 52,57.1122704 52,56 L52,56 C52,54.8954305 51.1084602,54 50.0027084,54 L13.9972916,54 Z" class="lines"></path><text opacity="0" font-family="Helvetica" font-size="26" font-weight="normal" class="code-indicator"><tspan x="16" y="51">{  }</tspan></text></g></g></svg>