<svg viewBox="0 0 32 32" version="1.1" xmlns="http://www.w3.org/2000/svg"><g fill-rule="evenodd" class="end-icon small-icon" id="end-small"><path d="M0.496874437,21.9729908 C1.89687442,19.942856 10.9949839,8.77452354 11.496874,8.26958077 C11.8499997,7.91430719 12.1499997,7.91430718 12.496874,8.26958077 C12.9899899,8.77463709 22.1068689,19.942856 23.5068689,21.9729908 C24.9068689,24.0031256 22.9816931,24.0031256 21.9968737,24.0031256 L1.99687443,24.0031256 C0.996874464,24.0031256 -0.903125551,24.0031256 0.496874437,21.9729908 Z" transform="translate(12.000000, 16.003126) rotate(90.000000) translate(-12.000000, -16.003126) " class="arrow"></path><path d="M26,4 C24.8954305,4 24,4.89702623 24,6.00494659 L24,25.9950534 C24,27.1023548 24.8877296,28 26,28 L26,28 C27.1045695,28 28,27.1029738 28,25.9950534 L28,6.00494659 C28,4.89764516 27.1122704,4 26,4 L26,4 Z" class="pipe"></path></g></svg>