<svg viewBox="0 0 32 32" version="1.1" xmlns="http://www.w3.org/2000/svg"><g fill-rule="evenodd" class="folder-empty-icon small-icon" id="folder-empty-small"><path d="M14,8 C13.9690585,8 13.9884424,5.98828131 13.9884424,5.98828131 C13.9948255,4.89018386 13.0980496,4 11.9914698,4 L4.0085302,4 C2.8992496,4 2,4.88670635 2,5.99810135 L2,12 L30,12 L30,10 C30,8.8954305 29.1004379,8 27.9900693,8 L14,8 Z" class="back"></path><path d="M2.00174332,12 C0.89621101,12 0.11037752,12.8830202 0.249257535,13.9940603 L1.75074247,26.0059397 C1.8884036,27.1072288 2.89989752,28 3.99124431,28 L28.0087557,28 C29.1084896,28 30.1103775,27.1169798 30.2492575,26.0059397 L31.7507425,13.9940603 C31.8884036,12.8927712 31.1107383,12 29.9982567,12 L2.00174332,12 Z" class="front"></path></g></svg>