<svg width="64px" height="64px" viewBox="0 0 64 64" version="1.1" xmlns="http://www.w3.org/2000/svg" class="icon-folder-empty svg-icon"><g fill-rule="evenodd"><g class="folder-empty"><path d="M28,16 C27.9381171,16 27.9868121,9.97752857 27.9868121,9.97752857 C27.9940956,8.8853697 27.1029738,8 25.9950534,8 L6.00494659,8 C4.89764516,8 4,8.89451376 4,9.99406028 L4,24 L60,24 L60,17.9981014 C60,16.8945804 59.1025969,16 57.994803,16 L28,16 Z" class="back"></path><path d="M2.00329863,24 C0.896907345,24 0.111157715,24.8892617 0.247199275,25.9775942 L3.75280073,54.0224058 C3.88932511,55.1146009 4.90230818,56 5.99306965,56 L58.0069304,56 C59.1076723,56 60.1111577,55.1107383 60.2471993,54.0224058 L63.7528007,25.9775942 C63.8893251,24.8853991 63.0952759,24 61.9967014,24 L2.00329863,24 Z" class="front"></path></g></g></svg>