<svg viewBox="0 0 32 32" version="1.1" xmlns="http://www.w3.org/2000/svg"><g fill-rule="evenodd" class="forward-icon small-icon" id="forward-small"><path d="M12.4968744,21.9729908 C13.8968744,19.942856 22.9949839,8.77452354 23.496874,8.26958077 C23.8499997,7.91430719 24.1499997,7.91430718 24.496874,8.26958077 C24.9899899,8.77463709 34.1068689,19.942856 35.5068689,21.9729908 C36.9068689,24.0031256 34.9816931,24.0031256 33.9968737,24.0031256 L13.9968744,24.0031256 C12.9968745,24.0031256 11.0968744,24.0031256 12.4968744,21.9729908 Z" transform="translate(24.000000, 16.003126) rotate(90.000000) translate(-24.000000, -16.003126) " class="arrow-right"></path><path d="M-3.50312556,21.9729908 C-2.10312558,19.942856 6.99498393,8.77452354 7.496874,8.26958077 C7.84999972,7.91430719 8.14999973,7.91430718 8.496874,8.26958077 C8.98998987,8.77463709 18.1068689,19.942856 19.5068689,21.9729908 C20.9068689,24.0031256 18.9816931,24.0031256 17.9968737,24.0031256 L-2.00312557,24.0031256 C-3.00312554,24.0031256 -4.90312555,24.0031256 -3.50312556,21.9729908 Z" transform="translate(8.000000, 16.003126) rotate(90.000000) translate(-8.000000, -16.003126) " class="arrow-left"></path></g></svg>