<svg width="32px" height="32px" viewBox="0 0 32 32" version="1.1" xmlns="http://www.w3.org/2000/svg" class="small-icon gears-icon gear-bottom gear-top svg-icon"><g fill-rule="evenodd"><g><g transform="translate(23.938084, 24.439825) rotate(-22.000000) translate(-23.938084, -24.439825) translate(15.438084, 15.939825)"><path d="M7.8684237,0.783854803 C7.8684237,1.51046786 7.8684237,3.22926314 7.8684237,3.22926314 L9.91099559,3.22926314 C9.91099559,3.22926314 9.9109956,1.53604229 9.91099559,0.783854803 C9.91099559,0.0316673128 7.8684237,0.057241743 7.8684237,0.783854803 Z M13.5105696,2.30808208 C12.9596728,2.8589789 11.6565323,4.16211942 11.6565323,4.16211942 L13.1008488,5.60643577 C13.1008488,5.60643577 14.3845994,4.32268513 14.9548861,3.75239852 C15.5251727,3.1821119 14.0614664,1.75718526 13.5105696,2.30808208 Z M16.4397644,7.37401085 C15.6327232,7.37401085 13.723676,7.37401085 13.723676,7.37401085 L13.723676,9.41658274 C13.723676,9.41658274 15.6043179,9.41658274 16.4397644,9.41658274 C17.2752108,9.41658274 17.2468056,7.37401085 16.4397644,7.37401085 Z M15.0166244,13.0999334 C14.5466156,12.6299247 13.4348151,11.5181241 13.4348151,11.5181241 L11.9904987,12.9624406 C11.9904987,12.9624406 13.0857564,14.0576983 13.5723079,14.5442498 C14.0588594,15.0308013 15.4866331,13.5699421 15.0166244,13.0999334 Z M9.91099559,15.9453515 C9.91099559,15.1383103 9.91099559,13.2292631 9.91099559,13.2292631 L7.8684237,13.2292631 C7.8684237,13.2292631 7.86842369,15.1099051 7.8684237,15.9453515 C7.8684237,16.780798 9.91099559,16.7523927 9.91099559,15.9453515 Z M4.24681209,14.4604803 C4.79770985,13.9095825 6.1008526,12.6064397 6.1008526,12.6064397 L4.65653608,11.1621234 C4.65653608,11.1621234 3.37278324,12.4458762 2.80249565,13.0161638 C2.23220806,13.5864514 3.69591432,15.011378 4.24681209,14.4604803 Z M1.27826766,9.41658273 C2.00488072,9.41658274 3.72367599,9.41658274 3.72367599,9.41658274 L3.72367599,7.37401085 C3.72367599,7.37401085 2.03045515,7.37401084 1.27826766,7.37401084 C0.526080166,7.37401085 0.551654596,9.41658273 1.27826766,9.41658273 Z M2.79700486,3.72138252 C3.30726525,4.23164292 4.51428073,5.4386584 4.51428073,5.4386584 L5.95859709,3.99434188 C5.95859709,3.99434188 4.76954121,2.80528599 4.24132129,2.27706608 C3.71310138,1.74884618 2.28674446,3.21112212 2.79700486,3.72138252 Z" transform="translate(8.889710, 8.395297) rotate(-2.000000) translate(-8.889710, -8.395297) " class="gears"></path><path d="M8.96698946,14.924392 C12.4866031,14.924392 15.3398138,12.0711813 15.3398138,8.55156765 C15.3398138,5.03195398 12.4866031,2.17874335 8.96698946,2.17874335 C5.44737578,2.17874335 2.59416516,5.03195398 2.59416516,8.55156765 C2.59416516,12.0711813 5.44737578,14.924392 8.96698946,14.924392 Z M8.96698946,13.0656515 C11.4600491,13.0656515 13.4810733,11.0446273 13.4810733,8.55156765 C13.4810733,6.05850797 11.4600491,4.03748377 8.96698946,4.03748377 C6.47392977,4.03748377 4.45290558,6.05850797 4.45290558,8.55156765 C4.45290558,11.0446273 6.47392977,13.0656515 8.96698946,13.0656515 Z" class="gear-body outer"></path><ellipse cx="8.93533295" cy="8.50384999" rx="1.90640043" ry="1.90640043" class="gear-body inner"></ellipse></g><g><path d="M9.1875,0.744922445 C9.1875,1.71373986 9.1875,4.00546689 9.1875,4.00546689 L11.8125,4.00546689 C11.8125,4.00546689 11.8125,1.7478391 11.8125,0.744922445 C11.8125,-0.257994209 9.1875,-0.223894969 9.1875,0.744922445 Z M16.5232,2.59232232 C15.932435,3.18308732 14.5349867,4.58053559 14.5349867,4.58053559 L16.3911421,6.4366908 C16.3911421,6.4366908 17.7677973,5.06003565 18.3793553,4.44847762 C18.9909133,3.8369196 17.113965,2.00155732 16.5232,2.59232232 Z M20.4419627,9.1875 C19.7179979,9.1875 18.0054669,9.1875 18.0054669,9.1875 L18.0054669,11.8125 C18.0054669,11.8125 19.6925166,11.8125 20.4419627,11.8125 C21.1914088,11.8125 21.1659276,9.1875 20.4419627,9.1875 Z M18.3884392,16.5606064 C17.8033665,15.9755337 16.4193833,14.5915504 16.4193833,14.5915504 L14.5632281,16.4477058 C14.5632281,16.4477058 15.9266186,17.8110963 16.5322839,18.4167617 C17.1379493,19.022427 18.973512,17.1456791 18.3884392,16.5606064 Z M11.8125,20.4419627 C11.8125,19.7179979 11.8125,18.0054669 11.8125,18.0054669 L9.1875,18.0054669 C9.1875,18.0054669 9.18749999,19.6925166 9.1875,20.4419627 C9.1875,21.1914088 11.8125,21.1659276 11.8125,20.4419627 Z M4.53283713,18.2950058 C5.24033733,17.5875056 6.91392145,15.9139214 6.91392145,15.9139214 L5.05776604,14.0577663 C5.05776604,14.0577663 3.40908375,15.7064485 2.67668183,16.4388505 C1.94427992,17.1712524 3.82533694,19.002506 4.53283713,18.2950058 Z M0.560058557,11.8125 C1.28667162,11.8125 3.00546689,11.8125 3.00546689,11.8125 L3.00546689,9.1875 C3.00546689,9.1875 1.31224605,9.18749999 0.560058557,9.1875 C-0.192128934,9.1875 -0.166554504,11.8125 0.560058557,11.8125 Z M2.52655545,4.34990625 C2.99438387,4.81773467 4.10102697,5.92437778 4.10102697,5.92437778 L5.9571822,4.06822241 C5.9571822,4.06822241 4.86700522,2.97804542 4.38271075,2.49375095 C3.89841627,2.00945648 2.05872702,3.88207783 2.52655545,4.34990625 Z" class="gears"></path><path d="M10.5,18.375 C14.8492424,18.375 18.375,14.8492424 18.375,10.5 C18.375,6.1507576 14.8492424,2.625 10.5,2.625 C6.1507576,2.625 2.625,6.1507576 2.625,10.5 C2.625,14.8492424 6.1507576,18.375 10.5,18.375 Z M10.5,16.078125 C13.5807134,16.078125 16.078125,13.5807134 16.078125,10.5 C16.078125,7.41928663 13.5807134,4.921875 10.5,4.921875 C7.41928663,4.921875 4.921875,7.41928663 4.921875,10.5 C4.921875,13.5807134 7.41928663,16.078125 10.5,16.078125 Z" class="gear-body outer"></path><circle cx="10.6141304" cy="10.6141304" r="2.625" class="gear-body inner"></circle></g></g></g></svg>