<svg viewBox="0 0 32 32" version="1.1" xmlns="http://www.w3.org/2000/svg" class="small-icon gears-icon gear-bottom gear-bottom-2 svg-icon" style="display: none;"><defs><g fill-rule="evenodd" id="gears-small"><g transform="translate(-1.000000, 0.000000)"><g transform="translate(0.500000, 0.000000)"><path d="M9.50000001,0.739455553 C9.5,1.70827297 9.5,4 9.5,4 L13.5,4 C13.5,4 13.5,1.74237221 13.5,0.739455553 C13.5,-0.263461101 9.50000001,-0.229361861 9.50000001,0.739455553 Z M17.3577251,2.33737762 C16.6726678,3.02243498 15.052172,4.6429307 15.052172,4.6429307 L17.8805991,7.47135782 C17.8805991,7.47135782 19.4769831,5.87497391 20.1861522,5.16580474 C20.8953214,4.45663557 18.0427825,1.65232026 17.3577251,2.33737762 Z M21.7840743,9.02352986 C20.8152569,9.02352986 18.5235299,9.02352985 18.5235299,9.02352985 L18.5235299,13.0235298 C18.5235299,13.0235298 20.7811576,13.0235299 21.7840743,13.0235299 C22.786991,13.0235298 22.7528917,9.02352986 21.7840743,9.02352986 Z M20.1861522,16.881255 C19.5010949,16.1961976 17.8805992,14.5757019 17.8805992,14.5757019 L15.052172,17.404129 C15.052172,17.404129 16.6485559,19.0005129 17.3577251,19.7096821 C18.0668943,20.4188513 20.8712096,17.5663123 20.1861522,16.881255 Z M13.5,21.3076042 C13.5,20.3387867 13.5,18.0470597 13.5,18.0470597 L9.50000001,18.0470597 C9.50000001,18.0470597 9.5,20.3046875 9.50000001,21.3076042 C9.50000001,22.3105208 13.5,22.2764216 13.5,21.3076042 Z M5.64227489,19.7096821 C6.32733225,19.0246247 7.94782798,17.404129 7.94782798,17.404129 L5.11940086,14.5757019 C5.11940086,14.5757019 3.52301693,16.1720858 2.81384777,16.881255 C2.1046786,17.5904241 4.95721752,20.3947395 5.64227489,19.7096821 Z M1.2159257,13.0235299 C2.18474311,13.0235299 4.47647014,13.0235299 4.47647014,13.0235299 L4.47647014,9.02352987 C4.47647014,9.02352987 2.21884235,9.02352986 1.2159257,9.02352987 C0.213009043,9.02352987 0.247108283,13.0235299 1.2159257,13.0235299 Z M2.81384776,5.16580474 C3.49890512,5.85086211 5.11940084,7.47135784 5.11940084,7.47135784 L7.94782796,4.64293072 C7.94782796,4.64293072 6.35144405,3.04654679 5.64227488,2.33737762 C4.9331057,1.62820846 2.12879039,4.48074738 2.81384776,5.16580474 Z" class="gears"></path><path d="M19.375,10.5 C19.375,6.1507576 15.8492424,2.625 11.5,2.625 C7.1507576,2.625 3.625,6.1507576 3.625,10.5 C3.625,14.8492424 7.1507576,18.375 11.5,18.375 C15.8492424,18.375 19.375,14.8492424 19.375,10.5 Z M15.625,10.625 C15.625,8.415861 13.834139,6.625 11.625,6.625 C9.415861,6.625 7.625,8.415861 7.625,10.625 C7.625,12.834139 9.415861,14.625 11.625,14.625 C13.834139,14.625 15.625,12.834139 15.625,10.625 Z" class="gear-body outer"></path></g><g transform="translate(25.716921, 24.720473) rotate(-21.000000) translate(-25.716921, -24.720473) translate(17.866921, 17.211778)"><path d="M6.48478253,0.504758784 C6.48478253,1.16608197 6.48478253,2.73043475 6.48478253,2.73043475 L9.21521727,2.73043475 C9.21521727,2.73043475 9.21521728,1.1893584 9.21521728,0.504758784 C9.21521727,-0.179840836 6.48478254,-0.156564399 6.48478253,0.504758784 Z M11.848534,1.59551427 C11.3809079,2.06314037 10.2747434,3.16930483 10.2747434,3.16930483 L12.2054523,5.10001376 C12.2054523,5.10001376 13.2951579,4.01030823 13.7792429,3.52622319 C14.2633279,3.04213815 12.3161601,1.12788816 11.848534,1.59551427 Z M14.8699984,6.15953987 C14.2086752,6.15953987 12.6443224,6.15953987 12.6443224,6.15953987 L12.6443224,8.88997461 C12.6443224,8.88997461 14.1853987,8.88997462 14.8699984,8.88997462 C15.554598,8.88997461 15.5313215,6.15953987 14.8699984,6.15953987 Z M13.7792429,11.5232913 C13.3116168,11.0556652 12.2054523,9.94950073 12.2054523,9.94950073 L10.2747434,11.8802097 C10.2747434,11.8802097 11.3644489,12.9699152 11.848534,13.4540002 C12.332619,13.9380853 14.246869,11.9909174 13.7792429,11.5232913 Z M9.21521728,14.5447557 C9.21521728,13.8834325 9.21521728,12.3190797 9.21521728,12.3190797 L6.48478254,12.3190797 C6.48478254,12.3190797 6.48478253,13.8601561 6.48478254,14.5447557 C6.48478254,15.2293553 9.21521728,15.2060789 9.21521728,14.5447557 Z M3.85146585,13.4540002 C4.31909196,12.9863741 5.42525642,11.8802097 5.42525642,11.8802097 L3.4945475,9.94950074 C3.4945475,9.94950074 2.40484196,11.0392063 1.92075693,11.5232913 C1.4366719,12.0073763 3.38383975,13.9216263 3.85146585,13.4540002 Z M0.830001444,8.88997462 C1.49132463,8.88997462 3.05567741,8.88997463 3.05567741,8.88997463 L3.05567741,6.15953988 C3.05567741,6.15953988 1.51460106,6.15953987 0.830001444,6.15953988 C0.145401823,6.15953988 0.168678261,8.88997462 0.830001444,8.88997462 Z M1.92075692,3.5262232 C2.38838303,3.9938493 3.49454749,5.10001377 3.49454749,5.10001377 L5.42525641,3.16930484 C5.42525641,3.16930484 4.33555088,2.0795993 3.85146585,1.59551427 C3.36738081,1.11142924 1.45313082,3.05859709 1.92075692,3.5262232 Z" class="gears"></path><path d="M13.2255433,7.16739122 C13.2255433,4.19856057 10.8188306,1.7918478 7.8499999,1.7918478 C4.88116926,1.7918478 2.47445649,4.19856057 2.47445649,7.16739122 C2.47445649,10.1362219 4.88116926,12.5429346 7.8499999,12.5429346 C10.8188306,12.5429346 13.2255433,10.1362219 13.2255433,7.16739122 Z M10.6657607,7.2527173 C10.6657607,5.74473983 9.44330346,4.52228255 7.93532599,4.52228255 C6.42734852,4.52228255 5.20489124,5.74473983 5.20489124,7.2527173 C5.20489124,8.76069478 6.42734852,9.98315205 7.93532599,9.98315205 C9.44330346,9.98315205 10.6657607,8.76069478 10.6657607,7.2527173 Z" class="gear-body outer"></path></g></g></g></defs></svg>