<svg width="32px" height="32px" viewBox="0 0 32 32" version="1.1" xmlns="http://www.w3.org/2000/svg" class="small-icon gear-icon svg-icon"><g fill-rule="evenodd"><g><path d="M14,0.932649943 C14,2.14367171 14,5.0083305 14,5.0083305 L18,5.0083305 C18,5.0083305 18,2.18629576 18,0.932649943 C18,-0.320995875 14,-0.278371824 14,0.932649943 Z M25.2609361,3.86747886 C24.4596473,4.66876759 22.5642075,6.56420746 22.5642075,6.56420746 L25.3926347,9.39263446 C25.3926347,9.39263446 27.2598717,7.52539749 28.0893632,6.69590599 C28.9188547,5.86641448 26.0622248,3.06619014 25.2609361,3.86747886 Z M31.0704301,14 C29.8634437,14 27.0083305,14 27.0083305,14 L27.0083305,18 C27.0083305,18 29.8209617,18 31.0704301,18 C32.3198985,18 32.2774165,14 31.0704301,14 Z M28.0646015,25.2793323 C27.2308706,24.4456014 25.2586891,22.47342 25.2586891,22.47342 L22.4302621,25.3018472 C22.4302621,25.3018472 24.3730988,27.2446839 25.2361744,28.1077595 C26.0992499,28.970835 28.8983324,26.1130632 28.0646015,25.2793323 Z M18,31.0704301 C18,29.8634437 18,27.0083305 18,27.0083305 L14,27.0083305 C14,27.0083305 14,29.8209617 14,31.0704301 C14,32.3198985 18,32.2774165 18,31.0704301 Z M6.79027396,27.9950105 C7.6573908,27.1278936 9.70854637,25.0767381 9.70854637,25.0767381 L6.88011911,22.2483111 C6.88011911,22.2483111 4.85948338,24.2689468 3.96184683,25.1665833 C3.06421029,26.0642199 5.92315712,28.8621273 6.79027396,27.9950105 Z M0.932649943,18 C2.14367171,18 5.0083305,18 5.0083305,18 L5.0083305,14 C5.0083305,14 2.18629576,14 0.932649943,14 C-0.320995875,14 -0.278371824,18 0.932649943,18 Z M3.95967445,6.73811378 C4.79068655,7.56912587 6.75643674,9.53487606 6.75643674,9.53487606 L9.58486373,6.70644881 C9.58486373,6.70644881 7.64836262,4.76994768 6.78810158,3.90968665 C5.92784054,3.04942562 3.12866236,5.90710168 3.95967445,6.73811378 Z" class="gears"></path><path d="M16,28 C22.627417,28 28,22.627417 28,16 C28,9.372583 22.627417,4 16,4 C9.372583,4 4,9.372583 4,16 C4,22.627417 9.372583,28 16,28 Z M16,24.5 C20.6944204,24.5 24.5,20.6944204 24.5,16 C24.5,11.3055796 20.6944204,7.5 16,7.5 C11.3055796,7.5 7.5,11.3055796 7.5,16 C7.5,20.6944204 11.3055796,24.5 16,24.5 Z" class="gear-body outer"></path><circle cx="16" cy="16" r="4" class="gear-body inner"></circle></g></g></svg>