<svg width="64px" height="64px" viewBox="0 0 64 64" version="1.1" xmlns="http://www.w3.org/2000/svg" class="icon-gears svg-icon"><g fill-rule="evenodd"><g class="gears"><g transform="translate(50.126832, 49.226869) rotate(-22.000000) translate(-50.126832, -49.226869) translate(35.126832, 34.226869)" class="gear-bottom"><path d="M12.6096176,1.12720415 C12.6096176,2.07236029 12.6096176,4.30811684 12.6096176,4.30811684 L16.3596176,4.30811684 C16.3596176,4.30811684 16.3596176,2.10562673 16.3596176,1.12720415 C16.3596176,0.148781563 12.6096176,0.182048003 12.6096176,1.12720415 Z M23.2300052,3.96049972 C22.5616789,4.62882603 20.9807602,6.20974476 20.9807602,6.20974476 L23.6324107,8.86139508 C23.6324107,8.86139508 25.1898064,7.30399939 25.8816557,6.61215015 C26.5735049,5.9203009 23.8983316,3.2921734 23.2300052,3.96049972 Z M28.7554118,13.5229984 C27.8102557,13.5229984 25.5744991,13.5229984 25.5744991,13.5229984 L25.5744991,17.2729984 C25.5744991,17.2729984 27.7769892,17.2729984 28.7554118,17.2729984 C29.7338344,17.2729984 29.700568,13.5229984 28.7554118,13.5229984 Z M25.8816557,24.1838466 C25.2133293,23.5155202 23.6324106,21.9346015 23.6324106,21.9346015 L20.9807603,24.5862521 C20.9807603,24.5862521 22.538156,26.1436478 23.2300052,26.835497 C23.9218545,27.5273462 26.549982,24.8521729 25.8816557,24.1838466 Z M16.3596176,29.6687926 C16.3596176,28.7236364 16.3596176,26.4878799 16.3596176,26.4878799 L12.6096176,26.4878799 C12.6096176,26.4878799 12.6096176,28.69037 12.6096176,29.6687926 C12.6096176,30.6472151 16.3596176,30.6139487 16.3596176,29.6687926 Z M5.69876939,26.7950507 C6.36709571,26.1267244 7.94801444,24.5458057 7.94801444,24.5458057 L5.29636391,21.8941553 C5.29636391,21.8941553 3.7389682,23.451551 3.04711896,24.1434003 C2.35526973,24.8352495 5.03044308,27.463377 5.69876939,26.7950507 Z M0.213823401,17.2729983 C1.15897954,17.2729983 3.3947361,17.2729984 3.3947361,17.2729984 L3.3947361,13.5229984 C3.3947361,13.5229984 1.19224598,13.5229983 0.213823401,13.5229983 C-0.764599181,13.5229984 -0.731332741,17.2729983 0.213823401,17.2729983 Z M3.09398253,6.61215014 C3.76230884,7.28047646 5.34322757,8.86139518 5.34322757,8.86139518 L7.99487789,6.20974465 C7.99487789,6.20974465 6.4374822,4.65234895 5.74563296,3.96049971 C5.05378371,3.26865047 2.42565621,5.94382382 3.09398253,6.61215014 Z" class="gears"></path><path d="M14.6267608,27.4 C21.0884924,27.4 26.3267608,22.1617316 26.3267608,15.7 C26.3267608,9.23826843 21.0884924,4 14.6267608,4 C8.16502922,4 2.9267608,9.23826843 2.9267608,15.7 C2.9267608,22.1617316 8.16502922,27.4 14.6267608,27.4 Z M14.6267608,23.9875 C19.2038207,23.9875 22.9142608,20.2770599 22.9142608,15.7 C22.9142608,11.1229401 19.2038207,7.4125 14.6267608,7.4125 C10.0497009,7.4125 6.3392608,11.1229401 6.3392608,15.7 C6.3392608,20.2770599 10.0497009,23.9875 14.6267608,23.9875 Z" class="gear-body outer"></path><circle cx="14.568642" cy="15.6123942" r="3.5" class="gear-body inner"></circle></g><g class="gear-top"><path d="M20.125,1.11811555 C20.125,2.56735497 20.125,5.99551502 20.125,5.99551502 L25.875,5.99551502 C25.875,5.99551502 25.875,2.61836351 25.875,1.11811555 C25.875,-0.382132408 20.125,-0.331123866 20.125,1.11811555 Z M36.4095944,5.46250209 C35.3848273,6.48726911 32.960752,8.91134449 32.960752,8.91134449 L37.0266161,12.9772083 C37.0266161,12.9772083 39.4146229,10.5892016 40.4754584,9.52836609 C41.5362939,8.46753058 37.4343614,4.43773508 36.4095944,5.46250209 Z M44.8818844,20.125 C43.432645,20.125 40.004485,20.125 40.004485,20.125 L40.004485,25.875 C40.004485,25.875 43.3816365,25.875 44.8818844,25.875 C46.3821324,25.875 46.3311239,20.125 44.8818844,20.125 Z M40.4754583,36.4716339 C39.4506913,35.4468669 37.0266159,33.0227915 37.0266159,33.0227915 L32.9607521,37.0886557 C32.9607521,37.0886557 35.3487588,39.4766624 36.4095943,40.5374979 C37.4704299,41.5983334 41.5002254,37.4964009 40.4754583,36.4716339 Z M25.875,44.8818844 C25.875,43.432645 25.875,40.004485 25.875,40.004485 L20.125,40.004485 C20.125,40.004485 20.125,43.3816365 20.125,44.8818844 C20.125,46.3821324 25.875,46.3311239 25.875,44.8818844 Z M9.52836607,40.4754803 C10.5531331,39.4507133 12.9772085,37.0266379 12.9772085,37.0266379 L8.91134433,32.9607741 C8.91134433,32.9607741 6.52333758,35.3487808 5.46250208,36.4096163 C4.40166658,37.4704518 8.50359905,41.5002473 9.52836607,40.4754803 Z M1.11811555,25.875 C2.56735497,25.875 5.99551502,25.875 5.99551502,25.875 L5.99551502,20.125 C5.99551502,20.125 2.61836351,20.125 1.11811555,20.125 C-0.382132408,20.125 -0.331123866,25.875 1.11811555,25.875 Z M5.53435955,9.52836607 C6.55912657,10.5531331 8.98320194,12.9772085 8.98320194,12.9772085 L13.0490658,8.91134433 C13.0490658,8.91134433 10.6610591,6.52333758 9.60022354,5.46250208 C8.53938803,4.40166658 4.50959253,8.50359905 5.53435955,9.52836607 Z" class="gears"></path><path d="M23,40.25 C32.5269119,40.25 40.25,32.5269119 40.25,23 C40.25,13.4730881 32.5269119,5.75 23,5.75 C13.4730881,5.75 5.75,13.4730881 5.75,23 C5.75,32.5269119 13.4730881,40.25 23,40.25 Z M23,35.21875 C29.7482293,35.21875 35.21875,29.7482293 35.21875,23 C35.21875,16.2517707 29.7482293,10.78125 23,10.78125 C16.2517707,10.78125 10.78125,16.2517707 10.78125,23 C10.78125,29.7482293 16.2517707,35.21875 23,35.21875 Z" class="gear-body outer"></path><circle cx="23.25" cy="23.25" r="5.75" class="gear-body inner"></circle></g></g></g></svg>