<svg width="64px" height="64px" viewBox="0 0 64 64" version="1.1" xmlns="http://www.w3.org/2000/svg" class="icon-gear svg-icon"><g fill-rule="evenodd"><g class="gear"><path d="M28,1.55563903 C28,3.57197213 28,8.34158611 28,8.34158611 L36,8.34158611 C36,8.34158611 36,3.64294054 36,1.55563903 C36,-0.53166248 28,-0.460694075 28,1.55563903 Z M50.6568269,7.60000291 C49.2310641,9.02576572 45.8584375,12.3983923 45.8584375,12.3983923 L51.515292,18.0552464 C51.515292,18.0552464 54.8377361,14.7328022 56.3136812,13.2568572 C57.7896262,11.7809121 52.0825898,6.17424011 50.6568269,7.60000291 Z M62.444361,28 C60.4280279,28 55.6584139,28 55.6584139,28 L55.6584139,36 C55.6584139,36 60.3570595,36 62.444361,36 C64.5316625,36 64.4606941,28 62.444361,28 Z M56.3136812,50.7431429 C54.8879184,49.31738 51.5152917,45.9447534 51.5152917,45.9447534 L45.8584377,51.6016079 C45.8584377,51.6016079 49.1808819,54.9240521 50.6568269,56.3999971 C52.132772,57.8759421 57.739444,52.1689057 56.3136812,50.7431429 Z M36,62.444361 C36,60.4280279 36,55.6584139 36,55.6584139 L28,55.6584139 C28,55.6584139 28,60.3570595 28,62.444361 C28,64.5316625 36,64.4606941 36,62.444361 Z M13.2568571,56.3137117 C14.68262,54.8879489 18.0552466,51.5153223 18.0552466,51.5153223 L12.3983921,45.8584682 C12.3983921,45.8584682 9.07594794,49.1809124 7.6000029,50.6568574 C6.12405785,52.1328025 11.8310943,57.7394745 13.2568571,56.3137117 Z M1.55563903,36 C3.57197213,36 8.34158611,36 8.34158611,36 L8.34158611,28 C8.34158611,28 3.64294054,28 1.55563903,28 C-0.53166248,28 -0.460694075,36 1.55563903,36 Z M7.6999785,13.2568571 C9.12574131,14.68262 12.4983679,18.0552466 12.4983679,18.0552466 L18.1552219,12.3983921 C18.1552219,12.3983921 14.8327778,9.07594794 13.3568327,7.6000029 C11.8808877,6.12405785 6.27421569,11.8310943 7.6999785,13.2568571 Z" class="gears"></path><path d="M32,56 C45.254834,56 56,45.254834 56,32 C56,18.745166 45.254834,8 32,8 C18.745166,8 8,18.745166 8,32 C8,45.254834 18.745166,56 32,56 Z M32,49 C41.3888407,49 49,41.3888407 49,32 C49,22.6111593 41.3888407,15 32,15 C22.6111593,15 15,22.6111593 15,32 C15,41.3888407 22.6111593,49 32,49 Z" class="gear-body outer"></path><circle cx="32" cy="32" r="8" class="gear-body inner"></circle></g></g></svg>