<svg viewBox="0 0 32 32" version="1.1" xmlns="http://www.w3.org/2000/svg"><g fill-rule="evenodd" class="gear-icon small-icon" id="gear-small"><path d="M13.0083305,0.932649943 C13.0083305,2.14367171 13.0083305,5.0083305 13.0083305,5.0083305 L19,5.0083305 C19,5.0083305 19,2.18629576 19,0.932649943 C19,-0.320995875 13.0083305,-0.278371824 13.0083305,0.932649943 Z M24.5571672,3.23450396 C23.7008455,4.09082566 21.6752258,6.11644532 21.6752258,6.11644532 L25.9119759,10.3531954 C25.9119759,10.3531954 27.9074559,8.35771555 28.7939173,7.47125409 C29.6803788,6.58479262 25.4134889,2.37818226 24.5571672,3.23450396 Z M31.0957713,13.0284213 C29.8847496,13.0284213 27.0200908,13.0284213 27.0200908,13.0284213 L27.0200908,19.0200908 C27.0200908,19.0200908 29.8421255,19.0200908 31.0957713,19.0200908 C32.3494171,19.0200908 32.3067931,13.0284213 31.0957713,13.0284213 Z M28.7939173,24.577258 C27.9375956,23.7209362 25.911976,21.6953166 25.911976,21.6953166 L21.6752258,25.9320667 C21.6752258,25.9320667 23.6707057,27.9275466 24.5571672,28.8140081 C25.4436287,29.7004695 29.650239,25.4335797 28.7939173,24.577258 Z M19,31.1158621 C19,29.9048403 19,27.0401815 19,27.0401815 L13.0083305,27.0401815 C13.0083305,27.0401815 13.0083305,29.8622163 13.0083305,31.1158621 C13.0083305,32.3695079 19,32.3268839 19,31.1158621 Z M7.45116332,28.8140081 C8.30748503,27.9576864 10.3331047,25.9320667 10.3331047,25.9320667 L6.09635457,21.6953166 C6.09635457,21.6953166 4.10087465,23.6907965 3.2144132,24.577258 C2.32795175,25.4637194 6.59484162,29.6703298 7.45116332,28.8140081 Z M0.912559173,19.0200908 C2.12358094,19.0200908 4.98823973,19.0200908 4.98823973,19.0200908 L4.98823973,13.0284213 C4.98823973,13.0284213 2.16620499,13.0284213 0.912559173,13.0284213 C-0.341086645,13.0284213 -0.298462594,19.0200908 0.912559173,19.0200908 Z M3.21441318,7.4712541 C4.07073488,8.3275758 6.09635454,10.3531955 6.09635454,10.3531955 L10.3331047,6.11644534 C10.3331047,6.11644534 8.33762477,4.12096542 7.45116331,3.23450397 C6.56470184,2.34804252 2.35809148,6.61493239 3.21441318,7.4712541 Z" class="gears"></path><path d="M16,28 C22.627417,28 28,22.627417 28,16 C28,9.372583 22.627417,4 16,4 C9.372583,4 4,9.372583 4,16 C4,22.627417 9.372583,28 16,28 Z M21,16 C21,13.2385763 18.7614237,11 16,11 C13.2385763,11 11,13.2385763 11,16 C11,18.7614237 13.2385763,21 16,21 C18.7614237,21 21,18.7614237 21,16 Z" class="gear-body outer"></path></g></svg>