<svg width="32px" height="32px" viewBox="0 0 32 32" version="1.1" xmlns="http://www.w3.org/2000/svg" class="small-icon gears-icon gear-bottom gear-top svg-icon"><g fill-rule="evenodd"><g><g transform="translate(24.865268, 24.065219) rotate(-22.000000) translate(-24.865268, -24.065219) translate(16.365268, 15.565219)"><path d="M6.86828013,0.613972134 C6.86828013,1.1287853 6.86828013,2.34657023 6.86828013,2.34657023 L8.91085202,2.34657023 C8.91085202,2.34657023 8.91085203,1.14690506 8.91085202,0.613972134 C8.91085202,0.0810392104 6.86828013,0.0991589692 6.86828013,0.613972134 Z M12.6530549,2.15722811 C12.289027,2.52125599 11.4279229,3.38236003 11.4279229,3.38236003 L12.8722394,4.8266764 C12.8722394,4.8266764 13.7205308,3.97838503 14.0973713,3.60154454 C14.4742118,3.22470405 13.0170827,1.79320023 12.6530549,2.15722811 Z M15.6626656,7.36578569 C15.1478524,7.36578569 13.9300675,7.36578568 13.9300675,7.36578568 L13.9300675,9.40835758 C13.9300675,9.40835758 15.1297326,9.40835758 15.6626656,9.40835758 C16.1955985,9.40835758 16.1774787,7.36578569 15.6626656,7.36578569 Z M14.0973713,13.1725987 C13.7333434,12.8085708 12.8722394,11.9474668 12.8722394,11.9474668 L11.427923,13.3917833 C11.427923,13.3917833 12.2762144,14.2400747 12.6530549,14.6169152 C13.0298953,14.9937556 14.4613992,13.5366266 14.0973713,13.1725987 Z M8.91085202,16.1601711 C8.91085202,15.645358 8.91085202,14.427573 8.91085202,14.427573 L6.86828013,14.427573 C6.86828013,14.427573 6.86828012,15.6272382 6.86828013,16.1601711 C6.86828013,16.6931041 8.91085202,16.6749843 8.91085202,16.1601711 Z M3.10403898,14.5948846 C3.46806686,14.2308568 4.3291709,13.3697527 4.3291709,13.3697527 L2.88485441,11.9254363 C2.88485441,11.9254363 2.03656303,12.7737277 1.65972255,13.1505682 C1.28288206,13.5274087 2.7400111,14.9589125 3.10403898,14.5948846 Z M0.116466578,9.40835757 C0.631279743,9.40835757 1.84906467,9.40835758 1.84906467,9.40835758 L1.84906467,7.36578568 C1.84906467,7.36578568 0.649399502,7.36578568 0.116466578,7.36578568 C-0.416466346,7.36578568 -0.398346587,9.40835757 0.116466578,9.40835757 Z M1.68524847,3.60154454 C2.04927634,3.96557242 2.91038038,4.82667646 2.91038038,4.82667646 L4.35469676,3.38235997 C4.35469676,3.38235997 3.50640539,2.53406858 3.1295649,2.1572281 C2.75272441,1.78038762 1.32122059,3.23751666 1.68524847,3.60154454 Z" transform="translate(8.125247, 8.387072) rotate(-2.000000) translate(-8.125247, -8.387072) " class="gears"></path><path d="M7.96698946,14.924392 C11.4866031,14.924392 14.3398138,12.0711813 14.3398138,8.55156765 C14.3398138,5.03195398 11.4866031,2.17874335 7.96698946,2.17874335 C4.44737578,2.17874335 1.59416516,5.03195398 1.59416516,8.55156765 C1.59416516,12.0711813 4.44737578,14.924392 7.96698946,14.924392 Z M7.96698946,13.0656515 C10.4600491,13.0656515 12.4810733,11.0446273 12.4810733,8.55156765 C12.4810733,6.05850797 10.4600491,4.03748377 7.96698946,4.03748377 C5.47392977,4.03748377 3.45290558,6.05850797 3.45290558,8.55156765 C3.45290558,11.0446273 5.47392977,13.0656515 7.96698946,13.0656515 Z" class="gear-body outer"></path><ellipse cx="7.93533295" cy="8.50384999" rx="1.90640043" ry="1.90640043" class="gear-body inner"></ellipse></g><g><path d="M9.1875,0.510444056 C9.1875,1.17205336 9.1875,2.73708294 9.1875,2.73708294 L11.8125,2.73708294 C11.8125,2.73708294 11.8125,1.19533986 11.8125,0.510444056 C11.8125,-0.174451751 9.1875,-0.151165243 9.1875,0.510444056 Z M16.6217713,2.49375096 C16.1539429,2.96157938 15.0472998,4.06822249 15.0472998,4.06822249 L16.9034552,5.92437771 C16.9034552,5.92437771 17.9936322,4.83420073 18.4779266,4.34990626 C18.9622211,3.86561178 17.0895998,2.02592253 16.6217713,2.49375096 Z M20.4895559,9.1875 C19.8279466,9.1875 18.2629171,9.1875 18.2629171,9.1875 L18.2629171,11.8125 C18.2629171,11.8125 19.8046601,11.8125 20.4895559,11.8125 C21.1744518,11.8125 21.1511652,9.1875 20.4895559,9.1875 Z M18.4779266,16.6500937 C18.0100982,16.1822653 16.9034551,15.0756222 16.9034551,15.0756222 L15.0472999,16.9317776 C15.0472999,16.9317776 16.1374769,18.0219546 16.6217713,18.506249 C17.1060658,18.9905435 18.9457551,17.1179222 18.4779266,16.6500937 Z M11.8125,20.4895559 C11.8125,19.8279466 11.8125,18.2629171 11.8125,18.2629171 L9.1875,18.2629171 C9.1875,18.2629171 9.18749999,19.8046601 9.1875,20.4895559 C9.1875,21.1744518 11.8125,21.1511652 11.8125,20.4895559 Z M4.34990625,18.4779366 C4.81773467,18.0101082 5.92437778,16.9034651 5.92437778,16.9034651 L4.06822241,15.0473099 C4.06822241,15.0473099 2.97804542,16.1374869 2.49375095,16.6217813 C2.00945648,17.1060758 3.88207783,18.9457651 4.34990625,18.4779366 Z M0.510444056,11.8125 C1.17205336,11.8125 2.73708294,11.8125 2.73708294,11.8125 L2.73708294,9.1875 C2.73708294,9.1875 1.19533986,9.18749999 0.510444056,9.1875 C-0.174451751,9.1875 -0.151165243,11.8125 0.510444056,11.8125 Z M2.52655545,4.34990625 C2.99438387,4.81773467 4.10102697,5.92437778 4.10102697,5.92437778 L5.9571822,4.06822241 C5.9571822,4.06822241 4.86700522,2.97804542 4.38271075,2.49375095 C3.89841627,2.00945648 2.05872702,3.88207783 2.52655545,4.34990625 Z" class="gears"></path><path d="M10.5,18.375 C14.8492424,18.375 18.375,14.8492424 18.375,10.5 C18.375,6.1507576 14.8492424,2.625 10.5,2.625 C6.1507576,2.625 2.625,6.1507576 2.625,10.5 C2.625,14.8492424 6.1507576,18.375 10.5,18.375 Z M10.5,16.078125 C13.5807134,16.078125 16.078125,13.5807134 16.078125,10.5 C16.078125,7.41928663 13.5807134,4.921875 10.5,4.921875 C7.41928663,4.921875 4.921875,7.41928663 4.921875,10.5 C4.921875,13.5807134 7.41928663,16.078125 10.5,16.078125 Z" class="gear-body outer"></path><circle cx="10.6141304" cy="10.6141304" r="2.625" class="gear-body inner"></circle></g></g></g></svg>