<svg width="64px" height="64px" viewBox="0 0 64 64" version="1.1" xmlns="http://www.w3.org/2000/svg" class="icon-gears svg-icon"><g fill-rule="evenodd"><g class="gears"><g transform="translate(51.723264, 51.623273) rotate(-22.000000) translate(-51.723264, -51.623273) translate(38.723264, 38.623273)" class="gear-bottom"><path d="M11.375,0.631978355 C11.375,1.45111368 11.375,3.38876936 11.375,3.38876936 L14.625,3.38876936 C14.625,3.38876936 14.625,1.47994459 14.625,0.631978355 C14.625,-0.215987883 11.375,-0.187156968 11.375,0.631978355 Z M20.5793359,3.08750118 C20.0001198,3.66671732 18.6299902,5.03684689 18.6299902,5.03684689 L20.9280874,7.33494383 C20.9280874,7.33494383 22.2778303,5.9852009 22.877433,5.38559822 C23.4770357,4.78599554 21.1585521,2.50828504 20.5793359,3.08750118 Z M25.3680216,11.375 C24.5488863,11.375 22.6112306,11.375 22.6112306,11.375 L22.6112306,14.625 C22.6112306,14.625 24.5200554,14.625 25.3680216,14.625 C26.2159879,14.625 26.187157,11.375 25.3680216,11.375 Z M22.877433,20.6144018 C22.2982168,20.0351856 20.9280873,18.6650561 20.9280873,18.6650561 L18.6299903,20.9631532 C18.6299903,20.9631532 19.9797333,22.3128961 20.5793359,22.9124988 C21.1789386,23.5121015 23.4566491,21.1936179 22.877433,20.6144018 Z M14.625,25.3680216 C14.625,24.5488863 14.625,22.6112306 14.625,22.6112306 L11.375,22.6112306 C11.375,22.6112306 11.375,24.5200554 11.375,25.3680216 C11.375,26.2159879 14.625,26.187157 14.625,25.3680216 Z M5.38559822,22.8774454 C5.96481436,22.2982292 7.33494392,20.9280997 7.33494392,20.9280997 L5.03684679,18.6300027 C5.03684679,18.6300027 3.68710385,19.9797457 3.08750118,20.5793483 C2.4878985,21.178951 4.80638207,23.4566615 5.38559822,22.8774454 Z M0.631978355,14.625 C1.45111368,14.625 3.38876936,14.625 3.38876936,14.625 L3.38876936,11.375 C3.38876936,11.375 1.47994459,11.375 0.631978355,11.375 C-0.215987883,11.375 -0.187156968,14.625 0.631978355,14.625 Z M3.12811627,5.38559822 C3.70733241,5.96481436 5.07746197,7.33494392 5.07746197,7.33494392 L7.37555891,5.03684679 C7.37555891,5.03684679 6.02581598,3.68710385 5.4262133,3.08750118 C4.82661062,2.4878985 2.54890013,4.80638207 3.12811627,5.38559822 Z" class="gears"></path><path d="M13,22.75 C18.3847763,22.75 22.75,18.3847763 22.75,13 C22.75,7.61522369 18.3847763,3.25 13,3.25 C7.61522369,3.25 3.25,7.61522369 3.25,13 C3.25,18.3847763 7.61522369,22.75 13,22.75 Z M13,19.90625 C16.8142166,19.90625 19.90625,16.8142166 19.90625,13 C19.90625,9.18578345 16.8142166,6.09375 13,6.09375 C9.18578345,6.09375 6.09375,9.18578345 6.09375,13 C6.09375,16.8142166 9.18578345,19.90625 13,19.90625 Z" class="gear-body outer"></path><circle cx="12.9267608" cy="12.926715" r="3.25" class="gear-body inner"></circle></g><g class="gear-top"><path d="M20.125,1.11811555 C20.125,2.56735497 20.125,5.99551502 20.125,5.99551502 L25.875,5.99551502 C25.875,5.99551502 25.875,2.61836351 25.875,1.11811555 C25.875,-0.382132408 20.125,-0.331123866 20.125,1.11811555 Z M36.4095944,5.46250209 C35.3848273,6.48726911 32.960752,8.91134449 32.960752,8.91134449 L37.0266161,12.9772083 C37.0266161,12.9772083 39.4146229,10.5892016 40.4754584,9.52836609 C41.5362939,8.46753058 37.4343614,4.43773508 36.4095944,5.46250209 Z M44.8818844,20.125 C43.432645,20.125 40.004485,20.125 40.004485,20.125 L40.004485,25.875 C40.004485,25.875 43.3816365,25.875 44.8818844,25.875 C46.3821324,25.875 46.3311239,20.125 44.8818844,20.125 Z M40.4754583,36.4716339 C39.4506913,35.4468669 37.0266159,33.0227915 37.0266159,33.0227915 L32.9607521,37.0886557 C32.9607521,37.0886557 35.3487588,39.4766624 36.4095943,40.5374979 C37.4704299,41.5983334 41.5002254,37.4964009 40.4754583,36.4716339 Z M25.875,44.8818844 C25.875,43.432645 25.875,40.004485 25.875,40.004485 L20.125,40.004485 C20.125,40.004485 20.125,43.3816365 20.125,44.8818844 C20.125,46.3821324 25.875,46.3311239 25.875,44.8818844 Z M9.52836607,40.4754803 C10.5531331,39.4507133 12.9772085,37.0266379 12.9772085,37.0266379 L8.91134433,32.9607741 C8.91134433,32.9607741 6.52333758,35.3487808 5.46250208,36.4096163 C4.40166658,37.4704518 8.50359905,41.5002473 9.52836607,40.4754803 Z M1.11811555,25.875 C2.56735497,25.875 5.99551502,25.875 5.99551502,25.875 L5.99551502,20.125 C5.99551502,20.125 2.61836351,20.125 1.11811555,20.125 C-0.382132408,20.125 -0.331123866,25.875 1.11811555,25.875 Z M5.53435955,9.52836607 C6.55912657,10.5531331 8.98320194,12.9772085 8.98320194,12.9772085 L13.0490658,8.91134433 C13.0490658,8.91134433 10.6610591,6.52333758 9.60022354,5.46250208 C8.53938803,4.40166658 4.50959253,8.50359905 5.53435955,9.52836607 Z" class="gears"></path><path d="M23,40.25 C32.5269119,40.25 40.25,32.5269119 40.25,23 C40.25,13.4730881 32.5269119,5.75 23,5.75 C13.4730881,5.75 5.75,13.4730881 5.75,23 C5.75,32.5269119 13.4730881,40.25 23,40.25 Z M23,35.21875 C29.7482293,35.21875 35.21875,29.7482293 35.21875,23 C35.21875,16.2517707 29.7482293,10.78125 23,10.78125 C16.2517707,10.78125 10.78125,16.2517707 10.78125,23 C10.78125,29.7482293 16.2517707,35.21875 23,35.21875 Z" class="gear-body outer"></path><circle cx="23.25" cy="23.25" r="5.75" class="gear-body inner"></circle></g></g></g></svg>