<svg width="32px" height="32px" viewBox="0 0 32 32" version="1.1" xmlns="http://www.w3.org/2000/svg" class="small-icon gear-icon svg-icon"><g fill-rule="evenodd"><g><path d="M14,0.777819514 C14,1.78598607 14,4.17079306 14,4.17079306 L18,4.17079306 C18,4.17079306 18,1.82147027 18,0.777819514 C18,-0.26583124 14,-0.230347037 14,0.777819514 Z M25.3284135,3.80000146 C24.6155321,4.51288286 22.9292188,6.19919617 22.9292188,6.19919617 L25.757646,9.02762318 C25.757646,9.02762318 27.4188681,7.36640111 28.1568406,6.62842858 C28.8948131,5.89045605 26.0412949,3.08712005 25.3284135,3.80000146 Z M31.2221805,14 C30.2140139,14 27.8292069,14 27.8292069,14 L27.8292069,18 C27.8292069,18 30.1785297,18 31.2221805,18 C32.2658312,18 32.230347,14 31.2221805,14 Z M28.1568406,25.3715714 C27.4439592,24.65869 25.7576459,22.9723767 25.7576459,22.9723767 L22.9292189,25.8008039 C22.9292189,25.8008039 24.5904409,27.462026 25.3284135,28.1999986 C26.066386,28.9379711 28.869722,26.0844528 28.1568406,25.3715714 Z M18,31.2221805 C18,30.2140139 18,27.8292069 18,27.8292069 L14,27.8292069 C14,27.8292069 14,30.1785297 14,31.2221805 C14,32.2658312 18,32.230347 18,31.2221805 Z M6.62842857,28.1568558 C7.34130998,27.4439744 9.02762328,25.7576611 9.02762328,25.7576611 L6.19919605,22.9292341 C6.19919605,22.9292341 4.53797397,24.5904562 3.80000145,25.3284287 C3.06202893,26.0664012 5.91554717,28.8697372 6.62842857,28.1568558 Z M0.777819514,18 C1.78598607,18 4.17079306,18 4.17079306,18 L4.17079306,14 C4.17079306,14 1.82147027,14 0.777819514,14 C-0.26583124,14 -0.230347037,18 0.777819514,18 Z M3.84998925,6.62842857 C4.56287065,7.34130998 6.24918396,9.02762328 6.24918396,9.02762328 L9.07761097,6.19919605 C9.07761097,6.19919605 7.4163889,4.53797397 6.67841637,3.80000145 C5.94044385,3.06202893 3.13710785,5.91554717 3.84998925,6.62842857 Z" class="gears"></path><path d="M16,28 C22.627417,28 28,22.627417 28,16 C28,9.372583 22.627417,4 16,4 C9.372583,4 4,9.372583 4,16 C4,22.627417 9.372583,28 16,28 Z M16,24.5 C20.6944204,24.5 24.5,20.6944204 24.5,16 C24.5,11.3055796 20.6944204,7.5 16,7.5 C11.3055796,7.5 7.5,11.3055796 7.5,16 C7.5,20.6944204 11.3055796,24.5 16,24.5 Z" class="gear-body outer"></path><circle cx="16" cy="16" r="4" class="gear-body inner"></circle></g></g></svg>