<svg width="64px" height="64px" viewBox="0 0 64 64" version="1.1" xmlns="http://www.w3.org/2000/svg" class="icon-git svg-icon"><g fill-rule="evenodd"><g transform="translate(-2.000000, -2.000000)" class="git"><rect transform="translate(34.000000, 34.000000) rotate(-45.000000) translate(-34.000000, -34.000000) " x="10" y="10" width="48" height="48" rx="5" class="background"></rect><path d="M37.9965316,20.1681044 L47.9639136,30.1354865 C48.2943669,30.0471145 48.6416813,30 49,30 C51.209139,30 53,31.790861 53,34 C53,36.209139 51.209139,38 49,38 C46.790861,38 45,36.209139 45,34 C45,33.6416813 45.0471145,33.2943669 45.1354865,32.9639136 L45.1354865,32.9639136 L36,23.8284271 L36,23.8284271 L36,44.5351288 L36,44.5351288 C37.1956027,45.2267476 38,46.5194353 38,48 C38,50.209139 36.209139,52 34,52 C31.790861,52 30,50.209139 30,48 C30,46.5194353 30.8043973,45.2267476 32,44.5351288 L32,23.4648745 C30.8043968,22.7732516 30,21.4805643 30,20 C30,19.5020638 30.0909836,19.0253779 30.2572331,18.5856602 L22.2824856,10.6109127 L25.1109127,7.78248558 L33.3767022,16.0482751 C33.5798063,16.0164962 33.7879767,16 34,16 C36.209139,16 38,17.790861 38,20 C38,20.0563142 37.9988363,20.1123566 37.9965316,20.1681044 Z" class="pipes"></path></g></g></svg>