<svg width="64px" height="64px" viewBox="0 0 64 64" version="1.1" xmlns="http://www.w3.org/2000/svg" class="icon-git svg-icon"><g fill-rule="evenodd"><g class="git"><path d="M30,21.4648745 L30,42.5351288 L30,42.5351288 C28.8043973,43.2267476 28,44.5194353 28,46 C28,48.209139 29.790861,50 32,50 C34.209139,50 36,48.209139 36,46 C36,44.5194353 35.1956027,43.2267476 34,42.5351288 L34,21.8284271 L43.1354865,30.9639136 C43.0471145,31.2943669 43,31.6416813 43,32 C43,34.209139 44.790861,36 47,36 C49.209139,36 51,34.209139 51,32 C51,29.790861 49.209139,28 47,28 C46.6416813,28 46.2943669,28.0471145 45.9639136,28.1354865 L45.9639136,28.1354865 L35.9965316,18.1681044 C35.9988363,18.1123566 36,18.0563142 36,18 C36,15.790861 34.209139,14 32,14 C31.7879767,14 31.5798063,14.0164962 31.3767022,14.0482751 L23.6936508,6.36522369 L23.6936508,6.36522369 L28.4637567,1.59511785 C30.4197647,-0.360890169 33.5832301,-0.357895424 35.5362433,1.59511785 L62.4048822,28.4637567 C64.3608902,30.4197647 64.3578954,33.5832301 62.4048822,35.5362433 L35.5362433,62.4048822 C33.5802353,64.3608902 30.4167699,64.3578954 28.4637567,62.4048822 L1.59511785,35.5362433 C-0.360890169,33.5802353 -0.357895424,30.4167699 1.59511785,28.4637567 L20.8652237,9.19365081 L28.2572331,16.5856602 C28.0909836,17.0253779 28,17.5020638 28,18 C28,19.4805643 28.8043968,20.7732516 29.9999989,21.4648706 L30,21.4648745 Z" class="shape"></path></g></g></svg>