<svg viewBox="0 0 32 32" version="1.1" xmlns="http://www.w3.org/2000/svg" style="display: none;"><defs><g fill-rule="evenodd" class="small-icon inbox-icon svg-icon" id="inbox-small"><g><path d="M2.00174332,0 C0.896211009,0 -1.19671257e-09,0.889261723 -1.15391929e-09,2.00174332 L-7.6991193e-11,29.9982567 C-3.4465226e-11,31.103789 0.889261723,32 2.00174332,32 L29.9982567,32 C31.103789,32 32,31.1107383 32,29.9982567 L32,2.00174332 C32,0.89621101 31.1107383,0 29.9982567,0 L2.00174332,0 Z M4,4 L4,22 L8.00208688,22 C9.10550383,22 10,22.8877296 10,24 L10,26 L22,26 L22,24 C22,22.8954305 22.8982606,22 23.9979131,22 L28,22 L28,4 L4,4 Z" class="shape"></path></g></g></defs></svg>