<svg width="64px" height="64px" viewBox="0 0 64 64" version="1.1" xmlns="http://www.w3.org/2000/svg" class="icon-info svg-icon"><g fill-rule="evenodd"><g class="info"><path d="M23,13.8392857 C20,15.0000001 18,17.6249999 20,16.6785714 C22,15.7321429 25.0145038,15.8253434 25.0145038,15.8253434 C26.6633478,15.7656792 28,17.0590601 28,18.7193677 L27.9999996,62.0020632 C27.9999996,63.1054942 28.8879193,63.8470201 29.9698221,63.6550363 C29.9698221,63.6550363 37.9999992,62.3214335 40.9999995,61.160716 C43.9999999,59.9999985 45.9999995,57.3750018 43.9999995,58.3214303 C41.9999995,59.2678589 37.9858045,59.4585056 37.9858045,59.4585056 C36.889075,59.5461617 36,58.7213547 36,57.6207303 L35.9999996,12.9964908 C35.9999996,11.8938594 35.118022,11.1506829 34.0301245,11.3424 C34.0301245,11.3424 26.0733593,12.6501883 23,13.8392857 Z" class="bottom"></path><circle cx="32" cy="4" r="4" class="top"></circle></g></g></svg>