<svg viewBox="0 0 32 32" version="1.1" xmlns="http://www.w3.org/2000/svg" class="small-icon info-icon svg-icon" style="display: none;"><defs><g fill-rule="evenodd" id="info-small"><g><path d="M11.5,6.91964286 C10,7.50000003 9.00000001,8.81249997 10,8.33928571 C11,7.86607145 11.0271342,8.06771806 11.0271342,8.06771806 C12.6690027,7.95225619 14,9.20832868 14,10.8673619 L13.9999998,30.0038745 C13.9999998,31.1063047 14.8750719,31.8472238 15.9683003,31.6462827 C15.9683003,31.6462827 18.9999996,31.1607168 20.4999998,30.580358 C21.9999999,29.9999993 22.9999998,28.6875009 21.9999998,29.1607152 C20.9999998,29.6339294 19.9787832,29.6179836 19.9787832,29.6179836 C18.8859314,29.7232639 18,28.9146249 18,27.7986538 L17.9999998,7.50995674 C17.9999998,6.3998883 17.1186054,5.65273757 16.0270814,5.85238925 C16.0270814,5.85238925 13.0366796,6.32509416 11.5,6.91964286 Z" class="shape"></path><circle cx="16" cy="2" r="2" class="period"></circle></g></g></defs></svg>