<svg viewBox="0 0 32 32" version="1.1" xmlns="http://www.w3.org/2000/svg"><g fill-rule="evenodd" class="key-icon small-icon" id="key-small"><g transform="translate(-3.000000, 0.000000)"><path d="M3.30761182,18.2573592 L-0.935029029,22.5000001 L1.89339805,25.3284269 L3.30761194,23.9142133 L6.13603878,26.7426402 L8.9644661,23.9142134 L11.7928934,26.7426402 L14.6213198,23.9142134 L17.449748,26.7426402 L25.935029,26.7426402 L25.935029,18.2573592 L3.30761182,18.2573592 Z" transform="translate(12.500000, 22.500000) rotate(-45.000000) translate(-12.500000, -22.500000) " class="key"></path><path d="M26,18 C30.9705627,18 35,13.9705627 35,9 C35,4.02943725 30.9705627,0 26,0 C21.0294373,0 17,4.02943725 17,9 C17,13.9705627 21.0294373,18 26,18 Z M25,4 C24.4477153,4.55228475 24.4509752,5.45097518 25.0042651,6.0042651 L28.9957349,9.9957349 C29.5503752,10.5503752 30.4438648,10.5561352 31,10 C31.5522847,9.44771525 31.5490248,8.54902482 30.9957349,7.9957349 L27.0042651,4.0042651 C26.4496248,3.4496248 25.5561352,3.44386482 25,4 Z" class="head"></path></g></g></svg>