<svg viewBox="0 0 32 32" version="1.1" xmlns="http://www.w3.org/2000/svg"><g fill-rule="evenodd" class="lightblub-icon small-icon" id="lightblub-small"><path d="M11,16.7653653 C12.25,19.1356784 11,21.5554696 13.5,24 L18.5,24 C21,21.5554696 19.8739464,20.1862827 21,16.7653653 C22.1004822,13.4221331 26,11.9752609 26,7.18515655 C26,2.39505218 21.5228475,0 16,0 C10.4771525,0 6,2.39505218 6,7.18515655 C6,12 9.75,14.3950522 11,16.7653653 Z M13,15.971138 C14,17.9463989 13,19.9628914 15,22 L17,22 C19,19.9628914 18.0991571,18.8219025 19,15.971138 C19.8803858,13.1851111 23,11.979384 23,7.98763037 C23,3.99587673 20.418278,2 16,2 C11.581722,2 9,3.99587673 9,7.98763037 C9,11.9999999 12,13.9958771 13,15.971138 Z" class="bulb"></path><rect x="10" y="28" width="12" height="4" rx="6" class="base ring1"></rect><rect x="9" y="26" width="14" height="4" rx="6" class="base ring2"></rect><rect x="9" y="23" width="14" height="4" rx="6" class="base ring3"></rect><rect x="9" y="20" width="14" height="4" rx="6" class="base ring4"></rect><path d="M19.3870502,6.45404198 C19.2190788,6.27263266 18.8292702,6.03211075 18.8292702,6.03211075 C18.3712769,5.72278466 17.5573397,5.45727097 17.0010434,5.43872776 L15.9989566,5.40532486 C15.4472481,5.38693458 15,5.81270014 15,6.36654307 L15,6.27750956 C15,6.826766 15.4531288,7.24077632 15.9980239,7.20319767 L16.9020005,7.14085498 C17.4531939,7.10284196 18.114556,7.46534223 18.3742865,7.94152458 L18.6257379,8.40252807 C18.8876656,8.8827387 19.4479004,8.99370672 19.8851448,8.64391208 L19.8148552,8.70014363 C20.2484787,8.35324571 20.3394811,7.7129472 20.0069576,7.25953265 C20.0069576,7.25953265 19.5969881,6.68077521 19.3870502,6.45404198 Z" class="inner-light"></path></g></svg>