<svg viewBox="0 0 32 32" version="1.1" xmlns="http://www.w3.org/2000/svg" class="svg-icon"><g fill-rule="evenodd" class="magnifier-icon small-icon" id="magnifier-small"><path d="M18.095902,22.3385427 C16.3093623,23.3942118 14.2254258,24 12,24 C5.372583,24 0,18.627417 0,12 C0,5.372583 5.372583,0 12,0 C18.627417,0 24,5.372583 24,12 C24,14.2254258 23.3942118,16.3093623 22.3385427,18.095902 L31.1044717,26.861831 C32.273137,28.0304963 32.2715599,29.9284142 31.099987,31.099987 C29.9307981,32.269176 28.0309271,32.2735677 26.861831,31.1044717 L18.095902,22.3385427 L18.095902,22.3385427 Z M12,20 C16.418278,20 20,16.418278 20,12 C20,7.581722 16.418278,4 12,4 C7.581722,4 4,7.581722 4,12 C4,16.418278 7.581722,20 12,20 Z" class="shape"></path></g></svg>