<svg viewBox="0 0 32 32" version="1.1" xmlns="http://www.w3.org/2000/svg"><g fill-rule="evenodd" class="merge-icon small-icon" id="merge-small"><path d="M6,7.46487122 L6,24.5351288 L6,24.5351288 C4.80439726,25.2267476 4,26.5194353 4,28 C4,30.209139 5.790861,32 8,32 C10.209139,32 12,30.209139 12,28 C12,26.5194353 11.1956027,25.2267476 10,24.5351288 L10,7.46487122 C11.1956027,6.77325238 12,5.48056471 12,4 C12,1.790861 10.209139,0 8,0 C5.790861,0 4,1.790861 4,4 C4,5.48056471 4.80439726,6.77325238 6,7.46487122 L6,7.46487122 Z M8,30 C9.1045695,30 10,29.1045695 10,28 C10,26.8954305 9.1045695,26 8,26 C6.8954305,26 6,26.8954305 6,28 C6,29.1045695 6.8954305,30 8,30 Z M8,6 C9.1045695,6 10,5.1045695 10,4 C10,2.8954305 9.1045695,2 8,2 C6.8954305,2 6,2.8954305 6,4 C6,5.1045695 6.8954305,6 8,6 Z" class="left"></path><path d="M26.0000004,24.535129 L26.0000004,8.00670248 C26.0000004,4.68475769 23.3128588,1.99999997 19.9981015,1.99999996 L18,1.99999996 L17.9999999,0.999999977 C17.9999999,0.44386481 17.6264825,0.249011552 17.1657256,0.556182871 L13.6713344,2.88577706 C12.7477726,3.50148501 12.7482819,4.49885473 13.6713345,5.11422311 L17.1657257,7.44381727 C17.6246732,7.74978222 18,7.55228489 18,7.00000014 L18,6.00000014 L19.0093689,6.00000013 C20.6569304,6.00000011 22,7.33915688 22,8.99109051 L22,24.5351288 C20.8043972,25.2267476 20,26.5194353 20,28 C20,30.209139 21.790861,32 24,32 C26.209139,32 28,30.209139 28,28 C28,26.5194355 27.1956029,25.2267479 26.0000004,24.535129 L26.0000004,24.535129 Z M24,30 C25.1045695,30 26,29.1045695 26,28 C26,26.8954305 25.1045695,26 24,26 C22.8954305,26 22,26.8954305 22,28 C22,29.1045695 22.8954305,30 24,30 Z" class="right"></path></g></svg>