<svg viewBox="0 0 32 32" version="1.1" xmlns="http://www.w3.org/2000/svg" class="svg-icon"><g fill-rule="evenodd" class="paper-clip-icon small-icon" id="paper-clip-small"><g transform="translate(-1.000000, 0.000000)"><path d="M19,9.99406028 C19,8.8927712 18.1122704,8 17,8 L17,8 C15.8954305,8 15,8.89294959 15,9.99679237 L15,17.2163265 L15,26.0084482 C15,28.2129214 16.7953562,30 19,30 L19,30 C21.209139,30 23,28.2058797 23,26.0031611 L23,8.00670248 C23,4.6892923 20.3069658,2 17,2 L17,2 C13.6862915,2 11.0000001,4.68662575 11,7.99706188 L11,22.9975383 C11,23.5511826 10.5561352,24 10,24 L10,24 C9.44771525,24 9,23.5525308 9,22.9993054 L9.00000004,7.99165249 C9.00000005,3.57798469 12.5907124,0 17,0 L17,0 C21.418278,0 25,3.57766074 25,7.99240541 L25,25.9998243 C25,29.3136299 22.3069658,32 19,32 L19,32 C15.6862915,32 13,29.3154714 13,26.0024287 L13,10.0055203 C13,7.7933325 14.7953562,6 17,6 L17,6 C19.209139,6 21,7.79171562 21,9.9947834 L21,23.0066023 C21,23.5552407 20.5561352,24 20,24 L20,24 C19.4477153,24 19,23.5553691 19,22.9991283 L19,9.99406028 Z" class="shape"></path></g></g></svg>