<svg viewBox="0 0 32 32" version="1.1" xmlns="http://www.w3.org/2000/svg"><g fill-rule="evenodd" class="paper-clip-icon small-icon" id="paper-clip-small"><path d="M18,9.99406028 C18,8.8927712 17.1122704,8 16,8 L16,8 C14.8954305,8 14,8.89294959 14,9.99679237 L14,17.2163265 L14,26.0084482 C14,28.2129214 15.7953562,30 18,30 L18,30 C20.209139,30 22,28.2058797 22,26.0031611 L22,8.00670248 C22,4.6892923 19.3069658,2 16,2 L16,2 C12.6862915,2 10.0000001,4.68662575 10,7.99706188 L10,22.9975383 C10,23.5511826 9.55613518,24 9,24 L9,24 C8.44771525,24 8,23.5525308 8,22.9993054 L8.00000004,7.99165249 C8.00000005,3.57798469 11.5907124,0 16,0 L16,0 C20.418278,0 24,3.57766074 24,7.99240541 L24,25.9998243 C24,29.3136299 21.3069658,32 18,32 L18,32 C14.6862915,32 12,29.3154714 12,26.0024287 L12,10.0055203 C12,7.7933325 13.7953562,6 16,6 L16,6 C18.209139,6 20,7.79171562 20,9.9947834 L20,23.0066023 C20,23.5552407 19.5561352,24 19,24 L19,24 C18.4477153,24 18,23.5553691 18,22.9991283 L18,9.99406028 Z" class="shape"></path></g></svg>