<svg viewBox="0 0 32 32" version="1.1" xmlns="http://www.w3.org/2000/svg" style="display: none;"><defs><g fill-rule="evenodd" class="small-icon pause-icon svg-icon" id="pause-small"><g><path d="M20,4 C18.8954305,4 18,4.89702623 18,6.00494659 L18,25.9950534 C18,27.1023548 18.8877296,28 20,28 L20,28 C21.1045695,28 22,27.1029738 22,25.9950534 L22,6.00494659 C22,4.89764516 21.1122704,4 20,4 L20,4 Z" class="pipe-right"></path><path d="M12,4 C10.8954305,4 10,4.89702623 10,6.00494659 L10,25.9950534 C10,27.1023548 10.8877296,28 12,28 L12,28 C13.1045695,28 14,27.1029738 14,25.9950534 L14,6.00494659 C14,4.89764516 13.1122704,4 12,4 L12,4 Z" class="pipe-left"></path></g></g></defs></svg>