<svg viewBox="0 0 32 32" version="1.1" xmlns="http://www.w3.org/2000/svg"><g fill-rule="evenodd" class="play-circle-icon small-icon" id="play-circle-small"><path d="M16,32 C24.836556,32 32,24.836556 32,16 C32,7.163444 24.836556,0 16,0 C7.163444,0 0,7.163444 0,16 C0,24.836556 7.163444,32 16,32 Z M13.5225681,7.37269374 C15.0451625,8.42268911 23.421375,15.2462413 23.8000804,15.6226572 C24.0665344,15.8875003 24.0665344,16.1124993 23.8000804,16.3726539 C23.4212898,16.7424891 15.0451625,23.5801184 13.5225681,24.6301138 C11.9999736,25.6801092 11.9999736,24.2362336 11.9999736,23.4976223 L11.9999736,8.49768879 C11.9999736,7.74769211 11.9999736,6.32269836 13.5225681,7.37269374 Z" class="Oval-54"></path></g></svg>