<svg width="32px" height="32px" viewBox="0 0 32 32" version="1.1" xmlns="http://www.w3.org/2000/svg" class="small-icon plus-icon svg-icon"><g fill-rule="evenodd"><g><path d="M0.998032629,20 C0.448611583,20 1.13686838e-13,19.5530412 1.13686838e-13,19 L1.13686838e-13,13 C1.13686838e-13,12.4461317 0.446834429,12 0.998032629,12 L12,12 L12,1.00164926 C12,0.452362008 12.4469588,0 13,0 L19,0 C19.5538683,0 20,0.44845362 20,1.00164926 L20,11 L20,12 L31,12 C31.549421,12 32,12.4469588 32,13 L32,19 C32,19.5538683 31.5511982,20 31,20 L20,20 L20,30.9983501 C20,31.5476374 19.5530412,32 19,32 L13,32 C12.4461317,32 12,31.5515458 12,30.9983501 L12,20 L0.998032629,20 Z" class="shape"></path></g></g></svg>