<svg width="64px" height="64px" viewBox="0 0 64 64" version="1.1" xmlns="http://www.w3.org/2000/svg" class="icon-plus svg-icon"><g fill-rule="evenodd"><g class="plus"><path d="M25.636039,38.363961 L1.99606526,38.363961 C0.897223162,38.363961 2.27373675e-13,37.4673041 2.27373675e-13,36.3612217 L2.27373675e-13,27.6387783 C2.27373675e-13,26.5310417 0.893668855,25.636039 1.99606526,25.636039 L25.636039,25.636039 L25.636039,2.00329863 C25.636039,0.904724121 26.5326959,0 27.6387783,0 L36.3612217,0 C37.4689583,0 38.363961,0.896907345 38.363961,2.00329863 L38.363961,25.636039 L62.3421325,25.636039 C63.4409746,25.636039 64.3381977,26.5326959 64.3381977,27.6387783 L64.3381977,36.3612217 C64.3381977,37.4689583 63.4445289,38.363961 62.3421325,38.363961 L38.363961,38.363961 L38.363961,61.9967014 C38.363961,63.0952759 37.4673041,64 36.3612217,64 L27.6387783,64 C26.5310417,64 25.636039,63.1030927 25.636039,61.9967014 L25.636039,38.363961 L25.636039,38.363961 Z" class="shape"></path></g></g></svg>