<svg viewBox="0 0 32 32" version="1.1" xmlns="http://www.w3.org/2000/svg" style="display: none;"><defs><g fill-rule="evenodd" class="small-icon plus-icon svg-icon" id="plus-small"><g><path d="M2.0085302,20 C0.899249601,20 0,19.1132936 0,18.0018986 L0,13.9981014 C0,12.8945804 0.901950359,12 2.0085302,12 L12,12 L12,2.0085302 C12,0.899249601 12.8867064,0 13.9981014,0 L18.0018986,0 C19.1054196,0 20,0.889582081 20,2.00825226 L20,11 L20,12 L29.9914698,12 C31.1007504,12 32,12.8867064 32,13.9981014 L32,18.0018986 C32,19.1054196 31.0980496,20 29.9914698,20 L20,20 L20,29.9914698 C20,31.1007504 19.1132936,32 18.0018986,32 L13.9981014,32 C12.8945804,32 12,31.0980496 12,29.9914698 L12,20 L2.0085302,20 Z" class="shape"></path></g></g></defs></svg>