<svg width="32px" height="32px" viewBox="0 0 32 32" version="1.1" xmlns="http://www.w3.org/2000/svg" class="small-icon question-mark-icon svg-icon"><g fill-rule="evenodd"><g><path d="M16.5183105,0.03125 C19.3399392,0.03125 21.5993567,0.886210475 23.2966309,2.59615707 C24.993905,4.30610367 25.8425293,6.49100266 25.8425293,9.1509196 C25.8425293,10.7620693 25.531009,12.0692089 24.907959,13.0723775 C24.284909,14.0755462 23.0280856,15.549878 21.1374512,17.4954173 C19.7624443,18.9089731 18.8708517,20.1059178 18.4626465,21.0862872 C18.0544413,22.0666566 18.0500488,23.5143947 18.0500488,25.4295349 L14.026123,25.4295298 C14.026123,23.2559977 14.2696102,21.5042787 14.7565918,20.1743202 C15.2435734,18.8443618 16.31062,17.3206322 17.9577637,15.6030858 L19.6765137,13.8019511 C20.1921412,13.2851672 20.6075017,12.7455922 20.9226074,12.1832097 C21.495527,11.1952406 21.7819824,10.169288 21.7819824,9.10532125 C21.7819824,7.61576777 21.3630413,6.32382749 20.5251465,5.22946167 C19.6872517,4.13509585 18.3015233,3.58792114 16.3679199,3.58792114 C13.9759809,3.58792114 12.3217005,4.53027758 11.4050293,6.41501872 C10.8894017,7.46378596 10.5957849,8.97611605 10.5241699,10.9520543 L6.69995117,10.9520543 C6.69995117,7.66895687 7.57364035,5.02807896 9.32104492,3.02934138 C11.0684495,1.0306038 13.467514,0.03125 16.5183105,0.03125 Z" class="shape"></path><circle cx="16" cy="30" r="2" class="period"></circle></g></g></svg>