<svg width="64px" height="64px" viewBox="0 0 64 64" version="1.1" xmlns="http://www.w3.org/2000/svg" class="icon-question-mark svg-icon"><g fill-rule="evenodd"><g class="quetion-mark"><path d="M32.3398438,0.0625 C37.9831011,0.0625 42.5019362,1.77242095 45.8964844,5.19231415 C49.2910326,8.61220735 50.9882812,12.9820053 50.9882812,18.3018392 C50.9882812,21.5241386 50.3652406,24.1384177 49.1191406,26.144755 C47.8730406,28.1510924 45.3593939,31.0997561 41.578125,34.9908346 C38.8281113,37.8179463 37.044926,40.2118356 36.2285156,42.1725744 C35.4121053,44.1333131 35.0039062,47.0287793 35.0039062,50.8590597 L27.3554688,50.8590597 C27.3554688,46.5119954 27.842443,43.0085574 28.8164062,40.3486404 C29.7903695,37.6887235 31.9244627,34.6412644 35.21875,31.2061717 L38.65625,27.6039022 C39.6875052,26.5703345 40.518226,25.4911843 41.1484375,24.3664195 C42.2942766,22.3904812 42.8671875,20.338576 42.8671875,18.2106425 C42.8671875,15.2315355 42.0293053,12.647655 40.3535156,10.4589233 C38.677726,8.27019169 35.9062693,7.17584229 32.0390625,7.17584229 C27.2551844,7.17584229 23.9466238,9.06055515 22.1132812,12.8300374 C21.0820261,14.9275719 20.4947924,17.9522321 20.3515625,21.9041087 L12.703125,21.9041087 C12.703125,15.3379137 14.4505034,10.0561579 17.9453125,6.05868276 C21.4401216,2.0612076 26.2382507,0.0625 32.3398438,0.0625 Z" class="shape"></path><circle cx="31" cy="60" r="4" class="period"></circle></g></g></svg>