<svg viewBox="0 0 32 32" version="1.1" xmlns="http://www.w3.org/2000/svg"><g fill-rule="evenodd" class="radiation-icon small-icon" id="radiation-small"><path d="M23.9863679,0.13263835 C28.7762955,2.8971682 32,8.07211584 32,14 L24,14 C24,11.0329705 22.384788,8.4431939 19.9856971,7.06200349 L23.9863679,0.13263835 L23.9863679,0.13263835 Z" class="top-right"></path><path d="M0.0128849574,14.0546806 C0.0120742206,8.52421662 2.88185812,3.14493284 8.01555639,0.180990763 L12.0155564,7.10919399 C9.44603343,8.59270877 8.01082715,11.2864117 8.01422661,14.0546806 L0.0128849574,14.0546806 L0.0128849574,14.0546806 Z" class="top-left"></path><path d="M24.0564687,27.8553047 C19.2673518,30.6212388 13.1738634,30.8255749 8.04016514,27.8616328 L12.0401651,20.9334296 C14.6096881,22.4169444 17.6601064,22.313018 20.0557978,20.9259396 L24.0564687,27.8553047 L24.0564687,27.8553047 Z" class="bottom"></path><circle cx="16" cy="14" r="4" class="center"></circle></g></svg>