<svg viewBox="0 0 32 32" version="1.1" xmlns="http://www.w3.org/2000/svg"><g fill-rule="evenodd" class="sun-icon small-icon" id="sun-small"><circle cx="16" cy="16" r="6" class="sun"></circle><path d="M16,0 C15.4477153,0 15,0.453036308 15,0.997030139 L15,7.00296986 C15,7.5536144 15.4438648,8 16,8 C16.5522847,8 17,7.54696369 17,7.00296986 L17,0.997030139 C17,0.446385598 16.5561352,0 16,0 Z M27.3137085,4.6862915 C26.9231842,4.29576721 26.2862567,4.29952976 25.9015949,4.68419149 L21.6547542,8.9310322 C21.2653898,9.32039668 21.2636073,9.94989879 21.6568542,10.3431457 C22.0473785,10.73367 22.6843061,10.7299075 23.0689678,10.3452458 L27.3158085,6.09840505 C27.705173,5.70904056 27.7069555,5.07953845 27.3137085,4.6862915 Z M32,16 C32,15.4477152 31.5469637,15 31.0029699,15 L24.9970301,15 C24.4463856,15 24,15.4438648 24,16 C24,16.5522847 24.4530363,17 24.9970301,17 L31.0029699,17 C31.5536144,17 32,16.5561352 32,16 Z M27.3137085,27.3137085 C27.7042328,26.9231842 27.7004702,26.2862567 27.3158085,25.9015949 L23.0689678,21.6547542 C22.6796033,21.2653897 22.0501012,21.2636073 21.6568543,21.6568542 C21.26633,22.0473785 21.2700925,22.6843061 21.6547542,23.0689678 L25.901595,27.3158085 C26.2909594,27.705173 26.9204615,27.7069554 27.3137085,27.3137085 Z M16,32 C16.5522848,32 17,31.5469637 17,31.0029699 L17,24.9970301 C17,24.4463856 16.5561352,24 16,24 C15.4477153,24 15,24.4530363 15,24.9970301 L15,31.0029699 C15,31.5536144 15.4438648,32 16,32 Z M4.68629151,27.3137085 C5.0768158,27.7042328 5.71374334,27.7004702 6.09840506,27.3158085 L10.3452458,23.0689678 C10.7346103,22.6796033 10.7363927,22.0501012 10.3431458,21.6568543 C9.95262147,21.26633 9.31569393,21.2700925 8.9310322,21.6547542 L4.6841915,25.901595 C4.29482701,26.2909594 4.29304455,26.9204616 4.68629151,27.3137085 Z M-1.8369702e-16,16 C-8.22439572e-17,16.5522848 0.453036308,17 0.997030139,17 L7.00296986,17 C7.5536144,17 8,16.5561352 8,16 C8,15.4477153 7.54696369,15 7.00296986,15 L0.997030139,15 C0.446385598,15 -2.85857395e-16,15.4438648 -1.8369702e-16,16 Z M4.68629149,4.68629151 C4.2957672,5.0768158 4.29952975,5.71374334 4.68419148,6.09840507 L8.93103219,10.3452458 C9.32039668,10.7346103 9.94989878,10.7363927 10.3431457,10.3431458 C10.73367,9.95262147 10.7299075,9.31569393 10.3452457,8.93103221 L6.09840504,4.6841915 C5.70904056,4.29482701 5.07953845,4.29304456 4.68629149,4.68629151 Z" class="rays"></path></g></svg>