<svg version="1.1" xmlns="http://www.w3.org/2000/svg" style="display: none;"><symbol id="atom-small" viewBox="0 0 32 32"><g fill-rule="evenodd" class="atom-icon small-icon"><path d="M30.8492424,30.8492424 C33.9734367,27.7250481 29.8578644,18.5441559 21.6568542,10.3431458 C13.4558441,2.14213562 4.27495193,-1.97343674 1.1507576,1.1507576 C-1.97343674,4.27495193 2.14213562,13.4558441 10.3431458,21.6568542 C18.5441559,29.8578644 27.7250481,33.9734367 30.8492424,30.8492424 Z M28.9930871,28.9930871 C31.3362329,26.6499414 27.4185245,18.9332432 20.2426407,11.7573593 C13.0667568,4.58147545 5.35005865,0.663767145 3.0069129,3.0069129 C0.663767145,5.35005865 4.58147545,13.0667568 11.7573593,20.2426407 C18.9332432,27.4185245 26.6499414,31.3362329 28.9930871,28.9930871 Z" class="axis2"></path><path d="M1.1507576,30.8492424 C4.27495193,33.9734367 13.4558441,29.8578644 21.6568542,21.6568542 C29.8578644,13.4558441 33.9734367,4.27495193 30.8492424,1.1507576 C27.7250481,-1.97343674 18.5441559,2.14213562 10.3431458,10.3431458 C2.14213562,18.5441559 -1.97343674,27.7250481 1.1507576,30.8492424 Z M3.0069129,28.9930871 C5.35005865,31.3362329 13.0667568,27.4185245 20.2426407,20.2426407 C27.4185245,13.0667568 31.3362329,5.35005865 28.9930871,3.0069129 C26.6499414,0.663767145 18.9332432,4.58147545 11.7573593,11.7573593 C4.58147545,18.9332432 0.663767145,26.6499414 3.0069129,28.9930871 Z" class="axis1"></path><circle cx="16" cy="16" r="4" class="center"></circle></g></symbol><symbol id="beginning-small" viewBox="0 0 32 32"><g fill-rule="evenodd" class="beginning-icon small-icon"><path d="M8.49687444,21.9729908 C9.89687442,19.942856 18.9949839,8.77452354 19.496874,8.26958077 C19.8499997,7.91430719 20.1499997,7.91430718 20.496874,8.26958077 C20.9899899,8.77463709 30.1068689,19.942856 31.5068689,21.9729908 C32.9068689,24.0031256 30.9816931,24.0031256 29.9968737,24.0031256 L9.99687443,24.0031256 C8.99687446,24.0031256 7.09687445,24.0031256 8.49687444,21.9729908 Z" transform="translate(20.000000, 16.003126) rotate(-90.000000) translate(-20.000000, -16.003126) " class="arrow"></path><path d="M6,4 C4.8954305,4 4,4.89702623 4,6.00494659 L4,25.9950534 C4,27.1023548 4.88772964,28 6,28 L6,28 C7.1045695,28 8,27.1029738 8,25.9950534 L8,6.00494659 C8,4.89764516 7.11227036,4 6,4 L6,4 Z" class="pipe"></path></g></symbol><symbol id="bomb-small" viewBox="0 0 32 32"><g fill-rule="evenodd" class="bomb-icon small-icon"><rect x="8" y="8" width="6" height="4" class="top"></rect><circle cx="11" cy="19" r="9" class="bomb"></circle><path d="M22.8381267,7.17768896 C22.3194373,7.35575413 21.5164815,7.27946965 21.0353296,7.00191204 L21.3068568,7.15854538 C20.8298888,6.8834013 20.0978578,6.37465295 19.6748805,6.02475609 L19.4311011,5.82309595 C18.5757477,5.11552731 17.0129259,4.33510427 15.9350723,4.07869516 L15.9121183,4.07323467 C14.8366683,3.81739735 13.2622172,4.17639681 12.412956,4.86099749 L11.7789778,5.37205569 C11.3487602,5.71885975 10.7976351,6.40472984 10.5526475,6.89470505 L10,8 L12,8 L12.106556,7.78688802 C12.3529255,7.29414899 12.9090042,6.61846477 13.3413231,6.28334017 L13.1761681,6.41136492 C13.6117416,6.0737174 14.3977452,5.89295867 14.9417774,6.00978088 L15.9217724,6.22021914 C16.4613179,6.33607792 17.2650982,6.69722319 17.7093366,7.02122249 L18.8906841,7.88282243 C19.338383,8.20934558 20.1400054,8.56637871 20.6794291,8.67991437 L20.9984485,8.74706025 C21.5386462,8.86075883 22.4302617,8.96174574 22.9285714,8.97142861 L22.9285714,8.97142861 L22,10 L24,10 L24,12 L26,10 L28.0786791,12 L28.0786791,10 L30,10 L28.0786791,8 L30,6 L28.0786791,6 L28.0786791,4 L26,6 L24,4 L24,6 L22,6 L23.0909092,7.09090915 L22.8381267,7.17768896 Z" class="fuse"></path></g></symbol><symbol id="book-closed-small" viewBox="0 0 33 32"><g fill-rule="evenodd" class="book-closed-icon small-icon"><path d="M24,1.99124431 C24,0.891510444 23.1052949,0 22,0 L24,0 C22.8954305,0 21.106072,0 20.0069327,0 L6.99109042,0 C5.33915679,0 4,1.33425951 4,2.99610022 L4,29.0038998 C4,30.6586002 4,32 6.99109042,32 L26.0045923,32 C27.1066256,32 28,31.1021596 28,30.008383 L28,2.99815369 C28,2.44688863 27.5561352,2 27,2 L27,2 C26.4477153,2 26,2.43981314 26,2.99653482 L26,28.0087557 C26,29.1084896 25.1017876,30 24.0092049,30 L6.99180311,30 C6.44404538,30 6,29.5561352 6,29 L6,29 C6,28.4477153 6.44494629,28 6.99339768,28 L22.0049107,28 C23.1067681,28 24,27.1001025 24,26.0087557 L24,1.99124431 Z" class="shape"></path></g></symbol><symbol id="book-opened-small" viewBox="0 0 32 32"><g fill-rule="evenodd" class="book-opened-icon small-icon"><g transform="translate(0.000000, 4.000000)" class="left"><path d="M8,0 C2,-1.10218212e-15 0,2 0,2 L0,24 C0,24 2,22 8,22 C14,22 16,24 16,24 L16,2 C16,2 14,1.10218214e-15 8,0 Z" class="page"></path><path d="M3.00247329,10 C2.44882258,10 2,10.4438648 2,11 L2,11 C2,11.5522847 2.45576096,12 3.00247329,12 L12.9975267,12 C13.5511774,12 14,11.5561352 14,11 L14,11 C14,10.4477153 13.544239,10 12.9975267,10 L3.00247329,10 Z M3.00247329,4 C2.44882258,4 2,4.44386482 2,5 L2,5 C2,5.55228475 2.45576096,6 3.00247329,6 L12.9975267,6 C13.5511774,6 14,5.55613518 14,5 L14,5 C14,4.44771525 13.544239,4 12.9975267,4 L3.00247329,4 Z M3.00247329,16 C2.44882258,16 2,16.4438648 2,17 L2,17 C2,17.5522847 2.45576096,18 3.00247329,18 L12.9975267,18 C13.5511774,18 14,17.5561352 14,17 L14,17 C14,16.4477153 13.544239,16 12.9975267,16 L3.00247329,16 Z" class="lines foreground-color"></path></g><g transform="translate(16.000000, 4.000000)" class="right"><path d="M8,0 C2,1.19403063e-15 0,2 0,2 L0,24 C0,24 2,22 8,22 C14,22 16,24 16,24 L16,2 C16,2 14,-1.19403058e-15 8,0 Z" class="page"></path><path d="M3.00247329,10 C2.44882258,10 2,10.4438648 2,11 L2,11 C2,11.5522847 2.45576096,12 3.00247329,12 L12.9975267,12 C13.5511774,12 14,11.5561352 14,11 L14,11 C14,10.4477153 13.544239,10 12.9975267,10 L3.00247329,10 Z M3.00247329,4 C2.44882258,4 2,4.44386482 2,5 L2,5 C2,5.55228475 2.45576096,6 3.00247329,6 L12.9975267,6 C13.5511774,6 14,5.55613518 14,5 L14,5 C14,4.44771525 13.544239,4 12.9975267,4 L3.00247329,4 Z M3.00247329,16 C2.44882258,16 2,16.4438648 2,17 L2,17 C2,17.5522847 2.45576096,18 3.00247329,18 L12.9975267,18 C13.5511774,18 14,17.5561352 14,17 L14,17 C14,16.4477153 13.544239,16 12.9975267,16 L3.00247329,16 Z" class="lines foreground-color"></path></g></g></symbol><symbol id="branch-small" viewBox="0 0 32 32"><g fill-rule="evenodd" class="branch-icon small-icon"><path d="M8,7.46487122 L8,24.5351288 L8,24.5351288 C6.80439726,25.2267476 6,26.5194353 6,28 C6,30.209139 7.790861,32 10,32 C12.209139,32 14,30.209139 14,28 C14,26.5194353 13.1956027,25.2267476 12,24.5351288 L12,7.46487122 C13.1956027,6.77325238 14,5.48056471 14,4 C14,1.790861 12.209139,0 10,0 C7.790861,0 6,1.790861 6,4 C6,5.48056471 6.80439726,6.77325238 8,7.46487122 L8,7.46487122 Z M10,30 C11.1045695,30 12,29.1045695 12,28 C12,26.8954305 11.1045695,26 10,26 C8.8954305,26 8,26.8954305 8,28 C8,29.1045695 8.8954305,30 10,30 Z M10,6 C11.1045695,6 12,5.1045695 12,4 C12,2.8954305 11.1045695,2 10,2 C8.8954305,2 8,2.8954305 8,4 C8,5.1045695 8.8954305,6 10,6 Z" class="left-2"></path><path d="M24,7.4648712 L24,15.996669 C24,19.3219597 21.3113319,21.9999999 17.9946916,21.9999999 L11,21.9999999 L11,18.0000006 L17.0031304,18.0000005 C18.6526091,18.0000004 20,16.6581296 20,15.0028481 L20,7.46487124 C18.8043973,6.7732524 18,5.48056473 18,4 C18,1.790861 19.790861,0 22,0 C24.209139,0 26,1.790861 26,4 C26,5.4805647 25.1956028,6.77325235 24,7.4648712 L24,7.4648712 Z M22,6 C23.1045695,6 24,5.1045695 24,4 C24,2.8954305 23.1045695,2 22,2 C20.8954305,2 20,2.8954305 20,4 C20,5.1045695 20.8954305,6 22,6 Z" class="right-2"></path></g></symbol><symbol id="bullseye-small" viewBox="0 0 32 32"><g fill-rule="evenodd" class="bullseye-icon small-icon"><path d="M16,32 C24.836556,32 32,24.836556 32,16 C32,7.163444 24.836556,0 16,0 C7.163444,0 0,7.163444 0,16 C0,24.836556 7.163444,32 16,32 Z M16,28 C22.627417,28 28,22.627417 28,16 C28,9.372583 22.627417,4 16,4 C9.372583,4 4,9.372583 4,16 C4,22.627417 9.372583,28 16,28 Z" class="outer-ring"></path><path d="M16,24 C20.418278,24 24,20.418278 24,16 C24,11.581722 20.418278,8 16,8 C11.581722,8 8,11.581722 8,16 C8,20.418278 11.581722,24 16,24 Z M16,22 C19.3137085,22 22,19.3137085 22,16 C22,12.6862915 19.3137085,10 16,10 C12.6862915,10 10,12.6862915 10,16 C10,19.3137085 12.6862915,22 16,22 Z" class="inner-ring"></path><circle cx="16" cy="16" r="2" class="center"></circle></g></symbol><symbol id="checkmark-small" viewBox="0 0 32 32"><g fill-rule="evenodd" class="checkmark-icon small-icon"><path d="M12.5824882,27.34817 C11.8290216,28.155304 10.5683198,28.1912644 9.76473742,27.4266873 L1.19541438,19.2733127 C0.392680152,18.5095426 0.32428156,17.2186424 1.0503469,16.3811185 L2.49804028,14.7111892 C3.22065596,13.8776446 4.46419636,13.8084496 5.27077786,14.552223 L11.2182162,20.0365376 L26.8187645,3.45189078 C27.5780364,2.64472318 28.8108606,2.64054127 29.5696079,3.43965776 L30.8820046,4.82188064 C31.6419815,5.62229213 31.6510733,6.92137949 30.8937927,7.73259921 L12.5824882,27.34817 Z" class="shape"></path></g></symbol><symbol id="chevron-down-small" viewBox="0 0 32 32"><g fill-rule="evenodd" class="chevron-down-icon small-icon"><path d="M17.469553,6.57583458 C16.6623445,5.82879451 15.3505972,5.83096834 14.5449351,6.57583462 L1.46303757,18.6705631 C0.655024234,19.4176032 -1.60101185e-18,20.9252532 -3.54218601e-18,22.0189645 L-8.70428217e-18,24.9274323 C-1.06605775e-17,26.0296632 0.687842578,26.3345261 1.52042311,25.6219841 L14.4875496,14.5244128 C15.3272561,13.8057722 16.6951301,13.8118708 17.5268813,14.5244128 L30.4810914,25.6219841 C31.3199614,26.3406247 32,26.0211435 32,24.9274322 L32,22.0189642 C32,20.9167332 31.3432793,19.415429 30.5384197,18.6705627 L17.469553,6.57583458 Z" transform="translate(16.000000, 16.011599) rotate(-180.000000) translate(-16.000000, -16.011599) " class="shape"></path></g></symbol><symbol id="chevron-left-small" viewBox="0 0 32 32"><g fill-rule="evenodd" class="chevron-left-icon small-icon"><path d="M17.4579535,6.56423515 C16.6507451,5.81719508 15.3389978,5.81936891 14.5333357,6.56423519 L1.45143815,18.6589637 C0.643424805,19.4060038 -0.0115994291,20.9136538 -0.0115994291,22.007365 L-0.0115994291,24.9158329 C-0.0115994291,26.0180638 0.676243149,26.3229267 1.50882368,25.6103847 L14.4759502,14.5128133 C15.3156567,13.7941728 16.6835307,13.8002714 17.5152819,14.5128133 L30.4694919,25.6103847 C31.308362,26.3290252 31.9884006,26.0095441 31.9884006,24.9158327 L31.9884006,22.0073648 C31.9884006,20.9051338 31.3316799,19.4038296 30.5268203,18.6589633 L17.4579535,6.56423515 Z" transform="translate(15.988401, 16.000000) rotate(-90.000000) translate(-15.988401, -16.000000) " class="shape"></path></g></symbol><symbol id="chevron-right-small" viewBox="0 0 32 32"><g fill-rule="evenodd" class="chevron-right-icon small-icon"><path d="M17.4811524,6.56423515 C16.6739439,5.81719508 15.3621967,5.81936891 14.5565346,6.56423519 L1.474637,18.6589637 C0.666623663,19.4060038 0.0115994291,20.9136538 0.0115994291,22.007365 L0.0115994291,24.9158329 C0.0115994291,26.0180638 0.699442007,26.3229267 1.53202254,25.6103847 L14.499149,14.5128133 C15.3388555,13.7941728 16.7067296,13.8002714 17.5384808,14.5128133 L30.4926908,25.6103847 C31.3315609,26.3290252 32.0115994,26.0095441 32.0115994,24.9158327 L32.0115994,22.0073648 C32.0115994,20.9051338 31.3548788,19.4038296 30.5500192,18.6589633 L17.4811524,6.56423515 Z" transform="translate(16.011599, 16.000000) rotate(90.000000) translate(-16.011599, -16.000000) " class="shape"></path></g></symbol><symbol id="chevron-top-small" viewBox="0 0 32 32"><g fill-rule="evenodd" class="chevron-top-icon small-icon"><path d="M17.469553,6.55263572 C16.6623445,5.80559565 15.3505972,5.80776948 14.5449351,6.55263576 L1.46303757,18.6473643 C0.655024234,19.3944043 0,20.9020544 0,21.9957656 L0,24.9042334 C0,26.0064644 0.687842578,26.3156241 1.52042311,25.6082832 L14.4875496,14.591716 C15.3272561,13.878321 16.6951301,13.8843751 17.5268813,14.591716 L30.4810914,25.6082832 C31.3199614,26.3216782 32,25.9979446 32,24.9042333 L32,21.9957653 C32,20.8935343 31.3432793,19.3922301 30.5384197,18.6473639 L17.469553,6.55263572 Z" class="shape"></path></g></symbol><symbol id="clipboard-small" viewBox="0 0 32 32"><g fill-rule="evenodd" class="clipboard-icon small-icon"><path d="M26,4 L6,4 L6,4 C4.8954305,4 4,5.79412025 4,7.99683887 L4,28.0031611 C4,30.2105543 5.78429328,32 7.99005301,32 L24.009947,32 C26.2135924,32 28,30.2058797 28,28.0031611 L28,7.99683887 C28,5.78944571 26.214035,4 26,4 L26,4 Z" class="board"></path><path d="M26,4 L24,8 L8,8 L6,4 L12,4 C12,1.790861 13.7953562,0 16,0 C18.209139,0 20,1.7874158 20,4.0062447 C20,4.0062447 20,4.20139662 20,4 L26,4 Z M16,3 C16.5522847,3 17,2.55228475 17,2 C17,1.44771525 16.5522847,1 16,1 C15.4477153,1 15,1.44771525 15,2 C15,2.55228475 15.4477153,3 16,3 Z" class="clip alt-color"></path></g></symbol><symbol id="commit-small" viewBox="0 0 32 32"><g fill-rule="evenodd" class="commit-icon small-icon"><rect x="0" y="14" width="10" height="4" class="left"></rect><path d="M16,24 C20.418278,24 24,20.418278 24,16 C24,11.581722 20.418278,8 16,8 C11.581722,8 8,11.581722 8,16 C8,20.418278 11.581722,24 16,24 Z M16,20 C18.209139,20 20,18.209139 20,16 C20,13.790861 18.209139,12 16,12 C13.790861,12 12,13.790861 12,16 C12,18.209139 13.790861,20 16,20 Z" class="circle"></path><rect x="22" y="14" width="10" height="4" class="right"></rect></g></symbol><symbol id="document-code-small" viewBox="0 0 32 32"><g fill-rule="evenodd" class="document-icon document-code-icon small-icon"><polygon points="21.8 0 22 0 28 6 28 6.19999999 21.8 6.19999999 " class="fold alt-color"></polygon><path d="M22,0 L4,0 L4,32 L28,32 L28,6 L22,6 L22,0 Z" class="document"></path><text font-family="Helvetica" font-size="12.6499996" font-weight="normal" class="type-indicator foreground-color"><tspan x="8.30004883" y="23.3999939">{</tspan></text><text font-family="Helvetica" font-size="12.6499996" font-weight="normal" class="type-indicator foreground-color"><tspan x="19.5" y="23.3999939">}</tspan></text></g></symbol><symbol id="document-empty-small" viewBox="0 0 32 32"><g fill-rule="evenodd" class="document-icon document-empty-icon small-icon"><polygon points="21.8 0 22 0 28 6 28 6.19999999 21.8 6.19999999 " class="fold alt-color"></polygon><path d="M22,0 L19,0 L4,0 L4,32 L28,32 L28,6 L22,6 L22,0 Z" class="document"></path></g></symbol><symbol id="document-text-small" viewBox="0 0 32 32"><g fill-rule="evenodd" class="document-icon document-text-icon small-icon"><polygon points="21.8 0 22 0 28 6 28 6.19999999 21.8 6.19999999 " class="fold alt-color"></polygon><path d="M22,0 L4,0 L4,32 L28,32 L28,6 L22,6 L22,0 Z" class="document"></path><path d="M6.99180311,26 C6.44404538,26 6,26.4438648 6,27 L6,27 C6,27.5522847 6.45530558,28 6.99180311,28 L25.0081969,28 C25.5559546,28 26,27.5561352 26,27 L26,27 C26,26.4477153 25.5446944,26 25.0081969,26 L6.99180311,26 Z M6.99180311,20 C6.44404538,20 6,20.4438648 6,21 L6,21 C6,21.5522847 6.45530558,22 6.99180311,22 L25.0081969,22 C25.5559546,22 26,21.5561352 26,21 L26,21 C26,20.4477153 25.5446944,20 25.0081969,20 L6.99180311,20 Z M6.99180311,14 C6.44404538,14 6,14.4438648 6,15 L6,15 C6,15.5522847 6.45530558,16 6.99180311,16 L25.0081969,16 C25.5559546,16 26,15.5561352 26,15 L26,15 C26,14.4477153 25.5446944,14 25.0081969,14 L6.99180311,14 Z M6.99180311,8 C6.44404538,8 6,8.44386482 6,9 L6,9 C6,9.55228475 6.45530558,10 6.99180311,10 L25.0081969,10 C25.5559546,10 26,9.55613518 26,9 L26,9 C26,8.44771525 25.5446944,8 25.0081969,8 L6.99180311,8 Z" class="type-indicator foreground-color"></path></g></symbol><symbol id="documents-code-small" viewBox="0 0 32 32"><g fill-rule="evenodd" class="documents-icon documents-code-icon small-icon"><g transform="translate(4.000000, 4.000000)" class="document-back"><path d="M6,2 L6,0 L0,0 L0,28 L4,28 L20,28 L20,22 L18.0516205,22 L18.0516205,26 L2,26 L2,2 L6,2 Z" class="document-2"></path></g><g transform="translate(8.000000, 0.000000)" class="document-front"><polygon points="15 0 16 0 20.0000002 4 20 5 15 5 " class="fold alt-color"></polygon><path d="M16,0 L0,0 L0,28 L20,28 L20,4 L16,4 L16,0 Z" class="document"></path><text font-family="Helvetica" font-size="12.6499996" font-weight="normal" class="type-indicator foreground-color"><tspan x="11.5" y="21.3999939">}</tspan></text><text font-family="Helvetica" font-size="12.6499996" font-weight="normal" class="type-indicator foreground-color"><tspan x="4.30004883" y="21.3999939">{</tspan></text></g></g></symbol><symbol id="documents-empty-small" viewBox="0 0 32 32"><g fill-rule="evenodd" class="documents-icon documents-empty-icon small-icon"><g transform="translate(4.000000, 4.000000)" class="document-back"><path d="M6,2 L6,0 L0,0 L0,28 L4,28 L20,28 L20,22 L18.0516205,22 L18.0516205,26 L2,26 L2,2 L6,2 Z" class="document"></path></g><g transform="translate(8.000000, 0.000000)" class="document-front"><polygon points="15 0 16 0 20.0000002 4 20.0000002 5 15 5 " class="fold alt-color"></polygon><path d="M16,0 L0,0 L0,28 L20,28 L20,4 L16,4 L16,0 Z" class="document"></path></g></g></symbol><symbol id="documents-text-small" viewBox="0 0 32 32"><g fill-rule="evenodd" class="documents-icon documents-text-icon small-icon"><g transform="translate(4.000000, 4.000000)" class="document-back"><path d="M6,2 L6,0 L0,0 L0,28 L4,28 L20,28 L20,22 L18.0516205,22 L18.0516205,26 L2,26 L2,2 L6,2 Z" class="document-2"></path></g><g transform="translate(8.000000, 0.000000)" class="document-front"><polygon points="15 0 16 0 20.0000002 4 20.0000002 5 15 5 " class="fold alt-color"></polygon><path d="M16,0 L0,0 L0,28 L20,28 L20,4 L16,4 L16,0 Z" class="document"></path><path d="M3.00087166,6 C2.4481055,6 2,6.44386482 2,7 C2,7.55228475 2.44463086,8 3.00087166,8 L16.9991283,8 C17.5518945,8 18,7.55613518 18,7 C18,6.44771525 17.5553691,6 16.9991283,6 L3.00087166,6 Z M3.00087166,24 C2.4481055,24 2,24.4438648 2,25 C2,25.5522847 2.44463086,26 3.00087166,26 L16.9991283,26 C17.5518945,26 18,25.5561352 18,25 C18,24.4477153 17.5553691,24 16.9991283,24 L3.00087166,24 Z M3.00087166,18 C2.4481055,18 2,18.4438648 2,19 C2,19.5522847 2.44463086,20 3.00087166,20 L16.9991283,20 C17.5518945,20 18,19.5561352 18,19 C18,18.4477153 17.5553691,18 16.9991283,18 L3.00087166,18 Z M3.00087166,12 C2.4481055,12 2,12.4438648 2,13 C2,13.5522847 2.44463086,14 3.00087166,14 L16.9991283,14 C17.5518945,14 18,13.5561352 18,13 C18,12.4477153 17.5553691,12 16.9991283,12 L3.00087166,12 Z" class="type-indicator foreground-color"></path></g></g></symbol><symbol id="door-enter-small" viewBox="0 0 32 32"><g fill-rule="evenodd" class="door-enter-icon small-icon"><path d="M3.50614755e-08,0 L28,0 L28,10 L26,10 L26,2 L2.00000004,2 L2.00000004,26 L26,26 L26,18 L28,18 L28,28 L3.50614755e-08,28 L3.50614755e-08,0 Z" class="door-frame"></path><path d="M1.5,2 L1.5,27.7142857 L16,32 L16,6.28571429 L1.5,2 Z" class="door"></path><path d="M24,12 L24,8 L18,14 L24,20 L24,16 L31.9500122,16 L31.9500122,12 L22,12 L24,12 Z" class="arrow"></path></g></symbol><symbol id="door-exit-small" viewBox="0 0 32 32"><g fill-rule="evenodd" class="door-exit-icon small-icon"><path d="M3.50614755e-08,0 L24.0055142,0 L24.0055142,10 L22,10 L22,2 L2.00000004,2 L2.00000004,26 L22,26 L22,18 L24.0055142,18 L24.0055142,28 L3.50614755e-08,28 L3.50614755e-08,0 Z" class="door-frame"></path><path d="M1.5,2 L1.5,27.7142857 L16,32 L16,6.28571429 L1.5,2 Z" class="door"></path><path d="M26,20 L32,14 L26,8 L26,12 L18.0499878,12 L18.0499878,16 L26,16 L26,20 Z" class="arrow"></path></g></symbol><symbol id="end-small" viewBox="0 0 32 32"><g fill-rule="evenodd" class="end-icon small-icon"><path d="M0.496874437,21.9729908 C1.89687442,19.942856 10.9949839,8.77452354 11.496874,8.26958077 C11.8499997,7.91430719 12.1499997,7.91430718 12.496874,8.26958077 C12.9899899,8.77463709 22.1068689,19.942856 23.5068689,21.9729908 C24.9068689,24.0031256 22.9816931,24.0031256 21.9968737,24.0031256 L1.99687443,24.0031256 C0.996874464,24.0031256 -0.903125551,24.0031256 0.496874437,21.9729908 Z" transform="translate(12.000000, 16.003126) rotate(90.000000) translate(-12.000000, -16.003126) " class="arrow"></path><path d="M26,4 C24.8954305,4 24,4.89702623 24,6.00494659 L24,25.9950534 C24,27.1023548 24.8877296,28 26,28 L26,28 C27.1045695,28 28,27.1029738 28,25.9950534 L28,6.00494659 C28,4.89764516 27.1122704,4 26,4 L26,4 Z" class="pipe"></path></g></symbol><symbol id="eye-small" viewBox="0 0 32 32"><g fill-rule="evenodd" class="eye-icon small-icon"><path d="M16,26 C24.836556,26 30,20 32,16 C30,12 24.836556,6 16,6 C7.163444,6 2,12 0,16 C2,20 7.163444,26 16,26 Z M16,23 C22.627417,23 26.5,19.5 28,16 C26.5,12.5 22.627417,9 16,9 C9.372583,9 5.5,12.5 4,16 C5.5,19.5 9.372583,23 16,23 Z" class="outer"></path><circle cx="16" cy="16" r="4" class="center"></circle></g></symbol><symbol id="flip-horizontal-small" viewBox="0 0 32 32"><g fill-rule="evenodd" class="flip-horizontal-icon small-icon"><polygon points="14 4 14 28 0 28 " class="left"></polygon><polygon transform="translate(25.000000, 16.000000) scale(-1, 1) translate(-25.000000, -16.000000) " points="32 4 32 28 18 28 " class="right"></polygon></g></symbol><symbol id="flip-vertical-small" viewBox="0 0 32 32"><g fill-rule="evenodd" class="flip-vertical-icon small-icon"><polygon transform="translate(16.000000, 7.000000) rotate(90.000000) translate(-16.000000, -7.000000) " points="23 -5 23 19 9 19 " class="top"></polygon><polygon transform="translate(16.000000, 25.000000) scale(-1, 1) rotate(-90.000000) translate(-16.000000, -25.000000) " points="23 13 23 37 9 37 " class="bottom"></polygon></g></symbol><symbol id="folder-closed-small" viewBox="0 0 32 32"><g fill-rule="evenodd" class="folder-closed-icon small-icon"><path d="M4.0085302,4 C2.8992496,4 2,4.89826062 2,5.99791312 L2,10 L14,10 L14,5.99791312 C14,4.89449617 13.0980496,4 11.9914698,4 L4.0085302,4 Z" class="back"></path><rect x="2" y="8" width="28" height="20" class="front"></rect></g></symbol><symbol id="folder-empty-small" viewBox="0 0 32 32"><g fill-rule="evenodd" class="folder-empty-icon small-icon"><path d="M14,8 C13.9690585,8 13.9884424,5.98828131 13.9884424,5.98828131 C13.9948255,4.89018386 13.0980496,4 11.9914698,4 L4.0085302,4 C2.8992496,4 2,4.88670635 2,5.99810135 L2,12 L30,12 L30,10 C30,8.8954305 29.1004379,8 27.9900693,8 L14,8 Z" class="back alt-color"></path><path d="M2.00174332,12 C0.89621101,12 0.11037752,12.8830202 0.249257535,13.9940603 L1.75074247,26.0059397 C1.8884036,27.1072288 2.89989752,28 3.99124431,28 L28.0087557,28 C29.1084896,28 30.1103775,27.1169798 30.2492575,26.0059397 L31.7507425,13.9940603 C31.8884036,12.8927712 31.1107383,12 29.9982567,12 L2.00174332,12 Z" class="front"></path></g></symbol><symbol id="forward-small" viewBox="0 0 32 32"><g fill-rule="evenodd" class="forward-icon small-icon"><path d="M12.4968744,21.9729908 C13.8968744,19.942856 22.9949839,8.77452354 23.496874,8.26958077 C23.8499997,7.91430719 24.1499997,7.91430718 24.496874,8.26958077 C24.9899899,8.77463709 34.1068689,19.942856 35.5068689,21.9729908 C36.9068689,24.0031256 34.9816931,24.0031256 33.9968737,24.0031256 L13.9968744,24.0031256 C12.9968745,24.0031256 11.0968744,24.0031256 12.4968744,21.9729908 Z" transform="translate(24.000000, 16.003126) rotate(90.000000) translate(-24.000000, -16.003126) " class="arrow-right"></path><path d="M-3.50312556,21.9729908 C-2.10312558,19.942856 6.99498393,8.77452354 7.496874,8.26958077 C7.84999972,7.91430719 8.14999973,7.91430718 8.496874,8.26958077 C8.98998987,8.77463709 18.1068689,19.942856 19.5068689,21.9729908 C20.9068689,24.0031256 18.9816931,24.0031256 17.9968737,24.0031256 L-2.00312557,24.0031256 C-3.00312554,24.0031256 -4.90312555,24.0031256 -3.50312556,21.9729908 Z" transform="translate(8.000000, 16.003126) rotate(90.000000) translate(-8.000000, -16.003126) " class="arrow-left"></path></g></symbol><symbol id="gear-small" viewBox="0 0 32 32"><g fill-rule="evenodd" class="gear-icon small-icon"><path d="M13.0083305,0.932649943 C13.0083305,2.14367171 13.0083305,5.0083305 13.0083305,5.0083305 L19,5.0083305 C19,5.0083305 19,2.18629576 19,0.932649943 C19,-0.320995875 13.0083305,-0.278371824 13.0083305,0.932649943 Z M24.5571672,3.23450396 C23.7008455,4.09082566 21.6752258,6.11644532 21.6752258,6.11644532 L25.9119759,10.3531954 C25.9119759,10.3531954 27.9074559,8.35771555 28.7939173,7.47125409 C29.6803788,6.58479262 25.4134889,2.37818226 24.5571672,3.23450396 Z M31.0957713,13.0284213 C29.8847496,13.0284213 27.0200908,13.0284213 27.0200908,13.0284213 L27.0200908,19.0200908 C27.0200908,19.0200908 29.8421255,19.0200908 31.0957713,19.0200908 C32.3494171,19.0200908 32.3067931,13.0284213 31.0957713,13.0284213 Z M28.7939173,24.577258 C27.9375956,23.7209362 25.911976,21.6953166 25.911976,21.6953166 L21.6752258,25.9320667 C21.6752258,25.9320667 23.6707057,27.9275466 24.5571672,28.8140081 C25.4436287,29.7004695 29.650239,25.4335797 28.7939173,24.577258 Z M19,31.1158621 C19,29.9048403 19,27.0401815 19,27.0401815 L13.0083305,27.0401815 C13.0083305,27.0401815 13.0083305,29.8622163 13.0083305,31.1158621 C13.0083305,32.3695079 19,32.3268839 19,31.1158621 Z M7.45116332,28.8140081 C8.30748503,27.9576864 10.3331047,25.9320667 10.3331047,25.9320667 L6.09635457,21.6953166 C6.09635457,21.6953166 4.10087465,23.6907965 3.2144132,24.577258 C2.32795175,25.4637194 6.59484162,29.6703298 7.45116332,28.8140081 Z M0.912559173,19.0200908 C2.12358094,19.0200908 4.98823973,19.0200908 4.98823973,19.0200908 L4.98823973,13.0284213 C4.98823973,13.0284213 2.16620499,13.0284213 0.912559173,13.0284213 C-0.341086645,13.0284213 -0.298462594,19.0200908 0.912559173,19.0200908 Z M3.21441318,7.4712541 C4.07073488,8.3275758 6.09635454,10.3531955 6.09635454,10.3531955 L10.3331047,6.11644534 C10.3331047,6.11644534 8.33762477,4.12096542 7.45116331,3.23450397 C6.56470184,2.34804252 2.35809148,6.61493239 3.21441318,7.4712541 Z" class="gears"></path><path d="M16,28 C22.627417,28 28,22.627417 28,16 C28,9.372583 22.627417,4 16,4 C9.372583,4 4,9.372583 4,16 C4,22.627417 9.372583,28 16,28 Z M21,16 C21,13.2385763 18.7614237,11 16,11 C13.2385763,11 11,13.2385763 11,16 C11,18.7614237 13.2385763,21 16,21 C18.7614237,21 21,18.7614237 21,16 Z" class="gear-body outer"></path></g></symbol><symbol id="gears-small" viewBox="0 0 32 32"><g fill-rule="evenodd" class="gears-icon small-icon"><g transform="translate(-0.500000, 0.000000)" class="gear-bottom"><path d="M9.50000001,0.739455553 C9.5,1.70827297 9.5,4 9.5,4 L13.5,4 C13.5,4 13.5,1.74237221 13.5,0.739455553 C13.5,-0.263461101 9.50000001,-0.229361861 9.50000001,0.739455553 Z M17.3577251,2.33737762 C16.6726678,3.02243498 15.052172,4.6429307 15.052172,4.6429307 L17.8805991,7.47135782 C17.8805991,7.47135782 19.4769831,5.87497391 20.1861522,5.16580474 C20.8953214,4.45663557 18.0427825,1.65232026 17.3577251,2.33737762 Z M21.7840743,9.02352986 C20.8152569,9.02352986 18.5235299,9.02352985 18.5235299,9.02352985 L18.5235299,13.0235298 C18.5235299,13.0235298 20.7811576,13.0235299 21.7840743,13.0235299 C22.786991,13.0235298 22.7528917,9.02352986 21.7840743,9.02352986 Z M20.1861522,16.881255 C19.5010949,16.1961976 17.8805992,14.5757019 17.8805992,14.5757019 L15.052172,17.404129 C15.052172,17.404129 16.6485559,19.0005129 17.3577251,19.7096821 C18.0668943,20.4188513 20.8712096,17.5663123 20.1861522,16.881255 Z M13.5,21.3076042 C13.5,20.3387867 13.5,18.0470597 13.5,18.0470597 L9.50000001,18.0470597 C9.50000001,18.0470597 9.5,20.3046875 9.50000001,21.3076042 C9.50000001,22.3105208 13.5,22.2764216 13.5,21.3076042 Z M5.64227489,19.7096821 C6.32733225,19.0246247 7.94782798,17.404129 7.94782798,17.404129 L5.11940086,14.5757019 C5.11940086,14.5757019 3.52301693,16.1720858 2.81384777,16.881255 C2.1046786,17.5904241 4.95721752,20.3947395 5.64227489,19.7096821 Z M1.2159257,13.0235299 C2.18474311,13.0235299 4.47647014,13.0235299 4.47647014,13.0235299 L4.47647014,9.02352987 C4.47647014,9.02352987 2.21884235,9.02352986 1.2159257,9.02352987 C0.213009043,9.02352987 0.247108283,13.0235299 1.2159257,13.0235299 Z M2.81384776,5.16580474 C3.49890512,5.85086211 5.11940084,7.47135784 5.11940084,7.47135784 L7.94782796,4.64293072 C7.94782796,4.64293072 6.35144405,3.04654679 5.64227488,2.33737762 C4.9331057,1.62820846 2.12879039,4.48074738 2.81384776,5.16580474 Z" class="gears"></path><path d="M19.375,10.5 C19.375,6.1507576 15.8492424,2.625 11.5,2.625 C7.1507576,2.625 3.625,6.1507576 3.625,10.5 C3.625,14.8492424 7.1507576,18.375 11.5,18.375 C15.8492424,18.375 19.375,14.8492424 19.375,10.5 Z M15.625,10.625 C15.625,8.415861 13.834139,6.625 11.625,6.625 C9.415861,6.625 7.625,8.415861 7.625,10.625 C7.625,12.834139 9.415861,14.625 11.625,14.625 C13.834139,14.625 15.625,12.834139 15.625,10.625 Z" class="gear-body outer"></path></g><g transform="translate(24.716921, 24.720473) rotate(-21.000000) translate(-24.716921, -24.720473) translate(16.866921, 17.211778)" class="gear-bottom-2"><path d="M6.48478253,0.504758784 C6.48478253,1.16608197 6.48478253,2.73043475 6.48478253,2.73043475 L9.21521727,2.73043475 C9.21521727,2.73043475 9.21521728,1.1893584 9.21521728,0.504758784 C9.21521727,-0.179840836 6.48478254,-0.156564399 6.48478253,0.504758784 Z M11.848534,1.59551427 C11.3809079,2.06314037 10.2747434,3.16930483 10.2747434,3.16930483 L12.2054523,5.10001376 C12.2054523,5.10001376 13.2951579,4.01030823 13.7792429,3.52622319 C14.2633279,3.04213815 12.3161601,1.12788816 11.848534,1.59551427 Z M14.8699984,6.15953987 C14.2086752,6.15953987 12.6443224,6.15953987 12.6443224,6.15953987 L12.6443224,8.88997461 C12.6443224,8.88997461 14.1853987,8.88997462 14.8699984,8.88997462 C15.554598,8.88997461 15.5313215,6.15953987 14.8699984,6.15953987 Z M13.7792429,11.5232913 C13.3116168,11.0556652 12.2054523,9.94950073 12.2054523,9.94950073 L10.2747434,11.8802097 C10.2747434,11.8802097 11.3644489,12.9699152 11.848534,13.4540002 C12.332619,13.9380853 14.246869,11.9909174 13.7792429,11.5232913 Z M9.21521728,14.5447557 C9.21521728,13.8834325 9.21521728,12.3190797 9.21521728,12.3190797 L6.48478254,12.3190797 C6.48478254,12.3190797 6.48478253,13.8601561 6.48478254,14.5447557 C6.48478254,15.2293553 9.21521728,15.2060789 9.21521728,14.5447557 Z M3.85146585,13.4540002 C4.31909196,12.9863741 5.42525642,11.8802097 5.42525642,11.8802097 L3.4945475,9.94950074 C3.4945475,9.94950074 2.40484196,11.0392063 1.92075693,11.5232913 C1.4366719,12.0073763 3.38383975,13.9216263 3.85146585,13.4540002 Z M0.830001444,8.88997462 C1.49132463,8.88997462 3.05567741,8.88997463 3.05567741,8.88997463 L3.05567741,6.15953988 C3.05567741,6.15953988 1.51460106,6.15953987 0.830001444,6.15953988 C0.145401823,6.15953988 0.168678261,8.88997462 0.830001444,8.88997462 Z M1.92075692,3.5262232 C2.38838303,3.9938493 3.49454749,5.10001377 3.49454749,5.10001377 L5.42525641,3.16930484 C5.42525641,3.16930484 4.33555088,2.0795993 3.85146585,1.59551427 C3.36738081,1.11142924 1.45313082,3.05859709 1.92075692,3.5262232 Z" class="gears"></path><path d="M13.2255433,7.16739122 C13.2255433,4.19856057 10.8188306,1.7918478 7.8499999,1.7918478 C4.88116926,1.7918478 2.47445649,4.19856057 2.47445649,7.16739122 C2.47445649,10.1362219 4.88116926,12.5429346 7.8499999,12.5429346 C10.8188306,12.5429346 13.2255433,10.1362219 13.2255433,7.16739122 Z M10.6657607,7.2527173 C10.6657607,5.74473983 9.44330346,4.52228255 7.93532599,4.52228255 C6.42734852,4.52228255 5.20489124,5.74473983 5.20489124,7.2527173 C5.20489124,8.76069478 6.42734852,9.98315205 7.93532599,9.98315205 C9.44330346,9.98315205 10.6657607,8.76069478 10.6657607,7.2527173 Z" class="gear-body outer"></path></g></g></symbol><symbol id="inbox-small" viewBox="0 0 32 32"><g fill-rule="evenodd" class="inbox-icon small-icon"><path d="M2.00174332,0 C0.896211009,0 -1.19671257e-09,0.889261723 -1.15391929e-09,2.00174332 L-7.6991193e-11,29.9982567 C-3.4465226e-11,31.103789 0.889261723,32 2.00174332,32 L29.9982567,32 C31.103789,32 32,31.1107383 32,29.9982567 L32,2.00174332 C32,0.89621101 31.1107383,0 29.9982567,0 L2.00174332,0 Z M4,4 L4,22 L8.00208688,22 C9.10550383,22 10,22.8877296 10,24 L10,26 L22,26 L22,24 C22,22.8954305 22.8982606,22 23.9979131,22 L28,22 L28,4 L4,4 Z" class="shape"></path></g></symbol><symbol id="info-small" viewBox="0 0 32 32"><g fill-rule="evenodd" class="info-icon small-icon"><path d="M11.5,6.91964286 C10,7.50000003 9.00000001,8.81249997 10,8.33928571 C11,7.86607145 11.0271342,8.06771806 11.0271342,8.06771806 C12.6690027,7.95225619 14,9.20832868 14,10.8673619 L13.9999998,30.0038745 C13.9999998,31.1063047 14.8750719,31.8472238 15.9683003,31.6462827 C15.9683003,31.6462827 18.9999996,31.1607168 20.4999998,30.580358 C21.9999999,29.9999993 22.9999998,28.6875009 21.9999998,29.1607152 C20.9999998,29.6339294 19.9787832,29.6179836 19.9787832,29.6179836 C18.8859314,29.7232639 18,28.9146249 18,27.7986538 L17.9999998,7.50995674 C17.9999998,6.3998883 17.1186054,5.65273757 16.0270814,5.85238925 C16.0270814,5.85238925 13.0366796,6.32509416 11.5,6.91964286 Z" class="shape"></path><circle cx="16" cy="2" r="2" class="period"></circle></g></symbol><symbol id="key-small" viewBox="0 0 32 32"><g fill-rule="evenodd" class="key-icon small-icon"><g transform="translate(-3.000000, 0.000000)"><path d="M3.30761182,18.2573592 L-0.935029029,22.5000001 L1.89339805,25.3284269 L3.30761194,23.9142133 L6.13603878,26.7426402 L8.9644661,23.9142134 L11.7928934,26.7426402 L14.6213198,23.9142134 L17.449748,26.7426402 L25.935029,26.7426402 L25.935029,18.2573592 L3.30761182,18.2573592 Z" transform="translate(12.500000, 22.500000) rotate(-45.000000) translate(-12.500000, -22.500000) " class="key"></path><path d="M26,18 C30.9705627,18 35,13.9705627 35,9 C35,4.02943725 30.9705627,0 26,0 C21.0294373,0 17,4.02943725 17,9 C17,13.9705627 21.0294373,18 26,18 Z M25,4 C24.4477153,4.55228475 24.4509752,5.45097518 25.0042651,6.0042651 L28.9957349,9.9957349 C29.5503752,10.5503752 30.4438648,10.5561352 31,10 C31.5522847,9.44771525 31.5490248,8.54902482 30.9957349,7.9957349 L27.0042651,4.0042651 C26.4496248,3.4496248 25.5561352,3.44386482 25,4 Z" class="head"></path></g></g></symbol><symbol id="magnifier-small" viewBox="0 0 32 32"><g fill-rule="evenodd" class="magnifier-icon small-icon"><path d="M18.095902,22.3385427 C16.3093623,23.3942118 14.2254258,24 12,24 C5.372583,24 0,18.627417 0,12 C0,5.372583 5.372583,0 12,0 C18.627417,0 24,5.372583 24,12 C24,14.2254258 23.3942118,16.3093623 22.3385427,18.095902 L31.1044717,26.861831 C32.273137,28.0304963 32.2715599,29.9284142 31.099987,31.099987 C29.9307981,32.269176 28.0309271,32.2735677 26.861831,31.1044717 L18.095902,22.3385427 L18.095902,22.3385427 Z M12,20 C16.418278,20 20,16.418278 20,12 C20,7.581722 16.418278,4 12,4 C7.581722,4 4,7.581722 4,12 C4,16.418278 7.581722,20 12,20 Z" class="shape"></path></g></symbol><symbol id="merge-small" viewBox="0 0 32 32"><g fill-rule="evenodd" class="merge-icon small-icon"><path d="M6,7.46487122 L6,24.5351288 L6,24.5351288 C4.80439726,25.2267476 4,26.5194353 4,28 C4,30.209139 5.790861,32 8,32 C10.209139,32 12,30.209139 12,28 C12,26.5194353 11.1956027,25.2267476 10,24.5351288 L10,7.46487122 C11.1956027,6.77325238 12,5.48056471 12,4 C12,1.790861 10.209139,0 8,0 C5.790861,0 4,1.790861 4,4 C4,5.48056471 4.80439726,6.77325238 6,7.46487122 L6,7.46487122 Z M8,30 C9.1045695,30 10,29.1045695 10,28 C10,26.8954305 9.1045695,26 8,26 C6.8954305,26 6,26.8954305 6,28 C6,29.1045695 6.8954305,30 8,30 Z M8,6 C9.1045695,6 10,5.1045695 10,4 C10,2.8954305 9.1045695,2 8,2 C6.8954305,2 6,2.8954305 6,4 C6,5.1045695 6.8954305,6 8,6 Z" class="left"></path><path d="M26.0000004,24.535129 L26.0000004,8.00670248 C26.0000004,4.68475769 23.3128588,1.99999997 19.9981015,1.99999996 L18,1.99999996 L17.9999999,0.999999977 C17.9999999,0.44386481 17.6264825,0.249011552 17.1657256,0.556182871 L13.6713344,2.88577706 C12.7477726,3.50148501 12.7482819,4.49885473 13.6713345,5.11422311 L17.1657257,7.44381727 C17.6246732,7.74978222 18,7.55228489 18,7.00000014 L18,6.00000014 L19.0093689,6.00000013 C20.6569304,6.00000011 22,7.33915688 22,8.99109051 L22,24.5351288 C20.8043972,25.2267476 20,26.5194353 20,28 C20,30.209139 21.790861,32 24,32 C26.209139,32 28,30.209139 28,28 C28,26.5194355 27.1956029,25.2267479 26.0000004,24.535129 L26.0000004,24.535129 Z M24,30 C25.1045695,30 26,29.1045695 26,28 C26,26.8954305 25.1045695,26 24,26 C22.8954305,26 22,26.8954305 22,28 C22,29.1045695 22.8954305,30 24,30 Z" class="right"></path></g></symbol><symbol id="minus-small" viewBox="0 0 32 32"><g fill-rule="evenodd" class="minus-icon small-icon"><path d="M2.00174332,12 C0.89621101,12 -1.77635684e-15,12.8867064 -1.77635684e-15,13.9981014 L-1.77635684e-15,18.0018986 C-1.77635684e-15,19.1054196 0.889261723,20 2.00174332,20 L29.9982567,20 C31.103789,20 32,19.1132936 32,18.0018986 L32,13.9981014 C32,12.8945804 31.1107383,12 29.9982567,12 L2.00174332,12 Z" class="shape"></path></g></symbol><symbol id="paper-clip-small" viewBox="0 0 32 32"><g fill-rule="evenodd" class="paper-clip-icon small-icon"><path d="M18,9.99406028 C18,8.8927712 17.1122704,8 16,8 L16,8 C14.8954305,8 14,8.89294959 14,9.99679237 L14,17.2163265 L14,26.0084482 C14,28.2129214 15.7953562,30 18,30 L18,30 C20.209139,30 22,28.2058797 22,26.0031611 L22,8.00670248 C22,4.6892923 19.3069658,2 16,2 L16,2 C12.6862915,2 10.0000001,4.68662575 10,7.99706188 L10,22.9975383 C10,23.5511826 9.55613518,24 9,24 L9,24 C8.44771525,24 8,23.5525308 8,22.9993054 L8.00000004,7.99165249 C8.00000005,3.57798469 11.5907124,0 16,0 L16,0 C20.418278,0 24,3.57766074 24,7.99240541 L24,25.9998243 C24,29.3136299 21.3069658,32 18,32 L18,32 C14.6862915,32 12,29.3154714 12,26.0024287 L12,10.0055203 C12,7.7933325 13.7953562,6 16,6 L16,6 C18.209139,6 20,7.79171562 20,9.9947834 L20,23.0066023 C20,23.5552407 19.5561352,24 19,24 L19,24 C18.4477153,24 18,23.5553691 18,22.9991283 L18,9.99406028 Z" class="shape"></path></g></symbol><symbol id="pause-small" viewBox="0 0 32 32"><g fill-rule="evenodd" class="pause-icon small-icon"><path d="M20,4 C18.8954305,4 18,4.89702623 18,6.00494659 L18,25.9950534 C18,27.1023548 18.8877296,28 20,28 L20,28 C21.1045695,28 22,27.1029738 22,25.9950534 L22,6.00494659 C22,4.89764516 21.1122704,4 20,4 L20,4 Z" class="pipe-right"></path><path d="M12,4 C10.8954305,4 10,4.89702623 10,6.00494659 L10,25.9950534 C10,27.1023548 10.8877296,28 12,28 L12,28 C13.1045695,28 14,27.1029738 14,25.9950534 L14,6.00494659 C14,4.89764516 13.1122704,4 12,4 L12,4 Z" class="pipe-left"></path></g></symbol><symbol id="pie-small" viewBox="0 0 32 32"><g fill-rule="evenodd" class="pie-chart-icon small-icon"><path d="M14,0 C6.2680135,0 0,6.2680135 0,14 L14,14 L14,0 L14,0 Z" class="small-piece"></path><path d="M32,17 C32,25.2842712 25.2842712,32 17,32 C8.71572875,32 2,25.2842712 2,17 L2,16 L16,16 L16,2 L17,2 C25.2842712,2 32,8.71572875 32,17 Z" class="big-piece"></path></g></symbol><symbol id="play-small" viewBox="0 0 32 32"><g fill-rule="evenodd" class="play-icon small-icon"><path d="M4.49687444,21.9729908 C5.89687442,19.942856 14.9949839,8.77452354 15.496874,8.26958077 C15.8499997,7.91430719 16.1499997,7.91430718 16.496874,8.26958077 C16.9899899,8.77463709 26.1068689,19.942856 27.5068689,21.9729908 C28.9068689,24.0031256 26.9816931,24.0031256 25.9968737,24.0031256 L5.99687443,24.0031256 C4.99687446,24.0031256 3.09687445,24.0031256 4.49687444,21.9729908 Z" transform="translate(16.000000, 16.003126) rotate(90.000000) translate(-16.000000, -16.003126) " class="shape"></path></g></symbol><symbol id="plus-small" viewBox="0 0 32 32"><g fill-rule="evenodd" class="plus-icon small-icon"><path d="M2.0085302,20 C0.899249601,20 0,19.1132936 0,18.0018986 L0,13.9981014 C0,12.8945804 0.901950359,12 2.0085302,12 L12,12 L12,2.0085302 C12,0.899249601 12.8867064,0 13.9981014,0 L18.0018986,0 C19.1054196,0 20,0.889582081 20,2.00825226 L20,11 L20,12 L29.9914698,12 C31.1007504,12 32,12.8867064 32,13.9981014 L32,18.0018986 C32,19.1054196 31.0980496,20 29.9914698,20 L20,20 L20,29.9914698 C20,31.1007504 19.1132936,32 18.0018986,32 L13.9981014,32 C12.8945804,32 12,31.0980496 12,29.9914698 L12,20 L2.0085302,20 Z" class="shape"></path></g></symbol><symbol id="question-mark-small" viewBox="0 0 32 32"><g fill-rule="evenodd" class="question-mark-icon small-icon"><path d="M16.5183105,0.03125 C19.3399392,0.03125 21.5993567,0.886210475 23.2966309,2.59615707 C24.993905,4.30610367 25.8425293,6.49100266 25.8425293,9.1509196 C25.8425293,10.7620693 25.531009,12.0692089 24.907959,13.0723775 C24.284909,14.0755462 23.0280856,15.549878 21.1374512,17.4954173 C19.7624443,18.9089731 18.8708517,20.1059178 18.4626465,21.0862872 C18.0544413,22.0666566 18.0500488,23.5143947 18.0500488,25.4295349 L14.026123,25.4295298 C14.026123,23.2559977 14.2696102,21.5042787 14.7565918,20.1743202 C15.2435734,18.8443618 16.31062,17.3206322 17.9577637,15.6030858 L19.6765137,13.8019511 C20.1921412,13.2851672 20.6075017,12.7455922 20.9226074,12.1832097 C21.495527,11.1952406 21.7819824,10.169288 21.7819824,9.10532125 C21.7819824,7.61576777 21.3630413,6.32382749 20.5251465,5.22946167 C19.6872517,4.13509585 18.3015233,3.58792114 16.3679199,3.58792114 C13.9759809,3.58792114 12.3217005,4.53027758 11.4050293,6.41501872 C10.8894017,7.46378596 10.5957849,8.97611605 10.5241699,10.9520543 L6.69995117,10.9520543 C6.69995117,7.66895687 7.57364035,5.02807896 9.32104492,3.02934138 C11.0684495,1.0306038 13.467514,0.03125 16.5183105,0.03125 Z" class="shape"></path><circle cx="16" cy="30" r="2" class="period"></circle></g></symbol><symbol id="record-small" viewBox="0 0 32 32"><g fill-rule="evenodd" class="record-icon small-icon"><path d="M16,28 C22.627417,28 28,22.627417 28,16 C28,9.372583 22.627417,4 16,4 C9.372583,4 4,9.372583 4,16 C4,22.627417 9.372583,28 16,28 Z" class="shape"></path></g></symbol><symbol id="reverse-small" viewBox="0 0 32 32"><g fill-rule="evenodd" class="reverse-icon small-icon"><path d="M12.4968744,21.9729908 C13.8968744,19.942856 22.9949839,8.77452354 23.496874,8.26958077 C23.8499997,7.91430719 24.1499997,7.91430718 24.496874,8.26958077 C24.9899899,8.77463709 34.1068689,19.942856 35.5068689,21.9729908 C36.9068689,24.0031256 34.9816931,24.0031256 33.9968737,24.0031256 L13.9968744,24.0031256 C12.9968745,24.0031256 11.0968744,24.0031256 12.4968744,21.9729908 Z" transform="translate(24.000000, 16.003126) rotate(-90.000000) translate(-24.000000, -16.003126) " class="arrow-right"></path><path d="M-3.50312556,21.9729908 C-2.10312558,19.942856 6.99498393,8.77452354 7.496874,8.26958077 C7.84999972,7.91430719 8.14999973,7.91430718 8.496874,8.26958077 C8.98998987,8.77463709 18.1068689,19.942856 19.5068689,21.9729908 C20.9068689,24.0031256 18.9816931,24.0031256 17.9968737,24.0031256 L-2.00312557,24.0031256 C-3.00312554,24.0031256 -4.90312555,24.0031256 -3.50312556,21.9729908 Z" transform="translate(8.000000, 16.003126) rotate(-90.000000) translate(-8.000000, -16.003126) " class="arrow-left"></path></g></symbol><symbol id="rss-small" viewBox="0 0 32 32"><g fill-rule="evenodd" class="rss-icon small-icon"><g transform="translate(-1.000000, 0.000000)"><path d="M33,32 C33,14.326888 18.673112,0 1,0 L1,0 L1,6 C15.3594035,6 27,17.6405965 27,32 L33,32 L33,32 Z" class="Oval-39"></path><path d="M21,32 C21,20.954305 12.045695,12 1,12 L1,12 L1,18 C8.7319865,18 15,24.2680135 15,32 L21,32 L21,32 Z" class="Oval-41"></path><circle cx="5" cy="28" r="4" class="Oval-39"></circle></g></g></symbol><symbol id="stop-small" viewBox="0 0 32 32"><g fill-rule="evenodd" class="stop-icon small-icon"><rect x="4" y="4" width="24" height="24" rx="6" class="shape"></rect></g></symbol><symbol id="target-small" viewBox="0 0 32 32"><g fill-rule="evenodd" class="target-icon small-icon"><path d="M4.16591688,18 C5.00895378,23.0250097 8.97499027,26.9910462 14,27.8340831 L14,27.8340831 L14,22 L18,22 L18,27.8340831 C23.0250097,26.9910462 26.9910462,23.0250097 27.8340831,18 L22,18 L22,14 L27.8340831,14 C26.9910462,8.97499027 23.0250097,5.00895378 18,4.16591688 L18,4.16591688 L18,10 L14,10 L14,4.16591688 C8.97499027,5.00895378 5.00895378,8.97499027 4.16591688,14 L11,14 L11,18 L4.16591688,18 Z M16,32 C24.836556,32 32,24.836556 32,16 C32,7.163444 24.836556,0 16,0 C7.163444,0 0,7.163444 0,16 C0,24.836556 7.163444,32 16,32 Z" class="shape"></path></g></symbol><symbol id="thumbs-down-small" viewBox="0 0 32 32"><g fill-rule="evenodd" class="thumbs-down-icon small-icon"><path d="M28,18 C30.209139,18 32,16.2082844 32,14.0052166 L32,3.9947834 C32,1.78852545 30.2145111,0 27.9969935,0 L27.6716649,0 C25.6438604,0 24,1.79171562 24,3.9947834 L24,14.0052166 C24,16.2114745 25.7953562,18 28,18 Z M28,4 C26.8954305,4 26,4.8954305 26,6 C26,7.1045695 26.8954305,8 28,8 C29.1045695,8 30,7.1045695 30,6 C30,4.8954305 29.1045695,4 28,4 Z" class="cuff"></path><path d="M20.4650917,20 C20.4650917,20 21.4999999,18.6341767 21.5,17.5 C21.5000001,16.3658233 20.9767199,15.5 20.9767199,15.5 C20.9767199,15.5 22.005897,14.6500082 21.9999745,13.0794134 C21.9940521,11.5088186 20.6400134,10.60801 18.9520927,10.8987636 C17.2641719,11.1895172 15.1698319,12.6255652 13.9508367,10.6212265 C12.7318416,8.61688779 14.2227078,4.8933764 13.9508367,2.90304944 C13.6789657,0.912722481 11.9811801,-0.326193544 10.737545,0.0754740349 C9.49390988,0.477141614 10.2999389,3.90452868 8.82456814,5.81058165 C7.69928764,7.26434792 7.75218914,8.91375402 6.01136689,10.3040409 C4.27054463,11.6943278 3.27797581,11.9100858 2.250561,12.3525299 C0.56264025,13.079413 2.250561,12.3525299 2.250561,12.3525299 C1.00761048,12.7539763 -1.77635684e-15,14.4193413 -1.77635684e-15,16.078349 L-1.77635684e-15,28.5234228 C-1.77635684e-15,29.6286472 0.856841814,30.780276 1.929822,31.0521784 C1.929822,31.0521784 0.887023982,30.8367497 2.81320125,31.2514927 C4.73937852,31.6662358 11.252805,32.705259 18.004488,31.2514927 C19.6924088,30.5246096 20.4650925,29.1170771 20.4650926,27 C20.4650927,24.8829229 20,25 20,25 C20,25 20.9767207,24.2381405 20.9767208,22.5 C20.9767209,20.7618595 20.4650917,20 20.4650917,20 Z" transform="translate(11.000000, 16.000000) rotate(-180.000000) translate(-11.000000, -16.000000) " class="hand"></path></g></symbol><symbol id="thumbs-up-small" viewBox="0 0 32 32"><g fill-rule="evenodd" class="thumbs-up-icon small-icon"><path d="M4,14 C1.790861,14 0,15.7917156 0,17.9947834 L0,28.0052166 C0,30.2114745 1.7854889,32 4.00300648,32 L4.3283351,32 C6.35613963,32 8,30.2082844 8,28.0052166 L8,17.9947834 C8,15.7885255 6.20464385,14 4,14 Z M4,28 C5.1045695,28 6,27.1045695 6,26 C6,24.8954305 5.1045695,24 4,24 C2.8954305,24 2,24.8954305 2,26 C2,27.1045695 2.8954305,28 4,28 Z" class="cuff"></path><path d="M30.4650917,20 C30.4650917,20 31.4999999,18.6341767 31.5,17.5 C31.5000001,16.3658233 30.9767199,15.5 30.9767199,15.5 C30.9767199,15.5 32.005897,14.6500082 31.9999745,13.0794134 C31.9940521,11.5088186 30.6400134,10.60801 28.9520927,10.8987636 C27.2641719,11.1895172 25.1698319,12.6255652 23.9508367,10.6212265 C22.7318416,8.61688779 24.2227078,4.8933764 23.9508367,2.90304944 C23.6789657,0.912722481 21.9811801,-0.326193544 20.737545,0.0754740349 C19.4939099,0.477141614 20.2999389,3.90452868 18.8245681,5.81058165 C17.6992876,7.26434792 17.7521891,8.91375402 16.0113669,10.3040409 C14.2705446,11.6943278 13.2779758,11.9100858 12.250561,12.3525299 C10.5626403,13.079413 12.250561,12.3525299 12.250561,12.3525299 C11.0076105,12.7539763 10,14.4193413 10,16.078349 L10,28.5234228 C10,29.6286472 10.8568418,30.780276 11.929822,31.0521784 C11.929822,31.0521784 10.887024,30.8367497 12.8132013,31.2514927 C14.7393785,31.6662358 21.252805,32.705259 28.004488,31.2514927 C29.6924088,30.5246096 30.4650925,29.1170771 30.4650926,27 C30.4650927,24.8829229 30,25 30,25 C30,25 30.9767207,24.2381405 30.9767208,22.5 C30.9767209,20.7618595 30.4650917,20 30.4650917,20 Z" class="hand"></path></g></symbol><symbol id="tunnel-small" viewBox="0 0 32 32"><g fill-rule="evenodd" class="tunnel-icon small-icon"><path d="M16.0316535,14 C11.5316535,14 12.0151246,17.1675084 12.0151246,22 L6,32 L26,32 L20.0151243,22 C20.0151243,17.1675084 20.5316535,14 16.0316535,14 Z" class="inner"></path><path d="M6.12255643,32 L0.0658436214,32 C0.0658436214,14.326888 -1.92592593,0 16,0 C33.9259259,0 31.9341564,14.326888 31.9341564,32 L26,32 C25.8814634,17.1948359 24.8690732,6 16.0658436,6 C7.26261408,6 6.11853663,17.1948359 6,32 L6.12255643,32 Z" class="outer"></path></g></symbol><symbol id="user-small" viewBox="0 0 32 32"><g fill-rule="evenodd" class="user-icon small-icon"><path d="M16,18 C20.418278,18 24,13.9705627 24,9 C24,4.02943725 20.418278,0 16,0 C11.581722,0 8,4.02943725 8,9 C8,13.9705627 11.581722,18 16,18 Z" class="head"></path><path d="M22.4999993,17 C22.0388247,17.3343872 19.5001096,19.7777778 16.0001529,19.7777778 C12.5001961,19.7777778 9.96139753,17.3343872 9.49999982,17 C9.0386021,16.6656128 9.49999982,17 9.49999982,17 C7.01471859,16.0323216 4.40011558,18.5976456 3.66012872,22.7297659 L2.70336673,28.0723682 C2.31490801,30.2415394 3.79412025,32 5.99683887,32 L26.0031611,32 C28.2105543,32 29.6846175,30.2388903 29.2966331,28.0723682 L28.339871,22.7297659 C27.5998803,18.5976251 23.8056184,16.4228868 22.4999993,17 C22.4999993,17 22.961174,16.6656128 22.4999993,17 Z" class="body"></path></g></symbol><symbol id="users-small" viewBox="0 0 32 32"><g fill-rule="evenodd" class="users-icon small-icon"><g transform="translate(8.000000, 6.000000)" class="middle"><path d="M8,9.95192308 C10.209139,9.95192308 12,7.72410921 12,4.97596154 C12,2.22781387 10.209139,0 8,0 C5.790861,0 4,2.22781387 4,4.97596154 C4,7.72410921 5.790861,9.95192308 8,9.95192308 Z" class="head"></path><path d="M11.8405934,9.6875 C11.5000001,9.74999997 10.0666603,11.5972222 7.99702112,11.5972222 C5.92738193,11.5972222 4.5761071,9.9173912 4.1532675,9.6875 C3.73042789,9.45760879 4.1532675,9.6875 4.1532675,9.6875 C2.68363923,9.02222109 1.13753874,10.7858814 0.696081311,13.6518967 L0.326299397,16.0525827 C-0.00950502158,18.2326811 1.50592631,20 3.72633654,20 L12.2675249,20 C14.481118,20 16.0022902,18.2256941 15.6675619,16.0525827 L15.2977799,13.6518967 C14.8580569,10.797142 12.3876616,9.47832183 11.8405934,9.6875 C11.8405934,9.6875 12.1811868,9.62500002 11.8405934,9.6875 Z" class="body"></path></g><g transform="translate(-0.100006, 10.000000)" class="left"><path d="M4.1000061,5.16447368 C5.2045756,5.16447368 6.1000061,4.004685 6.1000061,2.57401316 C6.1000061,1.14334131 5.2045756,-0.0164473684 4.1000061,-0.0164473684 C2.9954366,-0.0164473684 2.1000061,1.14334131 2.1000061,2.57401316 C2.1000061,4.004685 2.9954366,5.16447368 4.1000061,5.16447368 Z" class="head"></path><path d="M5.92592573,4.81907895 C5.78928138,4.93457452 5.03706952,5.77850878 4.0000453,5.77850878 C2.96302107,5.77850879 2.21078445,4.93457453 2.07407402,4.81907895 C1.93736358,4.70358337 2.07407402,4.81907895 2.07407402,4.81907895 C1.3376944,4.48484792 0.560860832,5.38480378 0.343094064,6.80232654 L0.249498556,7.41157359 C0.0298843456,8.84112202 1.0229125,10 2.47685185,10 L5.52314815,10 C6.97289562,10 7.96826818,8.82909635 7.75050137,7.41157359 L7.65690585,6.80232654 C7.4372916,5.37277811 6.17967853,4.68159218 5.92592573,4.81907895 C5.92592573,4.81907895 6.06257008,4.70358337 5.92592573,4.81907895 Z" class="body"></path></g><g transform="translate(24.100006, 10.000000)" class="right"><path d="M3.8999939,5.16447368 C5.0045634,5.16447368 5.8999939,4.004685 5.8999939,2.57401316 C5.8999939,1.14334131 5.0045634,-0.0164473684 3.8999939,-0.0164473684 C2.7954244,-0.0164473684 1.8999939,1.14334131 1.8999939,2.57401316 C1.8999939,4.004685 2.7954244,5.16447368 3.8999939,5.16447368 Z" class="head"></path><path d="M5.92592573,4.81907895 C5.78928138,4.93457452 5.03706952,5.77850878 4.0000453,5.77850878 C2.96302107,5.77850879 2.21078445,4.93457453 2.07407402,4.81907895 C1.93736358,4.70358337 2.07407402,4.81907895 2.07407402,4.81907895 C1.3376944,4.48484792 0.560860832,5.38480378 0.343094064,6.80232654 L0.249498556,7.41157359 C0.0298843456,8.84112202 1.0229125,10 2.47685185,10 L5.52314815,10 C6.97289562,10 7.96826818,8.82909635 7.75050137,7.41157359 L7.65690585,6.80232654 C7.4372916,5.37277811 6.17967853,4.68159218 5.92592573,4.81907895 C5.92592573,4.81907895 6.06257008,4.70358337 5.92592573,4.81907895 Z" class="body"></path></g></g></symbol><symbol id="x-small" viewBox="0 0 32 32"><g fill-rule="evenodd" class="x-icon small-icon"><path d="M0.459874109,4.95987411 C0.0661148021,4.5661148 0.0670160996,3.9329839 0.458075277,3.54192472 L3.54192472,0.458075277 C3.93356874,0.0664312616 4.56782146,0.0678214644 4.95987411,0.459874109 L16,12 L27.0438574,0.456142612 C27.4355469,0.064453125 28.0670161,0.0670160996 28.4580753,0.458075277 L31.5419247,3.54192472 C31.9335687,3.93356874 31.9338492,4.56615082 31.5438574,4.95614261 L20,16 L31.6880874,27.1880874 C32.0818467,27.5818467 32.0809454,28.2149776 31.6898862,28.6060368 L28.6060368,31.6898862 C28.2143928,32.0815302 27.58014,32.08014 27.1880874,31.6880874 L16,20 L4.95614261,31.5438574 C4.56445313,31.9355469 3.9329839,31.9329839 3.54192472,31.5419247 L0.458075277,28.4580753 C0.0664312616,28.0664313 0.0661508161,27.4338492 0.456142612,27.0438574 L12,16 L0.459874109,4.95987411 Z" class="shape"></path></g></symbol></svg>