<svg viewBox="0 0 32 32" version="1.1" xmlns="http://www.w3.org/2000/svg"><g fill-rule="evenodd" class="swap-icon small-icon" id="swap-small"><path d="M1.00610394,24.0007445 C0.450448076,24.0003333 0,23.5566468 0,22.9906311 L0,21.0093689 C0,20.4519098 0.443677974,20 1.00116255,20 L5.09808763,20 C6.1996624,20 7.57283596,19.249747 8.16919037,18.3179605 L15.7159167,6.52641859 C16.6089267,5.13111613 18.6681016,4 20.3398773,4 L26,4 L26,1.60003401 C26,-0.0568390341 26.8764733,-0.386577729 27.963705,0.87053384 L31.6152344,5.09261474 C32.0486485,5.59374978 32.0559082,6.40323258 31.6152344,6.91964722 L27.9462779,11.2192056 C26.8713783,12.4788536 26,12.1545487 26,10.4925232 L26,8 L22.1224095,8 C20.4688787,8 18.4107187,9.12555315 17.5111607,10.5362936 L11.0739114,20.631572 C9.88534716,22.4955494 7.13780385,24.0052816 4.93062427,24.0036484 L1.00610394,24.0007445 Z" class="top-to-bottom"></path><path d="M13.0909035,17.3757239 L10.947357,14.0264944 L10.947357,14.0264944 L13.1354382,10.605087 L15.2750229,13.9605113 L13.0909035,17.3757239 Z M13.9814991,18.7672537 L15.7159167,21.4772311 C16.6089267,22.8725336 18.6681016,24.0036497 20.3398773,24.0036497 L26,24.0036497 L26,26.4961729 C26,28.1571565 26.8764733,28.4765326 27.9462779,27.2228553 L31.6152344,22.923297 C32.0486485,22.4153898 32.0559082,21.6004172 31.6152344,21.0840025 L27.9462779,16.7844442 C26.8713783,15.5247962 26,15.8491011 26,17.5111265 L26,20.0036497 L22.1224095,20.0036497 C20.4688787,20.0036497 18.4107187,18.8780966 17.5111607,17.4673561 L16.1639724,15.354615 L13.9814991,18.7672537 Z M10.0567614,12.6349645 L8.16919037,9.68568923 C7.57283596,8.7539027 6.1996624,8.00364973 5.09808763,8.00364973 L1.00116255,8.00364973 C0.443677974,8.00364973 0,7.55173989 0,6.99428084 L0,5.01301863 C0,4.44700291 0.450448076,4.00331642 1.00610394,4.00290527 L4.93062427,4.00000132 C7.13780385,3.99836812 9.88534716,5.5081003 11.0739114,7.37207773 L12.2464887,9.21098328 L10.0567614,12.6349645 L10.0567614,12.6349645 Z" class="bottom-to-top"></path></g></svg>