<svg viewBox="0 0 32 32" version="1.1" xmlns="http://www.w3.org/2000/svg"><g fill-rule="evenodd" class="target-icon small-icon" id="target-small"><path d="M4.16591688,18 C5.00895378,23.0250097 8.97499027,26.9910462 14,27.8340831 L14,27.8340831 L14,22 L18,22 L18,27.8340831 C23.0250097,26.9910462 26.9910462,23.0250097 27.8340831,18 L22,18 L22,14 L27.8340831,14 C26.9910462,8.97499027 23.0250097,5.00895378 18,4.16591688 L18,4.16591688 L18,10 L14,10 L14,4.16591688 C8.97499027,5.00895378 5.00895378,8.97499027 4.16591688,14 L11,14 L11,18 L4.16591688,18 Z M16,32 C24.836556,32 32,24.836556 32,16 C32,7.163444 24.836556,0 16,0 C7.163444,0 0,7.163444 0,16 C0,24.836556 7.163444,32 16,32 Z" class="shape"></path></g></svg>