<svg width="64px" height="64px" viewBox="0 0 64 64" version="1.1" xmlns="http://www.w3.org/2000/svg" class="icon-thumbs-down svg-icon"><g fill-rule="evenodd"><g class="thumbs-down"><path d="M48.9966858,12 C46.2370924,12 44,14.23631 44,17.0019727 L44,30.9980273 C44,33.7605405 46.2293077,36 48.99801,36 L52.6566702,36 L55.0003356,36 C57.761574,36 60,33.76369 60,30.9980273 L60,17.0019727 C60,14.2394595 57.7584215,12 55.0033142,12 L48.9966858,12 Z" transform="translate(52.000000, 24.000000) rotate(-180.000000) translate(-52.000000, -24.000000) " class="cuff"></path><circle transform="translate(52.000000, 20.000000) rotate(-180.000000) translate(-52.000000, -20.000000) " cx="52" cy="20" r="3" class="cuff-hole"></circle><path d="M40.1,36.9999996 C40.1,36.9999996 42,36.6999996 42,33.5782878 C42,31.6999996 40.1,30.9999996 40.1,30.9999996 C40.1,30.9999996 42.0273911,31.2999486 42.01,27.2999996 C42,24.9999996 38.8499999,24.5999991 36,24.9999996 C33.1500001,25.4 28.5582342,27.3756244 26.5,24.6181815 C24.4417658,21.8607387 26.9590455,16.7381664 26.5,14 C26.0409545,11.2618336 24.2298379,9.44741104 22.13,9.99999998 C20.030162,10.5525889 21.3911161,15.377772 18.9,17.9999996 C17,19.9999996 17.0893225,22.2691485 14.15,24.1818176 C11.2106775,26.0944866 9.53475691,26.3913129 7.79999999,26.9999996 C4.95,27.9999996 6.90321035,27.3027991 6.90321035,27.3027991 C5.29981155,27.6878523 4,29.3417702 4,30.99109 L4,49.9950534 C4,51.1023548 4.86566414,52.2187007 5.9472731,52.4605344 C5.9472731,52.4605344 5.49771151,52.4294241 8.74999999,53.0000015 C12.0022885,53.5705788 23,55.0000015 34.4,53.0000015 C37.25,52.0000015 42,51.0000015 42,48.0000015 C42,44.0000015 40.1,44.0000015 40.1,44.0000015 C40.1,44.0000015 42,43.6000015 42,40.5999996 C42,37.5999977 40.1,36.9999996 40.1,36.9999996 Z" transform="translate(23.000000, 32.000000) rotate(-180.000000) translate(-23.000000, -32.000000) " class="hand"></path></g></g></svg>