<svg width="64px" height="64px" viewBox="0 0 64 64" version="1.1" xmlns="http://www.w3.org/2000/svg" class="icon-thumbs-down svg-icon"><g fill-rule="evenodd"><g class="thumbs-down"><path d="M48.9966858,12 C46.2370924,12 44,14.23631 44,17.0019727 L44,30.9980273 C44,33.7605405 46.2293077,36 48.99801,36 L52.6566702,36 L55.0003356,36 C57.761574,36 60,33.76369 60,30.9980273 L60,17.0019727 C60,14.2394595 57.7584215,12 55.0033142,12 L48.9966858,12 Z" transform="translate(52.000000, 24.000000) rotate(-180.000000) translate(-52.000000, -24.000000) " class="cuff"></path><circle transform="translate(52.000000, 20.000000) rotate(-180.000000) translate(-52.000000, -20.000000) " cx="52" cy="20" r="3" class="cuff-hole"></circle><g transform="translate(4.000000, 10.000000)" class="hand"><path d="M36.1,26.9999996 C36.1,26.9999996 38,26.6999996 38,23.5782878 C38,21.6999996 36.1,20.9999996 36.1,20.9999996 C36.1,20.9999996 38.0273911,21.2999486 38.01,17.2999996 C38,14.9999996 34.8499999,14.5999991 32,14.9999996 C29.1500001,15.4 24.5582342,17.3756244 22.5,14.6181815 C20.4417658,11.8607387 22.9590455,6.73816638 22.5,4 C22.0409545,1.26183362 20.2298379,-0.552588955 18.13,-1.75430372e-08 C16.030162,0.55258892 17.3911161,5.37777201 14.9,7.99999955 C13,9.99999955 13.0893225,12.2691485 10.15,14.1818176 C7.21067749,16.0944866 5.53475691,16.3913129 3.79999999,16.9999996 C0.949999999,17.9999996 2.90321035,17.3027991 2.90321035,17.3027991 C1.29981155,17.6878523 1.57164316e-24,19.3417702 1.57164316e-24,20.99109 L1.57164316e-24,39.9950534 C1.57164316e-24,41.1023548 0.865664142,42.2187007 1.9472731,42.4605344 C1.9472731,42.4605344 1.49771151,42.4294241 4.74999999,43.0000015 C8.00228847,43.5705788 19,45.0000015 30.4,43.0000015 C33.25,42.0000015 38,41.0000015 38,38.0000015 C38,34.0000015 36.1,34.0000015 36.1,34.0000015 C36.1,34.0000015 38,33.6000015 38,30.5999996 C38,27.5999977 36.1,26.9999996 36.1,26.9999996 Z" transform="translate(19.000000, 22.000000) rotate(-180.000000) translate(-19.000000, -22.000000) "></path></g></g></g></svg>