<svg viewBox="0 0 32 32" version="1.1" xmlns="http://www.w3.org/2000/svg"><g fill-rule="evenodd" class="thumbs-down-icon small-icon" id="thumbs-down-small"><path d="M28,0 C25.790861,0 24,1.79171562 24,3.9947834 L24,14.0052166 C24,16.2114745 25.7854889,18 28.0030065,18 L28.3283351,18 L28.3283351,18 C30.3561396,18 32,16.2082844 32,14.0052166 L32,3.9947834 C32,1.78852545 30.2046438,0 28,0 L28,0 Z" transform="translate(28.000000, 9.000000) rotate(-180.000000) translate(-28.000000, -9.000000) " class="cuff"></path><circle transform="translate(28.000000, 6.000000) rotate(-180.000000) translate(-28.000000, -6.000000) " cx="28" cy="6" r="2" class="cuff-hole"></circle><path d="M20.4650917,20 C20.4650917,20 21.4999999,18.6341767 21.5,17.5 C21.5000001,16.3658233 20.9767199,15.5 20.9767199,15.5 C20.9767199,15.5 22.005897,14.6500082 21.9999745,13.0794134 C21.9940521,11.5088186 20.6400134,10.60801 18.9520927,10.8987636 C17.2641719,11.1895172 15.1698319,12.6255652 13.9508367,10.6212265 C12.7318416,8.61688779 14.2227078,4.8933764 13.9508367,2.90304944 C13.6789657,0.912722481 11.9811801,-0.326193544 10.737545,0.0754740349 C9.49390988,0.477141614 10.2999389,3.90452868 8.82456814,5.81058165 C7.69928764,7.26434792 7.75218914,8.91375402 6.01136689,10.3040409 C4.27054463,11.6943278 3.27797581,11.9100858 2.250561,12.3525299 C0.56264025,13.079413 2.250561,12.3525299 2.250561,12.3525299 C1.00761048,12.7539763 -1.77635684e-15,14.4193413 -1.77635684e-15,16.078349 L-1.77635684e-15,28.5234228 C-1.77635684e-15,29.6286472 0.856841814,30.780276 1.929822,31.0521784 C1.929822,31.0521784 0.887023982,30.8367497 2.81320125,31.2514927 C4.73937852,31.6662358 11.252805,32.705259 18.004488,31.2514927 C19.6924088,30.5246096 20.4650925,29.1170771 20.4650926,27 C20.4650927,24.8829229 20,25 20,25 C20,25 20.9767207,24.2381405 20.9767208,22.5 C20.9767209,20.7618595 20.4650917,20 20.4650917,20 Z" transform="translate(11.000000, 16.000000) rotate(-180.000000) translate(-11.000000, -16.000000) " class="hand"></path></g></svg>