<svg width="64px" height="64px" viewBox="0 0 64 64" version="1.1" xmlns="http://www.w3.org/2000/svg" class="icon-thumbs-up svg-icon"><g fill-rule="evenodd"><g class="thumbs-up"><path d="M9.99668583,28 C7.23709245,28 5,30.23631 5,33.0019727 L5,46.9980273 C5,49.7605405 7.22930768,52 9.99801003,52 L13.6566702,52 L16.0003356,52 C18.761574,52 21,49.76369 21,46.9980273 L21,33.0019727 C21,30.2394595 18.7584215,28 16.0033142,28 L9.99668583,28 Z" class="cuff"></path><circle cx="13" cy="44" r="3" class="cuff-hole"></circle><path d="M59.1,36.9999996 C59.1,36.9999996 61,36.6999996 61,33.5782878 C61,31.6999996 59.1,30.9999996 59.1,30.9999996 C59.1,30.9999996 61.0273911,31.2999486 61.01,27.2999996 C61,24.9999996 57.8499999,24.5999991 55,24.9999996 C52.1500001,25.4 47.5582342,27.3756244 45.5,24.6181815 C43.4417658,21.8607387 45.9590455,16.7381664 45.5,14 C45.0409545,11.2618336 43.2298379,9.44741104 41.13,9.99999998 C39.030162,10.5525889 40.3911161,15.377772 37.9,17.9999996 C36,19.9999996 36.0893225,22.2691485 33.15,24.1818176 C30.2106775,26.0944866 28.5347569,26.3913129 26.8,26.9999996 C23.95,27.9999996 25.9032104,27.3027991 25.9032104,27.3027991 C24.2998115,27.6878523 23,29.3417702 23,30.99109 L23,49.9950534 C23,51.1023548 23.8656641,52.2187007 24.9472731,52.4605344 C24.9472731,52.4605344 24.4977115,52.4294241 27.75,53.0000015 C31.0022885,53.5705788 42,55.0000015 53.4,53.0000015 C56.25,52.0000015 61,51.0000015 61,48.0000015 C61,44.0000015 59.1,44.0000015 59.1,44.0000015 C59.1,44.0000015 61,43.6000015 61,40.5999996 C61,37.5999977 59.1,36.9999996 59.1,36.9999996 Z" class="hand"></path></g></g></svg>