<svg width="32px" height="32px" viewBox="0 0 32 32" version="1.1" xmlns="http://www.w3.org/2000/svg" class="small-icon thumbs-up-icon svg-icon"><g fill-rule="evenodd"><g><path d="M4,14 C1.790861,14 0,15.7917156 0,17.9947834 L0,28.0052166 C0,30.2114745 1.7854889,32 4.00300648,32 L4.3283351,32 L4.3283351,32 C6.35613963,32 8,30.2082844 8,28.0052166 L8,17.9947834 C8,15.7885255 6.20464385,14 4,14 L4,14 Z" class="cuff"></path><path d="M4,28 C5.1045695,28 6,27.1045695 6,26 C6,24.8954305 5.1045695,24 4,24 C2.8954305,24 2,24.8954305 2,26 C2,27.1045695 2.8954305,28 4,28 Z" class="cuff-hole"></path><path d="M30.4650917,20 C30.4650917,20 31.4999999,18.6341767 31.5,17.5 C31.5000001,16.3658233 30.9767199,15.5 30.9767199,15.5 C30.9767199,15.5 32.005897,14.6500082 31.9999745,13.0794134 C31.9940521,11.5088186 30.6400134,10.60801 28.9520927,10.8987636 C27.2641719,11.1895172 25.1698319,12.6255652 23.9508367,10.6212265 C22.7318416,8.61688779 24.2227078,4.8933764 23.9508367,2.90304944 C23.6789657,0.912722481 21.9811801,-0.326193544 20.737545,0.0754740349 C19.4939099,0.477141614 20.2999389,3.90452868 18.8245681,5.81058165 C17.6992876,7.26434792 17.7521891,8.91375402 16.0113669,10.3040409 C14.2705446,11.6943278 13.2779758,11.9100858 12.250561,12.3525299 C10.5626403,13.079413 12.250561,12.3525299 12.250561,12.3525299 C11.0076105,12.7539763 10,14.4193413 10,16.078349 L10,28.5234228 C10,29.6286472 10.8568418,30.780276 11.929822,31.0521784 C11.929822,31.0521784 10.887024,30.8367497 12.8132013,31.2514927 C14.7393785,31.6662358 21.252805,32.705259 28.004488,31.2514927 C29.6924088,30.5246096 30.4650925,29.1170771 30.4650926,27 C30.4650927,24.8829229 30,25 30,25 C30,25 30.9767207,24.2381405 30.9767208,22.5 C30.9767209,20.7618595 30.4650917,20 30.4650917,20 Z" class="hand"></path></g></g></svg>