<svg viewBox="0 0 32 32" version="1.1" xmlns="http://www.w3.org/2000/svg" class="svg-icon"><g fill-rule="evenodd" class="users-icon small-icon" id="users-small"><g transform="translate(8.000000, 6.000000)" class="middle"><path d="M8,9.95192308 C10.209139,9.95192308 12,7.72410921 12,4.97596154 C12,2.22781387 10.209139,0 8,0 C5.790861,0 4,2.22781387 4,4.97596154 C4,7.72410921 5.790861,9.95192308 8,9.95192308 Z" class="head"></path><path d="M11.8405934,9.6875 C11.5000001,9.74999997 10.0666603,11.5972222 7.99702112,11.5972222 C5.92738193,11.5972222 4.5761071,9.9173912 4.1532675,9.6875 C3.73042789,9.45760879 4.1532675,9.6875 4.1532675,9.6875 C2.68363923,9.02222109 1.13753874,10.7858814 0.696081311,13.6518967 L0.326299397,16.0525827 C-0.00950502158,18.2326811 1.50592631,20 3.72633654,20 L12.2675249,20 C14.481118,20 16.0022902,18.2256941 15.6675619,16.0525827 L15.2977799,13.6518967 C14.8580569,10.797142 12.3876616,9.47832183 11.8405934,9.6875 C11.8405934,9.6875 12.1811868,9.62500002 11.8405934,9.6875 Z" class="body"></path></g><g transform="translate(-0.100006, 10.000000)" class="left"><path d="M4.1000061,5.16447368 C5.2045756,5.16447368 6.1000061,4.004685 6.1000061,2.57401316 C6.1000061,1.14334131 5.2045756,-0.0164473684 4.1000061,-0.0164473684 C2.9954366,-0.0164473684 2.1000061,1.14334131 2.1000061,2.57401316 C2.1000061,4.004685 2.9954366,5.16447368 4.1000061,5.16447368 Z" class="head"></path><path d="M5.92592573,4.81907895 C5.78928138,4.93457452 5.03706952,5.77850878 4.0000453,5.77850878 C2.96302107,5.77850879 2.21078445,4.93457453 2.07407402,4.81907895 C1.93736358,4.70358337 2.07407402,4.81907895 2.07407402,4.81907895 C1.3376944,4.48484792 0.560860832,5.38480378 0.343094064,6.80232654 L0.249498556,7.41157359 C0.0298843456,8.84112202 1.0229125,10 2.47685185,10 L5.52314815,10 C6.97289562,10 7.96826818,8.82909635 7.75050137,7.41157359 L7.65690585,6.80232654 C7.4372916,5.37277811 6.17967853,4.68159218 5.92592573,4.81907895 C5.92592573,4.81907895 6.06257008,4.70358337 5.92592573,4.81907895 Z" class="body"></path></g><g transform="translate(24.100006, 10.000000)" class="right"><path d="M3.8999939,5.16447368 C5.0045634,5.16447368 5.8999939,4.004685 5.8999939,2.57401316 C5.8999939,1.14334131 5.0045634,-0.0164473684 3.8999939,-0.0164473684 C2.7954244,-0.0164473684 1.8999939,1.14334131 1.8999939,2.57401316 C1.8999939,4.004685 2.7954244,5.16447368 3.8999939,5.16447368 Z" class="head"></path><path d="M5.92592573,4.81907895 C5.78928138,4.93457452 5.03706952,5.77850878 4.0000453,5.77850878 C2.96302107,5.77850879 2.21078445,4.93457453 2.07407402,4.81907895 C1.93736358,4.70358337 2.07407402,4.81907895 2.07407402,4.81907895 C1.3376944,4.48484792 0.560860832,5.38480378 0.343094064,6.80232654 L0.249498556,7.41157359 C0.0298843456,8.84112202 1.0229125,10 2.47685185,10 L5.52314815,10 C6.97289562,10 7.96826818,8.82909635 7.75050137,7.41157359 L7.65690585,6.80232654 C7.4372916,5.37277811 6.17967853,4.68159218 5.92592573,4.81907895 C5.92592573,4.81907895 6.06257008,4.70358337 5.92592573,4.81907895 Z" class="body"></path></g></g></svg>