<svg viewBox="0 0 32 32" version="1.1" xmlns="http://www.w3.org/2000/svg" class="small-icon user-icon svg-icon" style="display: none;"><defs><g fill-rule="evenodd" id="user-small"><g><path d="M16,18 C20.418278,18 24,13.9705627 24,9 C24,4.02943725 20.418278,0 16,0 C11.581722,0 8,4.02943725 8,9 C8,13.9705627 11.581722,18 16,18 Z" class="head"></path><path d="M22.4999993,17 C22.0388247,17.3343872 19.5001096,19.7777778 16.0001529,19.7777778 C12.5001961,19.7777778 9.96139753,17.3343872 9.49999982,17 C9.0386021,16.6656128 9.49999982,17 9.49999982,17 C7.01471859,16.0323216 4.40011558,18.5976456 3.66012872,22.7297659 L2.70336673,28.0723682 C2.31490801,30.2415394 3.79412025,32 5.99683887,32 L26.0031611,32 C28.2105543,32 29.6846175,30.2388903 29.2966331,28.0723682 L28.339871,22.7297659 C27.5998803,18.5976251 23.8056184,16.4228868 22.4999993,17 C22.4999993,17 22.961174,16.6656128 22.4999993,17 Z" class="body"></path></g></g></defs></svg>