<svg width="64px" height="64px" viewBox="0 0 64 64" version="1.1" xmlns="http://www.w3.org/2000/svg" class="icon-users svg-icon"><g fill-rule="evenodd"><g class="users"><g transform="translate(12.000000, 9.000000)" class="middle"><path d="M20.0500002,25.7245196 C27.2573163,25.7245196 33.1000004,19.9099253 33.1000004,12.7372598 C33.1000004,5.56459427 27.2573163,-0.25 20.0500002,-0.25 C12.8426841,-0.25 7,5.56459427 7,12.7372598 C7,19.9099253 12.8426841,25.7245196 20.0500002,25.7245196 Z" class="head"></path><path d="M29.6574042,24.4375 C28.9793066,24.9181816 25.2464556,28.4305556 20.1002233,28.4305556 C14.9539909,28.4305556 11.221017,24.9181816 10.5425915,24.4375 C9.86416605,23.9568184 10.5425915,24.4375 10.5425915,24.4375 C6.88830794,23.0464623 3.04387343,26.7341156 1.95581876,32.6740384 L0.235815541,42.0639034 C-0.162382134,44.2377495 1.31032717,46 3.51856939,46 L36.6814276,46 C38.8926401,46 40.3608225,44.2292521 39.9641813,42.0639034 L38.2441778,32.6740384 C37.1561175,26.7340861 31.6627334,23.5752392 29.6574042,24.4375 C29.6574042,24.4375 30.3355017,23.9568184 29.6574042,24.4375 Z" class="body"></path></g><g transform="translate(0.000000, 18.000000)" class="left"><path d="M8,11.8125 C10.9455187,11.8125 13.3333333,9.1681818 13.3333333,5.90625 C13.3333333,2.6443182 10.9455187,0 8,0 C5.05448133,0 2.66666667,2.6443182 2.66666667,5.90625 C2.66666667,9.1681818 5.05448133,11.8125 8,11.8125 Z" class="head"></path><path d="M11.8518515,11.15625 C11.5785628,11.3756916 10.074139,12.9791667 8.0000906,12.9791667 C5.92604214,12.9791667 4.42156891,11.3756916 4.14814804,11.15625 C3.87472717,10.9368084 4.14814804,11.15625 4.14814804,11.15625 C2.6753888,10.521211 1.12599442,12.2047049 0.686188128,14.9244204 L0.343010643,17.0465936 C-0.0100688301,19.2299997 1.49516682,21 3.69915813,21 L12.3008419,21 C14.5074704,21 16.0106655,19.2336896 15.6569892,17.0465936 L15.3138117,14.9244204 C14.8745832,12.2082784 12.4593034,10.8503253 11.8518515,11.15625 C11.8518515,11.15625 12.1251402,10.9368084 11.8518515,11.15625 Z" class="body"></path></g><g transform="translate(48.000000, 18.000000)" class="right"><path d="M8,11.8125 C10.9455187,11.8125 13.3333333,9.1681818 13.3333333,5.90625 C13.3333333,2.6443182 10.9455187,0 8,0 C5.05448133,0 2.66666667,2.6443182 2.66666667,5.90625 C2.66666667,9.1681818 5.05448133,11.8125 8,11.8125 Z" class="head"></path><path d="M11.8518515,11.15625 C11.5785628,11.3756916 10.074139,12.9791667 8.0000906,12.9791667 C5.92604214,12.9791667 4.42156891,11.3756916 4.14814804,11.15625 C3.87472717,10.9368084 4.14814804,11.15625 4.14814804,11.15625 C2.6753888,10.521211 1.12599442,12.2047049 0.686188128,14.9244204 L0.343010643,17.0465936 C-0.0100688301,19.2299997 1.49516682,21 3.69915813,21 L12.3008419,21 C14.5074704,21 16.0106655,19.2336896 15.6569892,17.0465936 L15.3138117,14.9244204 C14.8745832,12.2082784 12.4593034,10.8503253 11.8518515,11.15625 C11.8518515,11.15625 12.1251402,10.9368084 11.8518515,11.15625 Z" class="body"></path></g></g></g></svg>