<svg width="64px" height="64px" viewBox="0 0 64 64" version="1.1" xmlns="http://www.w3.org/2000/svg" class="icon-user svg-icon"><g fill-rule="evenodd"><g class="user"><path d="M32,36 C41.9411255,36 50,27.9411255 50,18 C50,8.0588745 41.9411255,0 32,0 C22.0588745,0 14,8.0588745 14,18 C14,27.9411255 22.0588745,36 32,36 Z" class="head"></path><path d="M44.9999987,34 C44.0776493,34.6687744 39.0002193,39.5555556 32.0003058,39.5555556 C25.0003922,39.5555556 19.9227951,34.6687744 18.9999996,34 C18.0772042,33.3312256 18.9999996,34 18.9999996,34 C14.0294372,32.0646432 8.81459322,37.1150928 7.35521472,45.2643286 L4.70591985,60.0581115 C4.31605108,62.2351564 5.79979503,64 8.00490831,64 L55.9950917,64 C58.2069415,64 59.6858617,62.2458376 59.29408,60.0581115 L56.6447847,45.2643286 C55.1841097,37.1078549 47.7042691,32.8094451 44.9999987,34 C44.9999987,34 45.922348,33.3312256 44.9999987,34 Z" class="body"></path></g></g></svg>