<svg viewBox="0 0 32 32" version="1.1" xmlns="http://www.w3.org/2000/svg" class="svg-icon"><g fill-rule="evenodd" class="x-icon small-icon" id="x-small"><path d="M0.459874109,4.95987411 C0.0661148021,4.5661148 0.0670160996,3.9329839 0.458075277,3.54192472 L3.54192472,0.458075277 C3.93356874,0.0664312616 4.56782146,0.0678214644 4.95987411,0.459874109 L16,12 L27.0438574,0.456142612 C27.4355469,0.064453125 28.0670161,0.0670160996 28.4580753,0.458075277 L31.5419247,3.54192472 C31.9335687,3.93356874 31.9338492,4.56615082 31.5438574,4.95614261 L20,16 L31.6880874,27.1880874 C32.0818467,27.5818467 32.0809454,28.2149776 31.6898862,28.6060368 L28.6060368,31.6898862 C28.2143928,32.0815302 27.58014,32.08014 27.1880874,31.6880874 L16,20 L4.95614261,31.5438574 C4.56445313,31.9355469 3.9329839,31.9329839 3.54192472,31.5419247 L0.458075277,28.4580753 C0.0664312616,28.0664313 0.0661508161,27.4338492 0.456142612,27.0438574 L12,16 L0.459874109,4.95987411 Z" class="shape"></path></g></svg>