<svg width="32px" height="32px" viewBox="0 0 32 32" version="1.1" xmlns="http://www.w3.org/2000/svg" class="small-icon x-icon gears-icon gear-bottom svg-icon"><g fill-rule="evenodd"><g><path d="M0.459874109,4.95987411 C0.0661148021,4.5661148 0.0670160996,3.9329839 0.458075277,3.54192472 L3.54192472,0.458075277 C3.93356874,0.0664312616 4.56782146,0.0678214644 4.95987411,0.459874109 L16,12 L27.0438574,0.456142612 C27.4355469,0.064453125 28.0670161,0.0670160996 28.4580753,0.458075277 L31.5419247,3.54192472 C31.9335687,3.93356874 31.9338492,4.56615082 31.5438574,4.95614261 L20,16 L31.6880874,27.1880874 C32.0818467,27.5818467 32.0809454,28.2149776 31.6898862,28.6060368 L28.6060368,31.6898862 C28.2143928,32.0815302 27.58014,32.08014 27.1880874,31.6880874 L16,20 L4.95614261,31.5438574 C4.56445313,31.9355469 3.9329839,31.9329839 3.54192472,31.5419247 L0.458075277,28.4580753 C0.0664312616,28.0664313 0.0661508161,27.4338492 0.456142612,27.0438574 L12,16 L0.459874109,4.95987411 Z" class="shape"></path></g><g transform="translate(-32.000000, -32.000000)"><g transform="translate(24.865268, 24.065219) rotate(-22.000000) translate(-24.865268, -24.065219) translate(16.365268, 15.565219)"><path d="M6.86828013,0.613972134 C6.86828013,1.1287853 6.86828013,2.34657023 6.86828013,2.34657023 L8.91085202,2.34657023 C8.91085202,2.34657023 8.91085203,1.14690506 8.91085202,0.613972134 C8.91085202,0.0810392104 6.86828013,0.0991589692 6.86828013,0.613972134 Z M12.6530549,2.15722811 C12.289027,2.52125599 11.4279229,3.38236003 11.4279229,3.38236003 L12.8722394,4.8266764 C12.8722394,4.8266764 13.7205308,3.97838503 14.0973713,3.60154454 C14.4742118,3.22470405 13.0170827,1.79320023 12.6530549,2.15722811 Z M15.6626656,7.36578569 C15.1478524,7.36578569 13.9300675,7.36578568 13.9300675,7.36578568 L13.9300675,9.40835758 C13.9300675,9.40835758 15.1297326,9.40835758 15.6626656,9.40835758 C16.1955985,9.40835758 16.1774787,7.36578569 15.6626656,7.36578569 Z M14.0973713,13.1725987 C13.7333434,12.8085708 12.8722394,11.9474668 12.8722394,11.9474668 L11.427923,13.3917833 C11.427923,13.3917833 12.2762144,14.2400747 12.6530549,14.6169152 C13.0298953,14.9937556 14.4613992,13.5366266 14.0973713,13.1725987 Z M8.91085202,16.1601711 C8.91085202,15.645358 8.91085202,14.427573 8.91085202,14.427573 L6.86828013,14.427573 C6.86828013,14.427573 6.86828012,15.6272382 6.86828013,16.1601711 C6.86828013,16.6931041 8.91085202,16.6749843 8.91085202,16.1601711 Z M3.10403898,14.5948846 C3.46806686,14.2308568 4.3291709,13.3697527 4.3291709,13.3697527 L2.88485441,11.9254363 C2.88485441,11.9254363 2.03656303,12.7737277 1.65972255,13.1505682 C1.28288206,13.5274087 2.7400111,14.9589125 3.10403898,14.5948846 Z M0.116466578,9.40835757 C0.631279743,9.40835757 1.84906467,9.40835758 1.84906467,9.40835758 L1.84906467,7.36578568 C1.84906467,7.36578568 0.649399502,7.36578568 0.116466578,7.36578568 C-0.416466346,7.36578568 -0.398346587,9.40835757 0.116466578,9.40835757 Z M1.68524847,3.60154454 C2.04927634,3.96557242 2.91038038,4.82667646 2.91038038,4.82667646 L4.35469676,3.38235997 C4.35469676,3.38235997 3.50640539,2.53406858 3.1295649,2.1572281 C2.75272441,1.78038762 1.32122059,3.23751666 1.68524847,3.60154454 Z" transform="translate(8.125247, 8.387072) rotate(-2.000000) translate(-8.125247, -8.387072) " class="gears"></path><path d="M7.96698946,14.924392 C11.4866031,14.924392 14.3398138,12.0711813 14.3398138,8.55156765 C14.3398138,5.03195398 11.4866031,2.17874335 7.96698946,2.17874335 C4.44737578,2.17874335 1.59416516,5.03195398 1.59416516,8.55156765 C1.59416516,12.0711813 4.44737578,14.924392 7.96698946,14.924392 Z M7.96698946,13.0656515 C10.4600491,13.0656515 12.4810733,11.0446273 12.4810733,8.55156765 C12.4810733,6.05850797 10.4600491,4.03748377 7.96698946,4.03748377 C5.47392977,4.03748377 3.45290558,6.05850797 3.45290558,8.55156765 C3.45290558,11.0446273 5.47392977,13.0656515 7.96698946,13.0656515 Z" class="gear-body outer"></path></g></g></g></svg>