<svg width="64px" height="64px" viewBox="0 0 64 64" version="1.1" xmlns="http://www.w3.org/2000/svg" class="icon-x svg-icon"><g fill-rule="evenodd"><g class="x"><path d="M0.919748218,9.91974822 C0.132229604,9.1322296 0.134032199,7.8659678 0.916150553,7.08384945 L7.08384945,0.916150553 C7.86713748,0.132862523 9.13564293,0.135642929 9.91974822,0.919748218 L32,23 L54.0877148,0.912285224 C54.8710938,0.12890625 56.1340322,0.134032199 56.9161506,0.916150553 L63.0838494,7.08384945 C63.8671375,7.86713748 63.8676984,9.13230163 63.0877148,9.91228522 L41,32 L63.3761748,54.3761748 C64.1636934,55.1636934 64.1618908,56.4299552 63.3797725,57.2120736 L57.2120736,63.3797725 C56.4287855,64.1630605 55.1602801,64.1602801 54.3761748,63.3761748 L32,41 L9.91228522,63.0877148 C9.12890625,63.8710937 7.8659678,63.8659678 7.08384945,63.0838494 L0.916150553,56.9161506 C0.132862523,56.1328625 0.132301632,54.8676984 0.912285224,54.0877148 L23,32 L0.919748218,9.91974822 Z"></path></g></g></svg>